<svg xmlns="http://www.w3.org/2000/svg" xmlns:xlink="http://www.w3.org/1999/xlink" version="1.1" width="332.18965" height="194.93032" viewBox="0 0 332.18965 194.93032">
<defs>
<clipPath id="clip_0">
<path d="M37.23 .5H199.67099V163.199H37.23Z"/>
</clipPath>
<clipPath id="clip_1">
<path d="M0 0H333V195H0Z"/>
</clipPath>
<clipPath id="clip_2">
<path d="M37.23 .5H199.67099V163.199H37.23Z"/>
</clipPath>
<clipPath id="clip_3">
<path d="M0 0H333V195H0Z"/>
</clipPath>
<clipPath id="clip_4">
<path d="M37.23 .5H199.67099V163.199H37.23Z"/>
</clipPath>
<clipPath id="clip_5">
<path d="M0 0H333V195H0Z"/>
</clipPath>
<clipPath id="clip_6">
<path d="M37.23 .5H199.67099V163.199H37.23Z"/>
</clipPath>
<clipPath id="clip_7">
<path d="M0 0H333V195H0Z"/>
</clipPath>
<clipPath id="clip_8">
<path d="M37.23 .5H199.67099V163.199H37.23Z"/>
</clipPath>
<clipPath id="clip_9">
<path d="M0 0H333V195H0Z"/>
</clipPath>
<clipPath id="clip_10">
<path d="M37.23 .5H199.67099V163.199H37.23Z"/>
</clipPath>
<clipPath id="clip_11">
<path d="M0 0H333V195H0Z"/>
</clipPath>
<clipPath id="clip_12">
<path d="M37.23 .5H199.67099V163.199H37.23Z"/>
</clipPath>
<clipPath id="clip_13">
<path d="M0 0H333V195H0Z"/>
</clipPath>
<clipPath id="clip_14">
<path d="M37.23 .5H199.67099V163.199H37.23Z"/>
</clipPath>
<clipPath id="clip_15">
<path d="M0 0H333V195H0Z"/>
</clipPath>
<clipPath id="clip_16">
<path d="M37.23 .5H199.67099V163.199H37.23Z"/>
</clipPath>
<clipPath id="clip_17">
<path d="M0 0H333V195H0Z"/>
</clipPath>
<clipPath id="clip_18">
<path d="M37.23 .5H199.67099V163.199H37.23Z"/>
</clipPath>
<clipPath id="clip_19">
<path d="M0 0H333V195H0Z"/>
</clipPath>
<clipPath id="clip_20">
<path d="M37.23 .5H199.67099V163.199H37.23Z"/>
</clipPath>
<clipPath id="clip_21">
<path d="M0 0H333V195H0Z"/>
</clipPath>
<clipPath id="clip_22">
<path d="M37.23 .5H199.67099V163.199H37.23Z"/>
</clipPath>
<clipPath id="clip_23">
<path d="M0 0H333V195H0Z"/>
</clipPath>
<clipPath id="clip_24">
<path d="M0 0H333V195H0Z"/>
</clipPath>
<clipPath id="clip_25">
<path d="M0 0H333V195H0Z"/>
</clipPath>
<clipPath id="clip_26">
<path d="M0 0H333V195H0Z"/>
</clipPath>
<clipPath id="clip_27">
<path d="M0 0H333V195H0Z"/>
</clipPath>
<clipPath id="clip_28">
<path d="M0 0H333V195H0Z"/>
</clipPath>
<clipPath id="clip_29">
<path d="M0 0H333V195H0Z"/>
</clipPath>
<clipPath id="clip_30">
<path d="M0 0H333V195H0Z"/>
</clipPath>
<clipPath id="clip_31">
<path d="M0 0H333V195H0Z"/>
</clipPath>
</defs>
<g>
<path d="M37.23 .5H199.67099V163.199H37.23Z" fill="#ffffff"/>
<g clip-path="url(#clip_0)">
<g clip-path="url(#clip_1)">
<path stroke-width=".8" stroke-linecap="round" stroke-linejoin="round" fill="none" stroke="#cccccc" d="M44.613 163.199V.5"/>
</g>
</g>
<path d="M39.141 171.266C39.141 172.059 39.066 172.727 38.918 173.266 38.766 173.809 38.562 174.246 38.301 174.578 38.043 174.914 37.738 175.152 37.387 175.297 37.035 175.441 36.66 175.516 36.262 175.516 35.859 175.516 35.484 175.441 35.137 175.297 34.789 175.152 34.484 174.914 34.23 174.582 33.973 174.25 33.773 173.812 33.625 173.273 33.48 172.73 33.406 172.062 33.406 171.266 33.406 170.434 33.48 169.746 33.625 169.199 33.773 168.656 33.973 168.219 34.23 167.895 34.488 167.574 34.797 167.344 35.145 167.215 35.496 167.082 35.879 167.016 36.297 167.016 36.691 167.016 37.059 167.082 37.402 167.215 37.75 167.344 38.051 167.574 38.309 167.895 38.566 168.219 38.77 168.656 38.918 169.199 39.066 169.746 39.141 170.434 39.141 171.266ZM38.07 171.266C38.07 170.609 38.031 170.062 37.953 169.629 37.875 169.191 37.762 168.844 37.609 168.586 37.457 168.324 37.27 168.141 37.047 168.031 36.828 167.926 36.578 167.871 36.297 167.871 36 167.871 35.738 167.926 35.512 168.035 35.285 168.145 35.094 168.328 34.938 168.59 34.785 168.852 34.668 169.199 34.59 169.633 34.512 170.07 34.473 170.613 34.473 171.266 34.473 171.898 34.512 172.43 34.594 172.863 34.672 173.297 34.789 173.648 34.945 173.91 35.098 174.176 35.289 174.363 35.512 174.48 35.734 174.594 35.988 174.652 36.27 174.652 36.551 174.652 36.801 174.594 37.02 174.48 37.242 174.363 37.434 174.176 37.586 173.91 37.742 173.648 37.859 173.297 37.945 172.863 38.027 172.43 38.07 171.898 38.07 171.266ZM38.07 171.266" fill="#262626"/>
<path d="M40.707 174.113H41.852V175.39402H40.707Z" fill="#262626"/>
<path d="M49.148 171.266C49.148 172.059 49.074 172.727 48.926 173.266 48.773 173.809 48.57 174.246 48.309 174.578 48.051 174.914 47.746 175.152 47.395 175.297 47.043 175.441 46.668 175.516 46.27 175.516 45.867 175.516 45.492 175.441 45.145 175.297 44.797 175.152 44.492 174.914 44.238 174.582 43.98 174.25 43.781 173.812 43.633 173.273 43.488 172.73 43.414 172.062 43.414 171.266 43.414 170.434 43.488 169.746 43.633 169.199 43.781 168.656 43.98 168.219 44.238 167.895 44.496 167.574 44.805 167.344 45.152 167.215 45.504 167.082 45.887 167.016 46.305 167.016 46.699 167.016 47.066 167.082 47.41 167.215 47.758 167.344 48.059 167.574 48.316 167.895 48.574 168.219 48.777 168.656 48.926 169.199 49.074 169.746 49.148 170.434 49.148 171.266ZM48.078 171.266C48.078 170.609 48.039 170.062 47.961 169.629 47.883 169.191 47.77 168.844 47.617 168.586 47.465 168.324 47.277 168.141 47.055 168.031 46.836 167.926 46.586 167.871 46.305 167.871 46.008 167.871 45.746 167.926 45.52 168.035 45.293 168.145 45.102 168.328 44.945 168.59 44.793 168.852 44.676 169.199 44.598 169.633 44.52 170.07 44.48 170.613 44.48 171.266 44.48 171.898 44.52 172.43 44.602 172.863 44.68 173.297 44.797 173.648 44.953 173.91 45.105 174.176 45.297 174.363 45.52 174.48 45.742 174.594 45.996 174.652 46.277 174.652 46.559 174.652 46.809 174.594 47.027 174.48 47.25 174.363 47.441 174.176 47.594 173.91 47.75 173.648 47.867 173.297 47.953 172.863 48.035 172.43 48.078 171.898 48.078 171.266ZM48.078 171.266" fill="#262626"/>
<path d="M55.824 171.266C55.824 172.059 55.75 172.727 55.598 173.266 55.449 173.809 55.242 174.246 54.984 174.578 54.723 174.914 54.418 175.152 54.066 175.297 53.715 175.441 53.34 175.516 52.941 175.516 52.539 175.516 52.164 175.441 51.816 175.297 51.469 175.152 51.168 174.914 50.91 174.582 50.656 174.25 50.453 173.812 50.309 173.273 50.16 172.73 50.09 172.062 50.09 171.266 50.09 170.434 50.16 169.746 50.309 169.199 50.453 168.656 50.656 168.219 50.914 167.895 51.172 167.574 51.477 167.344 51.828 167.215 52.18 167.082 52.562 167.016 52.977 167.016 53.371 167.016 53.742 167.082 54.086 167.215 54.434 167.344 54.734 167.574 54.992 167.895 55.25 168.219 55.453 168.656 55.602 169.199 55.75 169.746 55.824 170.434 55.824 171.266ZM54.754 171.266C54.754 170.609 54.715 170.062 54.637 169.629 54.559 169.191 54.441 168.844 54.289 168.586 54.137 168.324 53.949 168.141 53.73 168.031 53.508 167.926 53.258 167.871 52.977 167.871 52.68 167.871 52.418 167.926 52.191 168.035 51.965 168.145 51.773 168.328 51.621 168.59 51.465 168.852 51.352 169.199 51.27 169.633 51.195 170.07 51.156 170.613 51.156 171.266 51.156 171.898 51.195 172.43 51.273 172.863 51.355 173.297 51.473 173.648 51.625 173.91 51.781 174.176 51.969 174.363 52.191 174.48 52.414 174.594 52.668 174.652 52.953 174.652 53.23 174.652 53.48 174.594 53.703 174.48 53.926 174.363 54.113 174.176 54.266 173.91 54.422 173.648 54.543 173.297 54.625 172.863 54.711 172.43 54.754 171.898 54.754 171.266ZM54.754 171.266" fill="#262626"/>
<g clip-path="url(#clip_2)">
<g clip-path="url(#clip_3)">
<path stroke-width=".8" stroke-linecap="round" stroke-linejoin="round" fill="none" stroke="#cccccc" d="M81.531 163.199V.5"/>
</g>
</g>
<path d="M76.059 171.266C76.059 172.059 75.984 172.727 75.836 173.266 75.684 173.809 75.48 174.246 75.219 174.578 74.961 174.914 74.656 175.152 74.305 175.297 73.953 175.441 73.578 175.516 73.18 175.516 72.777 175.516 72.402 175.441 72.055 175.297 71.707 175.152 71.402 174.914 71.148 174.582 70.891 174.25 70.691 173.812 70.543 173.273 70.398 172.73 70.324 172.062 70.324 171.266 70.324 170.434 70.398 169.746 70.543 169.199 70.691 168.656 70.891 168.219 71.148 167.895 71.41 167.574 71.715 167.344 72.066 167.215 72.414 167.082 72.801 167.016 73.215 167.016 73.609 167.016 73.977 167.082 74.32 167.215 74.668 167.344 74.969 167.574 75.227 167.895 75.488 168.219 75.691 168.656 75.836 169.199 75.984 169.746 76.059 170.434 76.059 171.266ZM74.988 171.266C74.988 170.609 74.949 170.062 74.871 169.629 74.793 169.191 74.68 168.844 74.527 168.586 74.375 168.324 74.188 168.141 73.965 168.031 73.746 167.926 73.496 167.871 73.215 167.871 72.918 167.871 72.656 167.926 72.43 168.035 72.203 168.145 72.012 168.328 71.855 168.59 71.703 168.852 71.586 169.199 71.508 169.633 71.43 170.07 71.391 170.613 71.391 171.266 71.391 171.898 71.43 172.43 71.512 172.863 71.59 173.297 71.707 173.648 71.863 173.91 72.016 174.176 72.207 174.363 72.43 174.48 72.652 174.594 72.906 174.652 73.191 174.652 73.469 174.652 73.719 174.594 73.941 174.48 74.164 174.363 74.352 174.176 74.504 173.91 74.66 173.648 74.777 173.297 74.863 172.863 74.945 172.43 74.988 171.898 74.988 171.266ZM74.988 171.266" fill="#262626"/>
<path d="M77.625 174.113H78.77V175.39402H77.625Z" fill="#262626"/>
<path d="M80.469 175.395V174.652C80.668 174.195 80.91 173.793 81.195 173.441 81.484 173.094 81.785 172.777 82.102 172.492 82.418 172.211 82.73 171.945 83.043 171.703 83.352 171.461 83.633 171.219 83.883 170.98 84.133 170.734 84.336 170.484 84.488 170.219 84.645 169.953 84.723 169.648 84.723 169.312 84.723 169.078 84.688 168.875 84.613 168.695 84.547 168.52 84.445 168.367 84.312 168.25 84.18 168.129 84.02 168.035 83.832 167.977 83.648 167.914 83.441 167.887 83.215 167.887 83.004 167.887 82.805 167.914 82.621 167.973 82.434 168.031 82.27 168.117 82.125 168.234 81.98 168.352 81.863 168.5 81.77 168.672 81.68 168.848 81.621 169.047 81.594 169.277L80.516 169.18C80.551 168.883 80.633 168.605 80.762 168.344 80.891 168.078 81.066 167.852 81.293 167.652 81.52 167.453 81.793 167.301 82.109 167.188 82.43 167.074 82.797 167.016 83.215 167.016 83.625 167.016 83.992 167.066 84.312 167.164 84.633 167.262 84.902 167.406 85.121 167.598 85.344 167.789 85.512 168.027 85.629 168.309 85.746 168.59 85.805 168.91 85.805 169.277 85.805 169.555 85.754 169.82 85.656 170.07 85.555 170.32 85.422 170.559 85.258 170.785 85.09 171.012 84.898 171.23 84.68 171.441 84.461 171.652 84.234 171.859 83.996 172.059 83.758 172.262 83.516 172.461 83.273 172.656 83.031 172.855 82.805 173.055 82.59 173.254 82.379 173.453 82.188 173.652 82.02 173.859 81.852 174.062 81.723 174.277 81.629 174.5H85.934V175.395ZM80.469 175.395" fill="#262626"/>
<path d="M92.707 172.707C92.707 173.121 92.645 173.5 92.52 173.844 92.395 174.188 92.211 174.484 91.965 174.734 91.719 174.98 91.41 175.172 91.047 175.309 90.684 175.445 90.258 175.516 89.777 175.516 89.344 175.516 88.965 175.465 88.645 175.363 88.32 175.262 88.051 175.121 87.824 174.941 87.602 174.766 87.426 174.559 87.297 174.316 87.164 174.078 87.074 173.824 87.016 173.551L88.086 173.426C88.125 173.582 88.188 173.734 88.266 173.883 88.344 174.027 88.449 174.16 88.586 174.273 88.719 174.391 88.887 174.48 89.082 174.551 89.281 174.617 89.52 174.652 89.801 174.652 90.074 174.652 90.32 174.609 90.543 174.527 90.77 174.441 90.957 174.32 91.117 174.156 91.273 173.988 91.398 173.789 91.48 173.551 91.566 173.312 91.609 173.039 91.609 172.73 91.609 172.477 91.57 172.242 91.488 172.031 91.406 171.816 91.289 171.633 91.137 171.48 90.984 171.324 90.797 171.203 90.578 171.121 90.355 171.031 90.105 170.988 89.824 170.988 89.648 170.988 89.488 171.004 89.34 171.035 89.191 171.066 89.051 171.109 88.926 171.168 88.797 171.219 88.684 171.281 88.578 171.355 88.477 171.43 88.379 171.504 88.289 171.582H87.258L87.531 167.141H92.227V168.035H88.496L88.336 170.656C88.523 170.512 88.758 170.387 89.039 170.285 89.32 170.18 89.656 170.129 90.043 170.129 90.453 170.129 90.82 170.191 91.148 170.316 91.477 170.441 91.758 170.617 91.984 170.848 92.219 171.074 92.395 171.348 92.52 171.664 92.645 171.98 92.707 172.328 92.707 172.707ZM92.707 172.707" fill="#262626"/>
<g clip-path="url(#clip_4)">
<g clip-path="url(#clip_5)">
<path stroke-width=".8" stroke-linecap="round" stroke-linejoin="round" fill="none" stroke="#cccccc" d="M118.449 163.199V.5"/>
</g>
</g>
<path d="M112.977 171.266C112.977 172.059 112.902 172.727 112.754 173.266 112.602 173.809 112.398 174.246 112.137 174.578 111.879 174.914 111.574 175.152 111.223 175.297 110.871 175.441 110.496 175.516 110.098 175.516 109.695 175.516 109.32 175.441 108.973 175.297 108.625 175.152 108.32 174.914 108.066 174.582 107.809 174.25 107.609 173.812 107.461 173.273 107.316 172.73 107.242 172.062 107.242 171.266 107.242 170.434 107.316 169.746 107.461 169.199 107.609 168.656 107.809 168.219 108.066 167.895 108.328 167.574 108.633 167.344 108.984 167.215 109.336 167.082 109.719 167.016 110.133 167.016 110.527 167.016 110.895 167.082 111.242 167.215 111.586 167.344 111.887 167.574 112.145 167.895 112.406 168.219 112.609 168.656 112.754 169.199 112.902 169.746 112.977 170.434 112.977 171.266ZM111.906 171.266C111.906 170.609 111.867 170.062 111.789 169.629 111.711 169.191 111.598 168.844 111.445 168.586 111.293 168.324 111.105 168.141 110.883 168.031 110.664 167.926 110.414 167.871 110.133 167.871 109.836 167.871 109.574 167.926 109.348 168.035 109.121 168.145 108.93 168.328 108.773 168.59 108.621 168.852 108.504 169.199 108.426 169.633 108.348 170.07 108.309 170.613 108.309 171.266 108.309 171.898 108.352 172.43 108.43 172.863 108.508 173.297 108.625 173.648 108.781 173.91 108.934 174.176 109.125 174.363 109.348 174.48 109.57 174.594 109.824 174.652 110.109 174.652 110.387 174.652 110.637 174.594 110.859 174.48 111.082 174.363 111.27 174.176 111.422 173.91 111.578 173.648 111.695 173.297 111.781 172.863 111.867 172.43 111.906 171.898 111.906 171.266ZM111.906 171.266" fill="#262626"/>
<path d="M114.543 174.113H115.687999V175.39402H114.543Z" fill="#262626"/>
<path d="M122.953 172.707C122.953 173.121 122.891 173.5 122.766 173.844 122.641 174.188 122.453 174.484 122.207 174.734 121.961 174.98 121.656 175.172 121.293 175.309 120.926 175.445 120.504 175.516 120.023 175.516 119.59 175.516 119.211 175.465 118.887 175.363 118.566 175.262 118.293 175.121 118.07 174.941 117.848 174.766 117.672 174.559 117.539 174.316 117.41 174.078 117.316 173.824 117.262 173.551L118.328 173.426C118.371 173.582 118.43 173.734 118.508 173.883 118.586 174.027 118.695 174.16 118.828 174.273 118.965 174.391 119.129 174.48 119.328 174.551 119.527 174.617 119.766 174.652 120.047 174.652 120.32 174.652 120.566 174.609 120.789 174.527 121.012 174.441 121.203 174.32 121.359 174.156 121.52 173.988 121.641 173.789 121.727 173.551 121.812 173.312 121.855 173.039 121.855 172.73 121.855 172.477 121.812 172.242 121.73 172.031 121.652 171.816 121.535 171.633 121.383 171.48 121.23 171.324 121.043 171.203 120.82 171.121 120.602 171.031 120.352 170.988 120.07 170.988 119.895 170.988 119.73 171.004 119.582 171.035 119.434 171.066 119.297 171.109 119.168 171.168 119.043 171.219 118.926 171.281 118.824 171.355 118.719 171.43 118.625 171.504 118.531 171.582H117.5L117.777 167.141H122.469V168.035H118.738L118.578 170.656C118.766 170.512 119 170.387 119.281 170.285 119.562 170.18 119.898 170.129 120.285 170.129 120.695 170.129 121.066 170.191 121.391 170.316 121.723 170.441 122 170.617 122.23 170.848 122.461 171.074 122.641 171.348 122.766 171.664 122.891 171.98 122.953 172.328 122.953 172.707ZM122.953 172.707" fill="#262626"/>
<path d="M129.66 171.266C129.66 172.059 129.586 172.727 129.434 173.266 129.285 173.809 129.082 174.246 128.82 174.578 128.559 174.914 128.254 175.152 127.902 175.297 127.551 175.441 127.176 175.516 126.777 175.516 126.375 175.516 126 175.441 125.652 175.297 125.305 175.152 125.004 174.914 124.746 174.582 124.492 174.25 124.289 173.812 124.145 173.273 123.996 172.73 123.926 172.062 123.926 171.266 123.926 170.434 123.996 169.746 124.145 169.199 124.289 168.656 124.492 168.219 124.75 167.895 125.008 167.574 125.312 167.344 125.664 167.215 126.016 167.082 126.398 167.016 126.812 167.016 127.207 167.016 127.578 167.082 127.922 167.215 128.27 167.344 128.57 167.574 128.828 167.895 129.086 168.219 129.289 168.656 129.438 169.199 129.586 169.746 129.66 170.434 129.66 171.266ZM128.59 171.266C128.59 170.609 128.551 170.062 128.473 169.629 128.395 169.191 128.277 168.844 128.125 168.586 127.973 168.324 127.785 168.141 127.566 168.031 127.348 167.926 127.094 167.871 126.812 167.871 126.516 167.871 126.254 167.926 126.027 168.035 125.801 168.145 125.613 168.328 125.457 168.59 125.301 168.852 125.188 169.199 125.109 169.633 125.031 170.07 124.992 170.613 124.992 171.266 124.992 171.898 125.031 172.43 125.113 172.863 125.191 173.297 125.309 173.648 125.461 173.91 125.617 174.176 125.805 174.363 126.027 174.48 126.25 174.594 126.504 174.652 126.789 174.652 127.066 174.652 127.316 174.594 127.539 174.48 127.762 174.363 127.949 174.176 128.105 173.91 128.258 173.648 128.379 173.297 128.461 172.863 128.547 172.43 128.59 171.898 128.59 171.266ZM128.59 171.266" fill="#262626"/>
<g clip-path="url(#clip_6)">
<g clip-path="url(#clip_7)">
<path stroke-width=".8" stroke-linecap="round" stroke-linejoin="round" fill="none" stroke="#cccccc" d="M155.367 163.199V.5"/>
</g>
</g>
<path d="M149.898 171.266C149.898 172.059 149.82 172.727 149.672 173.266 149.523 173.809 149.316 174.246 149.055 174.578 148.797 174.914 148.492 175.152 148.141 175.297 147.789 175.441 147.414 175.516 147.016 175.516 146.613 175.516 146.238 175.441 145.891 175.297 145.543 175.152 145.242 174.914 144.984 174.582 144.727 174.25 144.527 173.812 144.379 173.273 144.234 172.73 144.16 172.062 144.16 171.266 144.16 170.434 144.234 169.746 144.379 169.199 144.527 168.656 144.727 168.219 144.984 167.895 145.246 167.574 145.551 167.344 145.902 167.215 146.254 167.082 146.637 167.016 147.051 167.016 147.445 167.016 147.812 167.082 148.16 167.215 148.504 167.344 148.805 167.574 149.062 167.895 149.324 168.219 149.527 168.656 149.672 169.199 149.82 169.746 149.898 170.434 149.898 171.266ZM148.824 171.266C148.824 170.609 148.785 170.062 148.707 169.629 148.629 169.191 148.516 168.844 148.363 168.586 148.211 168.324 148.023 168.141 147.801 168.031 147.582 167.926 147.332 167.871 147.051 167.871 146.754 167.871 146.492 167.926 146.266 168.035 146.039 168.145 145.848 168.328 145.691 168.59 145.539 168.852 145.422 169.199 145.344 169.633 145.266 170.07 145.227 170.613 145.227 171.266 145.227 171.898 145.27 172.43 145.348 172.863 145.43 173.297 145.543 173.648 145.699 173.91 145.852 174.176 146.043 174.363 146.266 174.48 146.488 174.594 146.742 174.652 147.027 174.652 147.305 174.652 147.555 174.594 147.777 174.48 148 174.363 148.188 174.176 148.34 173.91 148.496 173.648 148.613 173.297 148.699 172.863 148.785 172.43 148.824 171.898 148.824 171.266ZM148.824 171.266" fill="#262626"/>
<path d="M151.461 174.113H152.606V175.39402H151.461Z" fill="#262626"/>
<path d="M159.77 167.996C159.355 168.629 158.977 169.238 158.629 169.82 158.281 170.406 157.98 170.992 157.73 171.586 157.48 172.176 157.285 172.785 157.148 173.406 157.008 174.031 156.941 174.691 156.941 175.395H155.84C155.84 174.734 155.918 174.09 156.074 173.453 156.23 172.82 156.441 172.195 156.707 171.586 156.973 170.973 157.281 170.371 157.633 169.781 157.984 169.191 158.355 168.609 158.75 168.035H154.316V167.141H159.77ZM159.77 167.996" fill="#262626"/>
<path d="M166.543 172.707C166.543 173.121 166.48 173.5 166.355 173.844 166.23 174.188 166.047 174.484 165.801 174.734 165.555 174.98 165.25 175.172 164.883 175.309 164.52 175.445 164.094 175.516 163.613 175.516 163.18 175.516 162.801 175.465 162.48 175.363 162.16 175.262 161.887 175.121 161.66 174.941 161.441 174.766 161.262 174.559 161.133 174.316 161 174.078 160.91 173.824 160.855 173.551L161.922 173.426C161.965 173.582 162.023 173.734 162.102 173.883 162.18 174.027 162.285 174.16 162.422 174.273 162.555 174.391 162.723 174.48 162.922 174.551 163.117 174.617 163.355 174.652 163.637 174.652 163.91 174.652 164.16 174.609 164.379 174.527 164.605 174.441 164.797 174.32 164.953 174.156 165.113 173.988 165.234 173.789 165.316 173.551 165.406 173.312 165.449 173.039 165.449 172.73 165.449 172.477 165.406 172.242 165.324 172.031 165.242 171.816 165.125 171.633 164.973 171.48 164.82 171.324 164.633 171.203 164.414 171.121 164.191 171.031 163.941 170.988 163.66 170.988 163.484 170.988 163.324 171.004 163.176 171.035 163.027 171.066 162.887 171.109 162.762 171.168 162.633 171.219 162.52 171.281 162.414 171.355 162.312 171.43 162.215 171.504 162.125 171.582H161.094L161.371 167.141H166.062V168.035H162.332L162.172 170.656C162.359 170.512 162.594 170.387 162.875 170.285 163.156 170.18 163.492 170.129 163.879 170.129 164.289 170.129 164.656 170.191 164.984 170.316 165.312 170.441 165.594 170.617 165.824 170.848 166.055 171.074 166.23 171.348 166.355 171.664 166.48 171.98 166.543 172.328 166.543 172.707ZM166.543 172.707" fill="#262626"/>
<g clip-path="url(#clip_8)">
<g clip-path="url(#clip_9)">
<path stroke-width=".8" stroke-linecap="round" stroke-linejoin="round" fill="none" stroke="#cccccc" d="M192.285 163.199V.5"/>
</g>
</g>
<path d="M181.527 175.395V174.5H183.629V168.148L181.766 169.48V168.48L183.715 167.141H184.688V174.5H186.699V175.395ZM181.527 175.395" fill="#262626"/>
<path d="M188.379 174.113H189.524V175.39402H188.379Z" fill="#262626"/>
<path d="M196.824 171.266C196.824 172.059 196.746 172.727 196.598 173.266 196.449 173.809 196.242 174.246 195.984 174.578 195.723 174.914 195.418 175.152 195.066 175.297 194.715 175.441 194.34 175.516 193.941 175.516 193.539 175.516 193.164 175.441 192.816 175.297 192.469 175.152 192.168 174.914 191.91 174.582 191.652 174.25 191.453 173.812 191.305 173.273 191.16 172.73 191.086 172.062 191.086 171.266 191.086 170.434 191.16 169.746 191.305 169.199 191.453 168.656 191.656 168.219 191.91 167.895 192.172 167.574 192.477 167.344 192.828 167.215 193.18 167.082 193.562 167.016 193.977 167.016 194.371 167.016 194.738 167.082 195.086 167.215 195.43 167.344 195.734 167.574 195.988 167.895 196.25 168.219 196.453 168.656 196.598 169.199 196.75 169.746 196.824 170.434 196.824 171.266ZM195.754 171.266C195.754 170.609 195.711 170.062 195.633 169.629 195.555 169.191 195.441 168.844 195.289 168.586 195.137 168.324 194.949 168.141 194.727 168.031 194.508 167.926 194.258 167.871 193.977 167.871 193.68 167.871 193.418 167.926 193.191 168.035 192.965 168.145 192.773 168.328 192.617 168.59 192.465 168.852 192.348 169.199 192.27 169.633 192.191 170.07 192.152 170.613 192.152 171.266 192.152 171.898 192.195 172.43 192.273 172.863 192.355 173.297 192.473 173.648 192.625 173.91 192.781 174.176 192.969 174.363 193.191 174.48 193.414 174.594 193.668 174.652 193.953 174.652 194.23 174.652 194.48 174.594 194.703 174.48 194.926 174.363 195.113 174.176 195.266 173.91 195.422 173.648 195.539 173.297 195.625 172.863 195.711 172.43 195.754 171.898 195.754 171.266ZM195.754 171.266" fill="#262626"/>
<path d="M203.496 171.266C203.496 172.059 203.422 172.727 203.27 173.266 203.121 173.809 202.918 174.246 202.656 174.578 202.395 174.914 202.09 175.152 201.738 175.297 201.387 175.441 201.012 175.516 200.613 175.516 200.211 175.516 199.836 175.441 199.488 175.297 199.141 175.152 198.84 174.914 198.582 174.582 198.328 174.25 198.125 173.812 197.98 173.273 197.832 172.73 197.762 172.062 197.762 171.266 197.762 170.434 197.832 169.746 197.98 169.199 198.125 168.656 198.328 168.219 198.586 167.895 198.844 167.574 199.148 167.344 199.5 167.215 199.852 167.082 200.234 167.016 200.648 167.016 201.043 167.016 201.414 167.082 201.758 167.215 202.105 167.344 202.406 167.574 202.664 167.895 202.922 168.219 203.125 168.656 203.273 169.199 203.422 169.746 203.496 170.434 203.496 171.266ZM202.426 171.266C202.426 170.609 202.387 170.062 202.309 169.629 202.23 169.191 202.113 168.844 201.961 168.586 201.809 168.324 201.625 168.141 201.402 168.031 201.184 167.926 200.93 167.871 200.648 167.871 200.352 167.871 200.09 167.926 199.863 168.035 199.637 168.145 199.449 168.328 199.293 168.59 199.141 168.852 199.023 169.199 198.945 169.633 198.867 170.07 198.828 170.613 198.828 171.266 198.828 171.898 198.867 172.43 198.949 172.863 199.027 173.297 199.145 173.648 199.297 173.91 199.453 174.176 199.641 174.363 199.863 174.48 200.086 174.594 200.34 174.652 200.625 174.652 200.902 174.652 201.152 174.594 201.375 174.48 201.598 174.363 201.785 174.176 201.941 173.91 202.094 173.648 202.215 173.297 202.297 172.863 202.383 172.43 202.426 171.898 202.426 171.266ZM202.426 171.266" fill="#262626"/>
<path d="M66.078 183.465V192.031H64.777V183.465H61.469V182.398H69.387V183.465ZM66.078 183.465" fill="#262626"/>
<path d="M70.117 183.062V181.887H71.348V183.062ZM70.117 192.031V184.637H71.348V192.031ZM70.117 192.031" fill="#262626"/>
<path d="M77.543 192.031V187.344C77.543 186.98 77.52 186.68 77.473 186.441 77.43 186.199 77.352 186.004 77.242 185.855 77.137 185.707 76.996 185.602 76.824 185.543 76.652 185.48 76.438 185.449 76.188 185.449 75.93 185.449 75.691 185.5 75.484 185.602 75.273 185.703 75.098 185.852 74.945 186.047 74.801 186.242 74.688 186.48 74.605 186.766 74.527 187.047 74.484 187.375 74.484 187.746V192.031H73.262V186.215C73.262 186.059 73.262 185.895 73.258 185.727 73.258 185.555 73.254 185.395 73.246 185.242 73.242 185.09 73.238 184.957 73.234 184.848 73.23 184.738 73.227 184.668 73.223 184.637H74.383C74.387 184.656 74.391 184.719 74.395 184.82 74.402 184.922 74.406 185.035 74.414 185.164 74.422 185.297 74.426 185.426 74.43 185.562 74.434 185.695 74.438 185.809 74.438 185.898H74.461C74.57 185.688 74.688 185.492 74.812 185.32 74.941 185.145 75.09 185 75.262 184.879 75.434 184.758 75.629 184.664 75.848 184.598 76.07 184.531 76.328 184.5 76.617 184.5 77.18 184.5 77.625 184.609 77.949 184.832 78.273 185.055 78.5 185.41 78.629 185.898H78.648C78.758 185.688 78.883 185.492 79.02 185.32 79.156 185.145 79.316 185 79.496 184.879 79.68 184.758 79.883 184.664 80.113 184.598 80.34 184.531 80.598 184.5 80.891 184.5 81.266 184.5 81.586 184.547 81.859 184.648 82.129 184.75 82.352 184.906 82.523 185.113 82.699 185.324 82.824 185.594 82.906 185.926 82.988 186.254 83.031 186.648 83.031 187.102V192.031H81.812V187.344C81.812 186.98 81.793 186.68 81.746 186.441 81.699 186.199 81.625 186.004 81.516 185.855 81.41 185.707 81.27 185.602 81.098 185.543 80.922 185.48 80.711 185.449 80.461 185.449 80.199 185.449 79.965 185.5 79.754 185.598 79.547 185.695 79.367 185.84 79.219 186.031 79.07 186.219 78.957 186.461 78.879 186.746 78.797 187.035 78.758 187.367 78.758 187.746V192.031ZM77.543 192.031" fill="#262626"/>
<path d="M85.84 188.594C85.84 188.98 85.883 189.34 85.961 189.664 86.039 189.988 86.164 190.27 86.328 190.504 86.496 190.738 86.707 190.922 86.969 191.051 87.227 191.184 87.539 191.246 87.906 191.246 88.438 191.246 88.867 191.141 89.188 190.926 89.508 190.711 89.727 190.438 89.84 190.109L90.918 190.418C90.84 190.625 90.734 190.828 90.594 191.035 90.457 191.242 90.27 191.43 90.039 191.598 89.805 191.766 89.516 191.902 89.168 192.012 88.816 192.117 88.398 192.168 87.906 192.168 86.812 192.168 85.977 191.844 85.406 191.191 84.836 190.539 84.547 189.57 84.547 188.285 84.547 187.594 84.637 187.004 84.809 186.527 84.98 186.043 85.219 185.652 85.52 185.352 85.82 185.055 86.172 184.836 86.57 184.703 86.973 184.566 87.402 184.5 87.855 184.5 88.477 184.5 88.996 184.598 89.41 184.801 89.828 185 90.164 185.277 90.414 185.633 90.668 185.984 90.848 186.398 90.957 186.879 91.062 187.355 91.117 187.875 91.117 188.43V188.594ZM89.848 187.648C89.777 186.871 89.578 186.301 89.25 185.945 88.922 185.586 88.453 185.406 87.836 185.406 87.633 185.406 87.414 185.441 87.188 185.508 86.965 185.57 86.758 185.691 86.566 185.859 86.375 186.027 86.211 186.258 86.078 186.547 85.949 186.836 85.871 187.203 85.855 187.648ZM89.848 187.648" fill="#262626"/>
<path d="M96.496 188.395C96.496 187.762 96.547 187.156 96.641 186.578 96.738 185.996 96.887 185.441 97.09 184.91 97.297 184.375 97.559 183.859 97.879 183.359 98.199 182.855 98.578 182.367 99.02 181.887H100.211C99.781 182.367 99.41 182.859 99.098 183.359 98.785 183.863 98.531 184.383 98.328 184.922 98.129 185.457 97.98 186.012 97.883 186.59 97.785 187.168 97.734 187.773 97.734 188.41 97.734 189.043 97.785 189.648 97.883 190.227 97.98 190.805 98.129 191.363 98.328 191.902 98.531 192.441 98.785 192.957 99.098 193.461 99.41 193.961 99.781 194.453 100.211 194.93H99.02C98.578 194.453 98.199 193.961 97.879 193.461 97.559 192.957 97.297 192.441 97.09 191.91 96.887 191.375 96.738 190.82 96.641 190.246 96.547 189.668 96.496 189.059 96.496 188.422ZM96.496 188.395" fill="#262626"/>
<path d="M107.688 192.031 102.535 183.828C102.543 184.051 102.555 184.273 102.57 184.492 102.578 184.68 102.586 184.875 102.59 185.086 102.598 185.293 102.602 185.473 102.602 185.633V192.031H101.441V182.398H102.957L108.168 190.656C108.152 190.434 108.141 190.211 108.125 189.988 108.117 189.797 108.109 189.586 108.098 189.363 108.09 189.137 108.086 188.922 108.086 188.715V182.398H109.262V192.031ZM107.688 192.031" fill="#262626"/>
<path d="M117.602 188.328C117.602 189.621 117.316 190.586 116.746 191.219 116.176 191.852 115.348 192.168 114.266 192.168 113.75 192.168 113.289 192.094 112.883 191.938 112.477 191.781 112.133 191.543 111.855 191.227 111.574 190.906 111.359 190.504 111.211 190.027 111.062 189.543 110.992 188.977 110.992 188.328 110.992 185.773 112.094 184.5 114.305 184.5 114.879 184.5 115.375 184.578 115.793 184.738 116.211 184.898 116.551 185.137 116.816 185.457 117.086 185.773 117.281 186.172 117.41 186.652 117.535 187.133 117.602 187.688 117.602 188.328ZM116.309 188.328C116.309 187.75 116.266 187.277 116.176 186.906 116.086 186.531 115.957 186.234 115.785 186.008 115.613 185.785 115.406 185.629 115.16 185.543 114.914 185.453 114.637 185.406 114.328 185.406 114.012 185.406 113.727 185.453 113.473 185.547 113.223 185.641 113.004 185.801 112.828 186.027 112.652 186.25 112.516 186.551 112.422 186.926 112.328 187.301 112.281 187.766 112.281 188.328 112.281 188.902 112.332 189.375 112.434 189.754 112.531 190.129 112.672 190.43 112.844 190.652 113.023 190.875 113.23 191.031 113.469 191.125 113.707 191.215 113.969 191.258 114.25 191.258 114.566 191.258 114.852 191.215 115.105 191.125 115.359 191.039 115.578 190.883 115.754 190.656 115.934 190.434 116.07 190.133 116.164 189.758 116.262 189.379 116.309 188.902 116.309 188.328ZM116.309 188.328" fill="#262626"/>
<path d="M119.16 192.031V186.359C119.16 186.203 119.156 186.043 119.156 185.883 119.152 185.723 119.148 185.566 119.145 185.414 119.141 185.266 119.137 185.125 119.133 184.992 119.125 184.859 119.121 184.742 119.117 184.637H120.281C120.285 184.742 120.289 184.859 120.297 184.996 120.305 185.129 120.312 185.266 120.316 185.406 120.324 185.551 120.328 185.684 120.328 185.816 120.332 185.945 120.336 186.055 120.336 186.145H120.363C120.449 185.863 120.539 185.621 120.637 185.414 120.738 185.203 120.852 185.031 120.984 184.898 121.117 184.766 121.273 184.664 121.457 184.598 121.637 184.531 121.859 184.5 122.117 184.5 122.219 184.5 122.316 184.508 122.406 184.523 122.496 184.539 122.566 184.555 122.617 184.566V185.695C122.535 185.672 122.441 185.656 122.332 185.645 122.223 185.633 122.098 185.625 121.961 185.625 121.68 185.625 121.438 185.691 121.238 185.82 121.043 185.945 120.879 186.121 120.754 186.348 120.629 186.574 120.539 186.84 120.477 187.152 120.418 187.465 120.391 187.805 120.391 188.176V192.031ZM119.16 192.031" fill="#262626"/>
<path d="M128.102 192.031V187.344C128.102 186.98 128.078 186.68 128.031 186.441 127.988 186.199 127.91 186.004 127.801 185.855 127.695 185.707 127.555 185.602 127.383 185.543 127.211 185.48 126.996 185.449 126.746 185.449 126.488 185.449 126.25 185.5 126.043 185.602 125.832 185.703 125.656 185.852 125.504 186.047 125.359 186.242 125.246 186.48 125.164 186.766 125.086 187.047 125.043 187.375 125.043 187.746V192.031H123.82V186.215C123.82 186.059 123.82 185.895 123.816 185.727 123.816 185.555 123.812 185.395 123.805 185.242 123.801 185.09 123.797 184.957 123.793 184.848 123.789 184.738 123.785 184.668 123.781 184.637H124.941C124.945 184.656 124.949 184.719 124.953 184.82 124.961 184.922 124.965 185.035 124.973 185.164 124.98 185.297 124.984 185.426 124.988 185.562 124.992 185.695 124.996 185.809 124.996 185.898H125.02C125.129 185.688 125.246 185.492 125.371 185.32 125.5 185.145 125.648 185 125.82 184.879 125.992 184.758 126.188 184.664 126.406 184.598 126.629 184.531 126.887 184.5 127.176 184.5 127.738 184.5 128.184 184.609 128.508 184.832 128.832 185.055 129.059 185.41 129.188 185.898H129.207C129.316 185.688 129.441 185.492 129.578 185.32 129.715 185.145 129.875 185 130.055 184.879 130.238 184.758 130.441 184.664 130.672 184.598 130.898 184.531 131.156 184.5 131.449 184.5 131.824 184.5 132.145 184.547 132.418 184.648 132.688 184.75 132.91 184.906 133.082 185.113 133.258 185.324 133.383 185.594 133.465 185.926 133.547 186.254 133.59 186.648 133.59 187.102V192.031H132.371V187.344C132.371 186.98 132.352 186.68 132.305 186.441 132.258 186.199 132.184 186.004 132.074 185.855 131.969 185.707 131.828 185.602 131.656 185.543 131.48 185.48 131.27 185.449 131.02 185.449 130.758 185.449 130.523 185.5 130.312 185.598 130.105 185.695 129.926 185.84 129.777 186.031 129.629 186.219 129.516 186.461 129.438 186.746 129.355 187.035 129.316 187.367 129.316 187.746V192.031ZM128.102 192.031" fill="#262626"/>
<path d="M137.344 192.168C136.598 192.168 136.039 191.973 135.668 191.582 135.293 191.188 135.105 190.652 135.105 189.969 135.105 189.48 135.199 189.082 135.383 188.77 135.566 188.457 135.809 188.211 136.105 188.031 136.406 187.855 136.746 187.73 137.129 187.664 137.512 187.594 137.902 187.555 138.301 187.547L139.961 187.52V187.117C139.961 186.812 139.93 186.551 139.863 186.336 139.801 186.125 139.703 185.949 139.57 185.82 139.438 185.688 139.273 185.59 139.074 185.527 138.879 185.465 138.645 185.434 138.375 185.434 138.137 185.434 137.922 185.453 137.73 185.488 137.543 185.52 137.375 185.582 137.234 185.672 137.094 185.758 136.977 185.879 136.891 186.035 136.805 186.184 136.746 186.379 136.719 186.609L135.434 186.496C135.48 186.203 135.566 185.938 135.695 185.691 135.82 185.449 136.004 185.238 136.238 185.059 136.473 184.883 136.766 184.746 137.121 184.648 137.473 184.547 137.898 184.5 138.402 184.5 139.332 184.5 140.031 184.711 140.5 185.141 140.969 185.566 141.203 186.18 141.203 186.988V190.172C141.203 190.535 141.254 190.812 141.348 190.996 141.445 191.18 141.625 191.273 141.895 191.273 141.965 191.273 142.031 191.27 142.102 191.258 142.168 191.25 142.234 191.238 142.297 191.227V191.992C142.145 192.027 141.988 192.055 141.836 192.07 141.684 192.09 141.523 192.102 141.348 192.102 141.117 192.102 140.918 192.07 140.75 192.008 140.586 191.945 140.449 191.852 140.344 191.727 140.238 191.602 140.16 191.449 140.105 191.266 140.051 191.078 140.016 190.863 140 190.617H139.961C139.828 190.855 139.684 191.07 139.527 191.258 139.367 191.449 139.184 191.613 138.977 191.746 138.766 191.883 138.527 191.984 138.262 192.059 137.996 192.133 137.688 192.168 137.344 192.168ZM137.621 191.246C138.016 191.246 138.359 191.176 138.652 191.031 138.945 190.887 139.188 190.703 139.383 190.48 139.574 190.258 139.723 190.012 139.816 189.75 139.914 189.484 139.961 189.23 139.961 188.988V188.383L138.613 188.41C138.312 188.414 138.027 188.438 137.758 188.477 137.484 188.512 137.246 188.59 137.043 188.703 136.836 188.816 136.676 188.977 136.555 189.18 136.434 189.387 136.371 189.656 136.371 189.988 136.371 190.391 136.48 190.699 136.695 190.918 136.914 191.137 137.223 191.246 137.621 191.246ZM137.621 191.246" fill="#262626"/>
<path d="M143.242 181.887H144.472V192.032H143.242Z" fill="#262626"/>
<path d="M146.344 183.062V181.887H147.578V183.062ZM146.344 192.031V184.637H147.578V192.031ZM146.344 192.031" fill="#262626"/>
<path d="M148.855 192.031V191.094L153.375 185.586H149.129V184.637H154.762V185.57L150.234 191.082H155.016V192.031ZM148.855 192.031" fill="#262626"/>
<path d="M157.406 188.594C157.406 188.98 157.445 189.34 157.523 189.664 157.605 189.988 157.73 190.27 157.895 190.504 158.062 190.738 158.273 190.922 158.535 191.051 158.793 191.184 159.105 191.246 159.469 191.246 160.004 191.246 160.43 191.141 160.75 190.926 161.074 190.711 161.293 190.438 161.406 190.109L162.484 190.418C162.406 190.625 162.301 190.828 162.16 191.035 162.023 191.242 161.836 191.43 161.602 191.598 161.371 191.766 161.082 191.902 160.73 192.012 160.383 192.117 159.961 192.168 159.469 192.168 158.375 192.168 157.543 191.844 156.973 191.191 156.398 190.539 156.113 189.57 156.113 188.285 156.113 187.594 156.199 187.004 156.371 186.527 156.547 186.043 156.781 185.652 157.082 185.352 157.387 185.055 157.738 184.836 158.137 184.703 158.539 184.566 158.965 184.5 159.422 184.5 160.043 184.5 160.559 184.598 160.977 184.801 161.395 185 161.73 185.277 161.98 185.633 162.234 185.984 162.414 186.398 162.52 186.879 162.629 187.355 162.684 187.875 162.684 188.43V188.594ZM161.414 187.648C161.344 186.871 161.145 186.301 160.816 185.945 160.488 185.586 160.016 185.406 159.402 185.406 159.195 185.406 158.98 185.441 158.754 185.508 158.531 185.57 158.32 185.691 158.133 185.859 157.941 186.027 157.777 186.258 157.645 186.547 157.512 186.836 157.438 187.203 157.422 187.648ZM161.414 187.648" fill="#262626"/>
<path d="M168.918 190.844C168.691 191.316 168.387 191.656 168.012 191.859 167.637 192.066 167.172 192.168 166.613 192.168 165.68 192.168 164.992 191.855 164.551 191.227 164.113 190.598 163.895 189.645 163.895 188.367 163.895 185.789 164.801 184.5 166.613 184.5 167.176 184.5 167.641 184.602 168.016 184.805 168.387 185.012 168.691 185.336 168.918 185.785H168.93C168.93 185.738 168.93 185.664 168.926 185.566 168.926 185.469 168.922 185.367 168.922 185.262 168.918 185.152 168.918 185.051 168.918 184.957 168.918 184.859 168.918 184.793 168.918 184.75V181.887H170.148V190.508C170.148 190.684 170.148 190.855 170.148 191.02 170.152 191.184 170.156 191.336 170.16 191.473 170.168 191.609 170.172 191.727 170.176 191.824 170.18 191.922 170.184 191.992 170.188 192.031H169.012C169.004 191.988 168.996 191.922 168.988 191.836 168.984 191.754 168.977 191.656 168.969 191.547 168.961 191.438 168.957 191.32 168.953 191.199 168.945 191.078 168.945 190.961 168.945 190.844ZM165.184 188.328C165.184 188.836 165.215 189.273 165.281 189.641 165.344 190.004 165.449 190.305 165.59 190.539 165.73 190.773 165.91 190.945 166.129 191.055 166.348 191.164 166.613 191.219 166.93 191.219 167.25 191.219 167.539 191.164 167.785 191.062 168.035 190.957 168.242 190.785 168.41 190.551 168.574 190.316 168.699 190.012 168.789 189.633 168.875 189.254 168.918 188.793 168.918 188.246 168.918 187.719 168.875 187.277 168.789 186.914 168.699 186.551 168.574 186.258 168.406 186.035 168.238 185.812 168.031 185.652 167.785 185.555 167.543 185.457 167.262 185.406 166.941 185.406 166.641 185.406 166.383 185.461 166.164 185.566 165.945 185.672 165.762 185.84 165.617 186.07 165.469 186.305 165.359 186.605 165.289 186.977 165.219 187.348 165.184 187.797 165.184 188.328ZM165.184 188.328" fill="#262626"/>
<path d="M174.883 188.422C174.883 189.059 174.836 189.668 174.738 190.246 174.645 190.82 174.496 191.375 174.289 191.91 174.086 192.441 173.824 192.957 173.504 193.461 173.184 193.961 172.805 194.453 172.363 194.93H171.176C171.602 194.453 171.973 193.961 172.285 193.461 172.598 192.957 172.852 192.441 173.051 191.902 173.254 191.363 173.402 190.805 173.5 190.227 173.598 189.648 173.648 189.043 173.648 188.41 173.648 187.773 173.598 187.168 173.5 186.59 173.402 186.012 173.254 185.457 173.051 184.922 172.852 184.383 172.598 183.863 172.285 183.359 171.973 182.859 171.602 182.367 171.176 181.887H172.363C172.805 182.367 173.184 182.855 173.504 183.359 173.824 183.859 174.086 184.375 174.289 184.91 174.496 185.441 174.645 185.996 174.738 186.578 174.836 187.156 174.883 187.762 174.883 188.395ZM174.883 188.422" fill="#262626"/>
<g clip-path="url(#clip_10)">
<g clip-path="url(#clip_11)">
<path stroke-width=".8" stroke-linecap="round" stroke-linejoin="round" fill="none" stroke="#cccccc" d="M37.23 157.707H199.672"/>
</g>
</g>
<path d="M23.254 157.926C23.254 158.719 23.18 159.383 23.031 159.926 22.879 160.465 22.676 160.902 22.414 161.238 22.156 161.57 21.848 161.812 21.5 161.957 21.148 162.102 20.773 162.172 20.375 162.172 19.969 162.172 19.594 162.102 19.25 161.957 18.902 161.812 18.598 161.574 18.344 161.242 18.086 160.91 17.887 160.473 17.738 159.93 17.594 159.391 17.52 158.723 17.52 157.926 17.52 157.094 17.594 156.402 17.738 155.859 17.887 155.312 18.086 154.879 18.344 154.555 18.602 154.23 18.906 154.004 19.258 153.871 19.609 153.742 19.992 153.676 20.41 153.676 20.801 153.676 21.172 153.742 21.516 153.871 21.863 154.004 22.164 154.23 22.422 154.555 22.68 154.879 22.883 155.312 23.031 155.859 23.18 156.402 23.254 157.094 23.254 157.926ZM22.184 157.926C22.184 157.27 22.145 156.723 22.066 156.289 21.988 155.852 21.875 155.504 21.723 155.242 21.57 154.984 21.383 154.801 21.16 154.691 20.941 154.586 20.691 154.531 20.41 154.531 20.109 154.531 19.848 154.586 19.625 154.695 19.398 154.805 19.207 154.988 19.051 155.25 18.898 155.508 18.781 155.855 18.703 156.293 18.625 156.727 18.586 157.273 18.586 157.926 18.586 158.559 18.625 159.09 18.707 159.523 18.785 159.957 18.902 160.305 19.059 160.57 19.211 160.832 19.402 161.023 19.625 161.137 19.844 161.254 20.098 161.312 20.383 161.312 20.66 161.312 20.91 161.254 21.133 161.137 21.355 161.023 21.547 160.832 21.699 160.57 21.855 160.305 21.973 159.957 22.059 159.523 22.141 159.09 22.184 158.559 22.184 157.926ZM22.184 157.926" fill="#262626"/>
<path d="M24.82 160.773H25.965V162.054H24.82Z" fill="#262626"/>
<path d="M33.262 157.926C33.262 158.719 33.188 159.383 33.039 159.926 32.887 160.465 32.684 160.902 32.422 161.238 32.164 161.57 31.855 161.812 31.508 161.957 31.156 162.102 30.781 162.172 30.383 162.172 29.977 162.172 29.602 162.102 29.258 161.957 28.91 161.812 28.605 161.574 28.352 161.242 28.094 160.91 27.895 160.473 27.746 159.93 27.602 159.391 27.527 158.723 27.527 157.926 27.527 157.094 27.602 156.402 27.746 155.859 27.895 155.312 28.094 154.879 28.352 154.555 28.609 154.23 28.914 154.004 29.266 153.871 29.617 153.742 30 153.676 30.418 153.676 30.809 153.676 31.18 153.742 31.523 153.871 31.871 154.004 32.172 154.23 32.43 154.555 32.688 154.879 32.891 155.312 33.039 155.859 33.188 156.402 33.262 157.094 33.262 157.926ZM32.191 157.926C32.191 157.27 32.152 156.723 32.074 156.289 31.996 155.852 31.883 155.504 31.73 155.242 31.578 154.984 31.391 154.801 31.168 154.691 30.949 154.586 30.699 154.531 30.418 154.531 30.117 154.531 29.855 154.586 29.633 154.695 29.406 154.805 29.215 154.988 29.059 155.25 28.906 155.508 28.789 155.855 28.711 156.293 28.633 156.727 28.594 157.273 28.594 157.926 28.594 158.559 28.633 159.09 28.715 159.523 28.793 159.957 28.91 160.305 29.066 160.57 29.219 160.832 29.41 161.023 29.633 161.137 29.852 161.254 30.105 161.312 30.391 161.312 30.668 161.312 30.918 161.254 31.141 161.137 31.363 161.023 31.555 160.832 31.707 160.57 31.863 160.305 31.98 159.957 32.066 159.523 32.148 159.09 32.191 158.559 32.191 157.926ZM32.191 157.926" fill="#262626"/>
<g clip-path="url(#clip_12)">
<g clip-path="url(#clip_13)">
<path stroke-width=".8" stroke-linecap="round" stroke-linejoin="round" fill="none" stroke="#cccccc" d="M37.23 127.746H199.672"/>
</g>
</g>
<path d="M23.254 127.961C23.254 128.754 23.18 129.422 23.031 129.961 22.879 130.504 22.676 130.941 22.414 131.273 22.156 131.609 21.848 131.848 21.5 131.992 21.148 132.137 20.773 132.211 20.375 132.211 19.969 132.211 19.594 132.137 19.25 131.992 18.902 131.848 18.598 131.609 18.344 131.277 18.086 130.945 17.887 130.508 17.738 129.969 17.594 129.426 17.52 128.758 17.52 127.961 17.52 127.129 17.594 126.441 17.738 125.895 17.887 125.352 18.086 124.918 18.344 124.594 18.602 124.27 18.906 124.043 19.258 123.91 19.609 123.777 19.992 123.715 20.41 123.715 20.801 123.715 21.172 123.777 21.516 123.91 21.863 124.043 22.164 124.27 22.422 124.594 22.68 124.918 22.883 125.352 23.031 125.895 23.18 126.441 23.254 127.129 23.254 127.961ZM22.184 127.961C22.184 127.305 22.145 126.762 22.066 126.324 21.988 125.891 21.875 125.539 21.723 125.281 21.57 125.02 21.383 124.836 21.16 124.73 20.941 124.621 20.691 124.566 20.41 124.566 20.109 124.566 19.848 124.625 19.625 124.734 19.398 124.844 19.207 125.027 19.051 125.285 18.898 125.547 18.781 125.895 18.703 126.332 18.625 126.766 18.586 127.309 18.586 127.961 18.586 128.594 18.625 129.129 18.707 129.562 18.785 129.996 18.902 130.344 19.059 130.609 19.211 130.871 19.402 131.062 19.625 131.176 19.844 131.289 20.098 131.348 20.383 131.348 20.66 131.348 20.91 131.289 21.133 131.176 21.355 131.062 21.547 130.871 21.699 130.609 21.855 130.344 21.973 129.996 22.059 129.562 22.141 129.129 22.184 128.594 22.184 127.961ZM22.184 127.961" fill="#262626"/>
<path d="M24.82 130.809H25.965V132.09401H24.82Z" fill="#262626"/>
<path d="M27.664 132.094V131.348C27.859 130.891 28.105 130.488 28.391 130.141 28.68 129.789 28.98 129.473 29.297 129.191 29.613 128.906 29.926 128.645 30.238 128.402 30.547 128.16 30.828 127.918 31.078 127.676 31.328 127.434 31.531 127.18 31.684 126.914 31.84 126.648 31.918 126.348 31.918 126.012 31.918 125.777 31.883 125.57 31.809 125.395 31.738 125.215 31.637 125.066 31.508 124.945 31.375 124.824 31.215 124.734 31.027 124.672 30.844 124.613 30.637 124.582 30.41 124.582 30.199 124.582 30 124.609 29.816 124.668 29.629 124.727 29.465 124.816 29.32 124.934 29.176 125.051 29.059 125.195 28.965 125.367 28.875 125.543 28.816 125.746 28.789 125.973L27.711 125.875C27.742 125.578 27.824 125.301 27.953 125.039 28.082 124.777 28.262 124.547 28.488 124.348 28.715 124.152 28.988 123.996 29.305 123.883 29.625 123.77 29.992 123.715 30.41 123.715 30.82 123.715 31.188 123.762 31.508 123.859 31.824 123.957 32.098 124.102 32.316 124.293 32.539 124.484 32.707 124.723 32.824 125.004 32.941 125.285 33 125.609 33 125.973 33 126.254 32.949 126.516 32.852 126.766 32.75 127.016 32.617 127.254 32.449 127.48 32.285 127.707 32.094 127.926 31.875 128.137 31.656 128.348 31.43 128.555 31.188 128.754 30.953 128.957 30.711 129.156 30.469 129.352 30.227 129.551 30 129.75 29.785 129.949 29.57 130.148 29.383 130.352 29.215 130.555 29.047 130.762 28.918 130.973 28.824 131.195H33.129V132.094ZM27.664 132.094" fill="#262626"/>
<g clip-path="url(#clip_14)">
<g clip-path="url(#clip_15)">
<path stroke-width=".8" stroke-linecap="round" stroke-linejoin="round" fill="none" stroke="#cccccc" d="M37.23 97.781H199.672"/>
</g>
</g>
<path d="M23.254 98C23.254 98.793 23.18 99.457 23.031 100 22.879 100.543 22.676 100.98 22.414 101.312 22.156 101.645 21.848 101.887 21.5 102.031 21.148 102.176 20.773 102.25 20.375 102.25 19.969 102.25 19.594 102.176 19.25 102.031 18.902 101.887 18.598 101.648 18.344 101.316 18.086 100.984 17.887 100.547 17.738 100.004 17.594 99.465 17.52 98.797 17.52 98 17.52 97.168 17.594 96.477 17.738 95.934 17.887 95.387 18.086 94.953 18.344 94.629 18.602 94.305 18.906 94.078 19.258 93.949 19.609 93.816 19.992 93.75 20.41 93.75 20.801 93.75 21.172 93.816 21.516 93.949 21.863 94.078 22.164 94.305 22.422 94.629 22.68 94.953 22.883 95.387 23.031 95.934 23.18 96.477 23.254 97.168 23.254 98ZM22.184 98C22.184 97.344 22.145 96.797 22.066 96.363 21.988 95.926 21.875 95.578 21.723 95.316 21.57 95.059 21.383 94.875 21.16 94.766 20.941 94.66 20.691 94.605 20.41 94.605 20.109 94.605 19.848 94.66 19.625 94.77 19.398 94.879 19.207 95.062 19.051 95.324 18.898 95.582 18.781 95.934 18.703 96.367 18.625 96.805 18.586 97.348 18.586 98 18.586 98.633 18.625 99.164 18.707 99.598 18.785 100.031 18.902 100.383 19.059 100.645 19.211 100.91 19.402 101.098 19.625 101.215 19.844 101.328 20.098 101.387 20.383 101.387 20.66 101.387 20.91 101.328 21.133 101.215 21.355 101.098 21.547 100.91 21.699 100.645 21.855 100.383 21.973 100.031 22.059 99.598 22.141 99.164 22.184 98.633 22.184 98ZM22.184 98" fill="#262626"/>
<path d="M24.82 100.848H25.965V102.129H24.82Z" fill="#262626"/>
<path d="M32.219 100.262V102.129H31.227V100.262H27.336V99.441L31.113 93.875H32.219V99.43H33.383V100.262ZM31.227 95.062C31.219 95.082 31.199 95.121 31.168 95.176 31.137 95.234 31.102 95.297 31.059 95.367 31.02 95.438 30.98 95.512 30.941 95.582 30.898 95.656 30.863 95.715 30.832 95.762L28.715 98.879C28.695 98.91 28.668 98.953 28.633 99.004 28.594 99.051 28.555 99.105 28.516 99.156 28.477 99.207 28.438 99.262 28.398 99.312 28.359 99.363 28.328 99.402 28.309 99.43H31.227ZM31.227 95.062" fill="#262626"/>
<g clip-path="url(#clip_16)">
<g clip-path="url(#clip_17)">
<path stroke-width=".8" stroke-linecap="round" stroke-linejoin="round" fill="none" stroke="#cccccc" d="M37.23 67.82H199.672"/>
</g>
</g>
<path d="M23.254 68.039C23.254 68.828 23.18 69.496 23.031 70.039 22.879 70.578 22.676 71.016 22.414 71.352 22.156 71.684 21.848 71.922 21.5 72.07 21.148 72.215 20.773 72.285 20.375 72.285 19.969 72.285 19.594 72.215 19.25 72.07 18.902 71.922 18.598 71.684 18.344 71.355 18.086 71.023 17.887 70.586 17.738 70.043 17.594 69.504 17.52 68.832 17.52 68.039 17.52 67.203 17.594 66.516 17.738 65.973 17.887 65.426 18.086 64.992 18.344 64.668 18.602 64.344 18.906 64.117 19.258 63.984 19.609 63.855 19.992 63.789 20.41 63.789 20.801 63.789 21.172 63.855 21.516 63.984 21.863 64.117 22.164 64.344 22.422 64.668 22.68 64.992 22.883 65.426 23.031 65.973 23.18 66.516 23.254 67.203 23.254 68.039ZM22.184 68.039C22.184 67.383 22.145 66.836 22.066 66.398 21.988 65.965 21.875 65.617 21.723 65.355 21.57 65.098 21.383 64.914 21.16 64.805 20.941 64.695 20.691 64.645 20.41 64.645 20.109 64.645 19.848 64.699 19.625 64.809 19.398 64.918 19.207 65.102 19.051 65.363 18.898 65.621 18.781 65.969 18.703 66.406 18.625 66.84 18.586 67.383 18.586 68.039 18.586 68.668 18.625 69.203 18.707 69.637 18.785 70.07 18.902 70.418 19.059 70.684 19.211 70.945 19.402 71.137 19.625 71.25 19.844 71.367 20.098 71.422 20.383 71.422 20.66 71.422 20.91 71.367 21.133 71.25 21.355 71.137 21.547 70.945 21.699 70.684 21.855 70.418 21.973 70.07 22.059 69.637 22.141 69.203 22.184 68.668 22.184 68.039ZM22.184 68.039" fill="#262626"/>
<path d="M24.82 70.887H25.965V72.168H24.82Z" fill="#262626"/>
<path d="M33.203 69.465C33.203 69.883 33.148 70.262 33.031 70.609 32.918 70.953 32.746 71.25 32.523 71.5 32.297 71.746 32.02 71.938 31.688 72.078 31.355 72.215 30.973 72.285 30.539 72.285 30.059 72.285 29.637 72.195 29.277 72.012 28.918 71.828 28.621 71.562 28.383 71.219 28.145 70.871 27.965 70.445 27.848 69.945 27.727 69.441 27.668 68.871 27.668 68.23 27.668 67.496 27.734 66.852 27.871 66.297 28.004 65.742 28.199 65.277 28.453 64.906 28.707 64.535 29.016 64.258 29.383 64.07 29.746 63.883 30.16 63.789 30.621 63.789 30.902 63.789 31.164 63.816 31.414 63.875 31.66 63.934 31.883 64.031 32.082 64.16 32.285 64.293 32.461 64.465 32.613 64.68 32.766 64.895 32.887 65.156 32.977 65.469L31.969 65.652C31.859 65.297 31.684 65.039 31.445 64.883 31.203 64.723 30.926 64.645 30.609 64.645 30.32 64.645 30.059 64.711 29.824 64.852 29.59 64.984 29.391 65.191 29.227 65.461 29.062 65.734 28.938 66.074 28.848 66.484 28.758 66.895 28.715 67.371 28.715 67.918 28.91 67.562 29.18 67.293 29.527 67.109 29.875 66.922 30.273 66.828 30.719 66.828 31.094 66.828 31.434 66.891 31.742 67.012 32.047 67.133 32.305 67.309 32.523 67.535 32.738 67.766 32.906 68.039 33.027 68.367 33.145 68.695 33.203 69.059 33.203 69.465ZM32.133 69.512C32.133 69.227 32.098 68.969 32.027 68.742 31.957 68.508 31.852 68.312 31.711 68.152 31.57 67.988 31.398 67.863 31.188 67.777 30.984 67.688 30.742 67.645 30.469 67.645 30.277 67.645 30.086 67.672 29.887 67.73 29.691 67.785 29.516 67.879 29.355 68.004 29.199 68.133 29.07 68.297 28.973 68.508 28.871 68.711 28.824 68.965 28.824 69.262 28.824 69.566 28.863 69.852 28.938 70.113 29.02 70.379 29.129 70.609 29.277 70.805 29.422 70.996 29.598 71.152 29.805 71.266 30.012 71.379 30.246 71.434 30.504 71.434 30.758 71.434 30.984 71.391 31.188 71.305 31.387 71.215 31.559 71.09 31.699 70.922 31.84 70.758 31.949 70.555 32.023 70.316 32.094 70.078 32.133 69.809 32.133 69.512ZM32.133 69.512" fill="#262626"/>
<g clip-path="url(#clip_18)">
<g clip-path="url(#clip_19)">
<path stroke-width=".8" stroke-linecap="round" stroke-linejoin="round" fill="none" stroke="#cccccc" d="M37.23 37.855H199.672"/>
</g>
</g>
<path d="M23.254 38.074C23.254 38.867 23.18 39.535 23.031 40.074 22.879 40.617 22.676 41.055 22.414 41.387 22.156 41.723 21.848 41.961 21.5 42.105 21.148 42.25 20.773 42.324 20.375 42.324 19.969 42.324 19.594 42.25 19.25 42.105 18.902 41.961 18.598 41.723 18.344 41.391 18.086 41.059 17.887 40.621 17.738 40.082 17.594 39.539 17.52 38.871 17.52 38.074 17.52 37.242 17.594 36.555 17.738 36.008 17.887 35.465 18.086 35.027 18.344 34.707 18.602 34.383 18.906 34.152 19.258 34.023 19.609 33.891 19.992 33.824 20.41 33.824 20.801 33.824 21.172 33.891 21.516 34.023 21.863 34.152 22.164 34.383 22.422 34.707 22.68 35.027 22.883 35.465 23.031 36.008 23.18 36.555 23.254 37.242 23.254 38.074ZM22.184 38.074C22.184 37.418 22.145 36.871 22.066 36.438 21.988 36 21.875 35.652 21.723 35.395 21.57 35.133 21.383 34.949 21.16 34.844 20.941 34.734 20.691 34.68 20.41 34.68 20.109 34.68 19.848 34.734 19.625 34.848 19.398 34.953 19.207 35.141 19.051 35.398 18.898 35.66 18.781 36.008 18.703 36.445 18.625 36.879 18.586 37.422 18.586 38.074 18.586 38.707 18.625 39.242 18.707 39.676 18.785 40.109 18.902 40.457 19.059 40.719 19.211 40.984 19.402 41.172 19.625 41.289 19.844 41.402 20.098 41.461 20.383 41.461 20.66 41.461 20.91 41.402 21.133 41.289 21.355 41.172 21.547 40.984 21.699 40.719 21.855 40.457 21.973 40.109 22.059 39.676 22.141 39.242 22.184 38.707 22.184 38.074ZM22.184 38.074" fill="#262626"/>
<path d="M24.82 40.922H25.965V42.207H24.82Z" fill="#262626"/>
<path d="M33.211 39.902C33.211 40.254 33.156 40.578 33.043 40.871 32.934 41.168 32.762 41.422 32.535 41.637 32.305 41.852 32.016 42.02 31.656 42.141 31.305 42.262 30.883 42.324 30.398 42.324 29.914 42.324 29.496 42.262 29.141 42.141 28.789 42.02 28.496 41.852 28.262 41.641 28.031 41.426 27.859 41.172 27.746 40.879 27.637 40.582 27.578 40.262 27.578 39.914 27.578 39.613 27.625 39.344 27.715 39.113 27.809 38.875 27.934 38.676 28.086 38.508 28.242 38.336 28.418 38.199 28.613 38.094 28.812 37.992 29.016 37.922 29.227 37.887V37.863C28.996 37.809 28.789 37.723 28.605 37.602 28.426 37.48 28.273 37.332 28.148 37.164 28.027 36.992 27.934 36.805 27.867 36.598 27.805 36.391 27.773 36.172 27.773 35.941 27.773 35.652 27.828 35.379 27.941 35.125 28.051 34.867 28.215 34.645 28.434 34.449 28.652 34.258 28.926 34.105 29.25 33.992 29.574 33.883 29.949 33.824 30.375 33.824 30.824 33.824 31.215 33.883 31.543 33.996 31.875 34.109 32.148 34.262 32.363 34.457 32.582 34.648 32.742 34.875 32.848 35.133 32.953 35.391 33.008 35.664 33.008 35.953 33.008 36.18 32.973 36.398 32.91 36.605 32.844 36.812 32.75 37 32.629 37.168 32.504 37.34 32.352 37.484 32.168 37.605 31.988 37.723 31.777 37.805 31.543 37.852V37.875C31.777 37.914 32 37.984 32.203 38.09 32.406 38.191 32.582 38.328 32.73 38.5 32.879 38.668 32.996 38.871 33.082 39.105 33.168 39.34 33.211 39.605 33.211 39.902ZM31.91 36.012C31.91 35.805 31.883 35.617 31.832 35.445 31.777 35.273 31.691 35.125 31.57 35 31.449 34.879 31.289 34.781 31.094 34.715 30.898 34.645 30.66 34.613 30.375 34.613 30.098 34.613 29.863 34.645 29.672 34.715 29.48 34.781 29.324 34.879 29.199 35 29.078 35.125 28.988 35.273 28.934 35.445 28.879 35.617 28.852 35.805 28.852 36.012 28.852 36.176 28.871 36.344 28.914 36.516 28.957 36.688 29.035 36.844 29.148 36.984 29.262 37.125 29.418 37.242 29.617 37.332 29.816 37.422 30.074 37.465 30.387 37.465 30.719 37.465 30.984 37.422 31.188 37.332 31.387 37.242 31.543 37.125 31.648 36.984 31.758 36.844 31.828 36.688 31.859 36.516 31.895 36.344 31.91 36.176 31.91 36.012ZM32.117 39.805C32.117 39.602 32.086 39.41 32.031 39.227 31.977 39.039 31.883 38.875 31.75 38.734 31.617 38.59 31.441 38.477 31.215 38.387 30.992 38.301 30.711 38.258 30.375 38.258 30.066 38.258 29.805 38.301 29.586 38.387 29.371 38.477 29.195 38.59 29.059 38.738 28.926 38.883 28.824 39.051 28.762 39.238 28.699 39.43 28.668 39.625 28.668 39.824 28.668 40.078 28.699 40.312 28.762 40.523 28.824 40.73 28.926 40.91 29.062 41.059 29.199 41.211 29.379 41.324 29.602 41.41 29.824 41.492 30.094 41.531 30.41 41.531 30.73 41.531 31 41.492 31.219 41.41 31.438 41.324 31.613 41.211 31.746 41.059 31.879 40.91 31.973 40.727 32.027 40.516 32.086 40.301 32.117 40.066 32.117 39.805ZM32.117 39.805" fill="#262626"/>
<g clip-path="url(#clip_20)">
<g clip-path="url(#clip_21)">
<path stroke-width=".8" stroke-linecap="round" stroke-linejoin="round" fill="none" stroke="#cccccc" d="M37.23 7.895H199.672"/>
</g>
</g>
<path d="M17.965 12.242V11.348H20.066V4.996L18.207 6.324V5.328L20.156 3.988H21.129V11.348H23.141V12.242ZM17.965 12.242" fill="#262626"/>
<path d="M24.82 10.961H25.965V12.242001H24.82Z" fill="#262626"/>
<path d="M33.262 8.113C33.262 8.906 33.188 9.57 33.039 10.113 32.887 10.652 32.684 11.09 32.422 11.426 32.164 11.758 31.855 12 31.508 12.145 31.156 12.289 30.781 12.359 30.383 12.359 29.977 12.359 29.602 12.289 29.258 12.145 28.91 12 28.605 11.762 28.352 11.43 28.094 11.098 27.895 10.66 27.746 10.117 27.602 9.578 27.527 8.91 27.527 8.113 27.527 7.281 27.602 6.59 27.746 6.047 27.895 5.5 28.094 5.066 28.352 4.742 28.609 4.418 28.914 4.191 29.266 4.059 29.617 3.93 30 3.863 30.418 3.863 30.809 3.863 31.18 3.93 31.523 4.059 31.871 4.191 32.172 4.418 32.43 4.742 32.688 5.066 32.891 5.5 33.039 6.047 33.188 6.59 33.262 7.281 33.262 8.113ZM32.191 8.113C32.191 7.457 32.152 6.91 32.074 6.477 31.996 6.039 31.883 5.691 31.73 5.43 31.578 5.172 31.391 4.988 31.168 4.879 30.949 4.773 30.699 4.719 30.418 4.719 30.117 4.719 29.855 4.773 29.633 4.883 29.406 4.992 29.215 5.176 29.059 5.438 28.906 5.695 28.789 6.043 28.711 6.48 28.633 6.918 28.594 7.461 28.594 8.113 28.594 8.746 28.633 9.277 28.715 9.711 28.793 10.145 28.91 10.496 29.066 10.758 29.219 11.023 29.41 11.211 29.633 11.324 29.852 11.441 30.105 11.5 30.391 11.5 30.668 11.5 30.918 11.441 31.141 11.324 31.363 11.211 31.555 11.023 31.707 10.758 31.863 10.496 31.98 10.145 32.066 9.711 32.148 9.277 32.191 8.746 32.191 8.113ZM32.191 8.113" fill="#262626"/>
<path d="M7.43 124.219C7.918 124.219 8.336 124.312 8.68 124.504 9.023 124.695 9.305 124.953 9.52 125.277 9.734 125.602 9.895 125.977 9.996 126.406 10.094 126.832 10.145 127.281 10.145 127.758V131.668H.516V128.168C.516 127.633 .559 127.16 .648 126.738 .738 126.32 .875 125.965 1.066 125.672 1.258 125.379 1.5 125.16 1.797 125.008 2.09 124.855 2.441 124.777 2.852 124.777 3.121 124.777 3.375 124.816 3.613 124.891 3.848 124.965 4.062 125.078 4.258 125.234 4.449 125.383 4.617 125.574 4.754 125.805 4.895 126.035 4.996 126.305 5.066 126.609 5.113 126.223 5.199 125.879 5.332 125.582 5.465 125.281 5.637 125.031 5.84 124.832 6.043 124.633 6.281 124.48 6.555 124.375 6.824 124.27 7.117 124.219 7.43 124.219ZM3.008 126.09C2.488 126.09 2.117 126.27 1.895 126.625 1.672 126.977 1.559 127.492 1.559 128.168V130.363H4.609V128.168C4.609 127.785 4.57 127.461 4.496 127.195 4.422 126.934 4.316 126.719 4.176 126.555 4.035 126.391 3.867 126.273 3.672 126.199 3.477 126.125 3.254 126.09 3.008 126.09ZM7.328 125.535C7.023 125.535 6.766 125.594 6.551 125.703 6.336 125.816 6.16 125.977 6.023 126.188 5.887 126.395 5.785 126.645 5.723 126.941 5.66 127.234 5.625 127.566 5.625 127.93V130.363H9.102V127.828C9.102 127.496 9.074 127.188 9.02 126.906 8.965 126.625 8.867 126.383 8.73 126.184 8.594 125.98 8.41 125.82 8.184 125.707 7.957 125.594 7.672 125.535 7.328 125.535ZM7.328 125.535" fill="#262626"/>
<path d="M6.707 121.59C7.094 121.59 7.453 121.551 7.777 121.473 8.105 121.391 8.383 121.27 8.617 121.102 8.852 120.938 9.035 120.723 9.164 120.465 9.297 120.203 9.359 119.895 9.359 119.527 9.359 118.996 9.254 118.566 9.039 118.246 8.824 117.926 8.555 117.707 8.227 117.594L8.531 116.512C8.738 116.59 8.941 116.699 9.148 116.836 9.355 116.977 9.543 117.16 9.711 117.395 9.879 117.629 10.016 117.918 10.125 118.266 10.23 118.613 10.285 119.035 10.285 119.527 10.285 120.621 9.957 121.453 9.305 122.027 8.652 122.598 7.684 122.883 6.398 122.883 5.707 122.883 5.121 122.797 4.641 122.625 4.16 122.453 3.77 122.215 3.469 121.914 3.168 121.613 2.949 121.262 2.816 120.859 2.68 120.461 2.613 120.031 2.613 119.574 2.613 118.957 2.711 118.438 2.914 118.02 3.113 117.605 3.391 117.27 3.746 117.016 4.098 116.762 4.512 116.582 4.992 116.477 5.469 116.367 5.988 116.316 6.543 116.316H6.707ZM5.766 117.586C4.984 117.652 4.414 117.852 4.059 118.18 3.699 118.508 3.523 118.98 3.523 119.598 3.523 119.801 3.555 120.016 3.621 120.242 3.688 120.469 3.805 120.676 3.973 120.867 4.141 121.059 4.371 121.219 4.66 121.352 4.949 121.484 5.316 121.559 5.766 121.578ZM5.766 117.586" fill="#262626"/>
<path d="M0 113.52H10.145V114.75H0Z" fill="#262626"/>
<path d="M1.176 111.645H0V110.414H1.176ZM10.145 111.645H2.75V110.414H10.145ZM10.145 111.645" fill="#262626"/>
<path d="M6.707 107.586C7.094 107.586 7.453 107.543 7.777 107.465 8.105 107.387 8.383 107.262 8.617 107.098 8.852 106.93 9.035 106.719 9.164 106.457 9.297 106.199 9.359 105.887 9.359 105.52 9.359 104.988 9.254 104.559 9.039 104.238 8.824 103.918 8.555 103.699 8.227 103.586L8.531 102.508C8.738 102.586 8.941 102.691 9.148 102.832 9.355 102.969 9.543 103.156 9.711 103.387 9.879 103.621 10.016 103.91 10.125 104.258 10.23 104.609 10.285 105.027 10.285 105.52 10.285 106.613 9.957 107.449 9.305 108.02 8.652 108.59 7.684 108.875 6.398 108.875 5.707 108.875 5.121 108.789 4.641 108.617 4.16 108.445 3.77 108.207 3.469 107.906 3.168 107.605 2.949 107.254 2.816 106.852 2.68 106.453 2.613 106.023 2.613 105.57 2.613 104.949 2.711 104.43 2.914 104.016 3.113 103.598 3.391 103.262 3.746 103.012 4.098 102.758 4.512 102.574 4.992 102.469 5.469 102.363 5.988 102.309 6.543 102.309H6.707ZM5.766 103.578C4.984 103.648 4.414 103.844 4.059 104.172 3.699 104.5 3.523 104.973 3.523 105.59 3.523 105.793 3.555 106.012 3.621 106.238 3.688 106.461 3.805 106.668 3.973 106.859 4.141 107.051 4.371 107.211 4.66 107.344 4.949 107.477 5.316 107.555 5.766 107.57ZM5.766 103.578" fill="#262626"/>
<path d="M3.645 99.219H10.145V100.449H3.645V101.488H2.75V100.449H1.914C1.645 100.449 1.395 100.422 1.164 100.375 .934 100.324 .734 100.23 .562 100.098 .395 99.961 .258 99.777 .16 99.547 .062 99.312 .016 99.012 .016 98.645 .016 98.496 .023 98.348 .035 98.191 .047 98.031 .07 97.895 .098 97.773H1.031C1.02 97.852 1.008 97.945 .996 98.047 .984 98.148 .977 98.238 .977 98.32 .977 98.504 1.004 98.652 1.055 98.77 1.105 98.887 1.176 98.977 1.27 99.043 1.363 99.109 1.477 99.156 1.613 99.18 1.75 99.207 1.91 99.219 2.086 99.219H2.75V97.773H3.645ZM3.645 99.219" fill="#262626"/>
<path d="M3.645 91.438H10.145V92.668H3.645V93.707H2.75V92.668H1.914C1.645 92.668 1.395 92.645 1.164 92.594 .934 92.543 .734 92.453 .562 92.316 .395 92.184 .258 92 .16 91.766 .062 91.535 .016 91.234 .016 90.863 .016 90.719 .023 90.566 .035 90.41 .047 90.254 .07 90.113 .098 89.996H1.031C1.02 90.074 1.008 90.164 .996 90.266 .984 90.367 .977 90.461 .977 90.543 .977 90.723 1.004 90.875 1.055 90.992 1.105 91.105 1.176 91.199 1.27 91.266 1.363 91.328 1.477 91.375 1.613 91.402 1.75 91.426 1.91 91.438 2.086 91.438H2.75V89.996H3.645ZM3.645 91.438" fill="#262626"/>
<path d="M6.441 82.816C7.734 82.816 8.699 83.102 9.336 83.672 9.969 84.242 10.285 85.07 10.285 86.152 10.285 86.668 10.207 87.129 10.051 87.535 9.895 87.941 9.656 88.285 9.34 88.562 9.02 88.844 8.621 89.059 8.141 89.207 7.66 89.355 7.094 89.43 6.441 89.43 3.887 89.43 2.613 88.324 2.613 86.113 2.613 85.539 2.691 85.043 2.852 84.625 3.012 84.211 3.25 83.867 3.57 83.602 3.887 83.332 4.285 83.137 4.766 83.012 5.246 82.883 5.801 82.816 6.441 82.816ZM6.441 84.109C5.867 84.109 5.391 84.156 5.02 84.242 4.645 84.332 4.348 84.461 4.125 84.633 3.898 84.805 3.746 85.012 3.656 85.258 3.566 85.504 3.523 85.785 3.523 86.094 3.523 86.406 3.57 86.691 3.66 86.945 3.754 87.199 3.914 87.414 4.141 87.59 4.367 87.766 4.664 87.902 5.039 87.996 5.414 88.09 5.879 88.137 6.441 88.137 7.016 88.137 7.488 88.086 7.867 87.988 8.242 87.887 8.543 87.75 8.766 87.574 8.988 87.398 9.145 87.188 9.238 86.949 9.328 86.711 9.375 86.449 9.375 86.168 9.375 85.855 9.328 85.57 9.238 85.312 9.152 85.059 8.996 84.844 8.773 84.664 8.547 84.484 8.25 84.352 7.871 84.254 7.492 84.16 7.016 84.109 6.441 84.109ZM6.441 84.109" fill="#262626"/>
<path d="M10.145 81.258H4.473C4.316 81.258 4.16 81.262 3.996 81.266 3.836 81.266 3.68 81.27 3.527 81.273 3.379 81.277 3.238 81.285 3.105 81.289 2.973 81.293 2.855 81.297 2.75 81.301V80.141C2.855 80.137 2.973 80.129 3.109 80.121 3.242 80.113 3.379 80.109 3.523 80.102 3.664 80.094 3.801 80.09 3.93 80.09 4.059 80.086 4.168 80.086 4.258 80.086V80.055C3.977 79.969 3.734 79.879 3.527 79.781 3.316 79.68 3.145 79.566 3.012 79.434 2.879 79.301 2.777 79.145 2.711 78.961 2.645 78.781 2.613 78.559 2.613 78.301 2.613 78.199 2.621 78.105 2.637 78.012 2.652 77.922 2.668 77.852 2.68 77.801H3.809C3.785 77.883 3.77 77.977 3.758 78.086 3.746 78.195 3.742 78.32 3.742 78.457 3.742 78.738 3.805 78.98 3.934 79.18 4.059 79.379 4.238 79.539 4.461 79.664 4.688 79.789 4.957 79.879 5.266 79.941 5.578 80 5.922 80.031 6.289 80.031H10.145ZM10.145 81.258" fill="#262626"/>
<path d="M5.285 72.973C4.531 72.973 3.855 72.875 3.25 72.672 2.641 72.469 2.125 72.164 1.699 71.762 1.273 71.359 .945 70.859 .715 70.262 .484 69.664 .371 68.969 .371 68.184 .371 67.59 .422 67.07 .527 66.625 .633 66.18 .781 65.789 .98 65.461 1.176 65.133 1.414 64.855 1.691 64.629 1.973 64.398 2.289 64.207 2.641 64.047L3.008 65.293C2.773 65.41 2.555 65.551 2.363 65.719 2.168 65.887 2.004 66.086 1.867 66.324 1.73 66.562 1.625 66.836 1.551 67.148 1.477 67.461 1.438 67.816 1.438 68.215 1.438 68.801 1.527 69.309 1.711 69.738 1.895 70.168 2.152 70.527 2.488 70.809 2.828 71.09 3.23 71.301 3.707 71.441 4.18 71.578 4.707 71.648 5.285 71.648 5.863 71.648 6.395 71.574 6.875 71.422 7.355 71.273 7.77 71.051 8.117 70.754 8.465 70.457 8.738 70.09 8.93 69.648 9.125 69.211 9.223 68.699 9.223 68.121 9.223 67.742 9.191 67.395 9.129 67.074 9.062 66.754 8.98 66.469 8.879 66.211 8.777 65.953 8.66 65.727 8.535 65.531 8.41 65.336 8.285 65.172 8.156 65.039H6.422V67.918H5.328V63.836H8.648C8.867 64.051 9.078 64.301 9.273 64.594 9.473 64.879 9.645 65.207 9.797 65.566 9.949 65.926 10.066 66.316 10.152 66.746 10.238 67.176 10.285 67.633 10.285 68.121 10.285 68.934 10.16 69.641 9.91 70.25 9.664 70.855 9.316 71.359 8.871 71.762 8.426 72.164 7.898 72.469 7.289 72.672 6.676 72.875 6.012 72.973 5.285 72.973ZM5.285 72.973" fill="#262626"/>
<path d="M6.441 55.59C7.734 55.59 8.699 55.875 9.336 56.445 9.969 57.016 10.285 57.844 10.285 58.926 10.285 59.441 10.207 59.902 10.051 60.309 9.895 60.715 9.656 61.059 9.34 61.336 9.02 61.617 8.621 61.832 8.141 61.98 7.66 62.129 7.094 62.199 6.441 62.199 3.887 62.199 2.613 61.098 2.613 58.887 2.613 58.312 2.691 57.816 2.852 57.398 3.012 56.98 3.25 56.641 3.57 56.375 3.887 56.105 4.285 55.91 4.766 55.781 5.246 55.656 5.801 55.59 6.441 55.59ZM6.441 56.883C5.867 56.883 5.391 56.926 5.02 57.016 4.645 57.105 4.348 57.234 4.125 57.406 3.898 57.578 3.746 57.785 3.656 58.031 3.566 58.277 3.523 58.555 3.523 58.863 3.523 59.18 3.57 59.465 3.66 59.719 3.754 59.969 3.914 60.184 4.141 60.363 4.367 60.539 4.664 60.676 5.039 60.77 5.414 60.863 5.879 60.91 6.441 60.91 7.016 60.91 7.488 60.859 7.867 60.758 8.242 60.66 8.543 60.52 8.766 60.348 8.988 60.168 9.145 59.961 9.238 59.723 9.328 59.484 9.375 59.223 9.375 58.941 9.375 58.625 9.328 58.34 9.238 58.086 9.152 57.832 8.996 57.613 8.773 57.438 8.547 57.258 8.25 57.121 7.871 57.027 7.492 56.93 7.016 56.883 6.441 56.883ZM6.441 56.883" fill="#262626"/>
<path d="M10.285 52.172C10.285 52.918 10.086 53.477 9.695 53.848 9.301 54.223 8.766 54.406 8.082 54.406 7.594 54.406 7.195 54.316 6.883 54.133 6.57 53.945 6.324 53.707 6.148 53.41 5.969 53.109 5.848 52.77 5.777 52.387 5.707 52.004 5.672 51.613 5.66 51.215L5.633 49.555H5.23C4.926 49.555 4.664 49.586 4.453 49.648 4.238 49.715 4.062 49.812 3.934 49.945 3.801 50.078 3.703 50.242 3.641 50.441 3.578 50.637 3.547 50.871 3.547 51.141 3.547 51.379 3.566 51.594 3.602 51.781 3.633 51.973 3.695 52.141 3.785 52.281 3.875 52.422 3.996 52.539 4.148 52.625 4.301 52.711 4.492 52.77 4.727 52.797L4.609 54.078C4.316 54.035 4.051 53.949 3.805 53.82 3.562 53.695 3.352 53.512 3.176 53.277 2.996 53.043 2.859 52.75 2.762 52.395 2.66 52.043 2.613 51.617 2.613 51.113 2.613 50.184 2.824 49.484 3.254 49.016 3.68 48.547 4.293 48.312 5.102 48.312H8.285C8.652 48.312 8.926 48.262 9.109 48.168 9.293 48.07 9.387 47.887 9.387 47.621 9.387 47.551 9.383 47.484 9.375 47.414 9.363 47.348 9.352 47.281 9.34 47.219H10.105C10.141 47.371 10.168 47.527 10.184 47.68 10.203 47.832 10.215 47.992 10.215 48.168 10.215 48.398 10.184 48.598 10.121 48.766 10.059 48.93 9.969 49.066 9.84 49.172 9.715 49.277 9.562 49.355 9.379 49.41 9.191 49.465 8.977 49.5 8.73 49.516V49.555C8.969 49.688 9.184 49.832 9.375 49.988 9.566 50.148 9.727 50.332 9.859 50.539 9.996 50.75 10.098 50.988 10.172 51.254 10.246 51.52 10.285 51.828 10.285 52.172ZM9.359 51.891C9.359 51.5 9.289 51.156 9.145 50.863 9 50.57 8.816 50.328 8.594 50.133 8.371 49.941 8.125 49.793 7.863 49.699 7.598 49.602 7.344 49.555 7.102 49.555H6.496L6.523 50.902C6.527 51.203 6.551 51.488 6.59 51.758 6.625 52.031 6.703 52.27 6.816 52.473 6.93 52.68 7.09 52.84 7.297 52.961 7.5 53.082 7.77 53.145 8.102 53.145 8.504 53.145 8.812 53.035 9.031 52.82 9.25 52.602 9.359 52.293 9.359 51.891ZM9.359 51.891" fill="#262626"/>
<path d="M0 45.043H10.145V46.273H0Z" fill="#262626"/>
<path d="M7.43 31.617C7.918 31.617 8.336 31.715 8.68 31.906 9.023 32.094 9.305 32.352 9.52 32.676 9.734 33 9.895 33.375 9.996 33.805 10.094 34.234 10.145 34.684 10.145 35.156V39.07H.516V35.57C.516 35.035 .559 34.559 .648 34.141 .738 33.719 .875 33.363 1.066 33.074 1.258 32.781 1.5 32.559 1.797 32.406 2.09 32.254 2.441 32.18 2.852 32.18 3.121 32.18 3.375 32.215 3.613 32.293 3.848 32.367 4.062 32.48 4.258 32.633 4.449 32.785 4.617 32.977 4.754 33.207 4.895 33.438 4.996 33.703 5.066 34.008 5.113 33.621 5.199 33.281 5.332 32.98 5.465 32.684 5.637 32.434 5.84 32.234 6.043 32.031 6.281 31.879 6.555 31.773 6.824 31.672 7.117 31.617 7.43 31.617ZM3.008 33.492C2.488 33.492 2.117 33.668 1.895 34.023 1.672 34.379 1.559 34.895 1.559 35.57V37.762H4.609V35.57C4.609 35.184 4.57 34.859 4.496 34.598 4.422 34.332 4.316 34.121 4.176 33.957 4.035 33.793 3.867 33.672 3.672 33.602 3.477 33.527 3.254 33.492 3.008 33.492ZM7.328 32.938C7.023 32.938 6.766 32.992 6.551 33.105 6.336 33.215 6.16 33.375 6.023 33.586 5.887 33.797 5.785 34.047 5.723 34.34 5.66 34.637 5.625 34.965 5.625 35.328V37.762H9.102V35.227C9.102 34.895 9.074 34.59 9.02 34.309 8.965 34.027 8.867 33.785 8.73 33.582 8.594 33.379 8.41 33.223 8.184 33.109 7.957 32.992 7.672 32.938 7.328 32.938ZM7.328 32.938" fill="#262626"/>
<g clip-path="url(#clip_22)">
<g clip-path="url(#clip_23)">
<path stroke-width="1" stroke-linecap="butt" stroke-dasharray="3.7,1.6" stroke-linejoin="round" fill="none" stroke="#808080" d="M37.23 82.801H199.672"/>
</g>
<g clip-path="url(#clip_24)">
<path stroke-width="2" stroke-linecap="round" stroke-linejoin="round" fill="none" stroke="#ff0000" d="M44.613 112.762 53.973 112.68 57.094 112.387 59.172 111.988 61.254 111.371 63.332 110.422 64.375 109.773 66.453 108.07 68.531 105.895 71.652 102.188 74.773 98.27 77.895 93.938 82.051 87.98 98.691 65.504 114.289 45.805 118.449 41.207 121.57 37.969 124.691 35.023 128.852 31.43 131.969 28.992 135.09 26.875 144.449 21.191 148.609 18.922 151.73 17.418 154.848 16.141 157.969 15.09 162.129 13.918 166.289 12.949 171.488 12 178.77 10.91 185.008 10.219 190.207 9.801 192.285 9.73"/>
</g>
<g clip-path="url(#clip_25)">
<path stroke-width="2" stroke-linecap="round" stroke-linejoin="round" fill="none" stroke="#472e7c" d="M44.613 112.762 57.234 112.691 59.129 112.488 61.023 112.062 62.285 111.605 64.18 110.625 66.07 109.324 68.594 107.188 75.539 100.746 78.691 97.547 83.109 92.672 94.469 79.414 99.52 73.668 103.305 68.992 109.617 60.652 122.238 46.488 124.129 44.422 128.547 39.336 132.965 35.129 138.645 30.035 141.168 28.188 147.48 23.867 151.266 21.656 157.578 18.195 161.363 16.652 166.414 14.848 170.199 13.715 174.617 12.617 181.559 11.137 187.238 10.312 191.023 9.883 192.285 9.828"/>
</g>
<g clip-path="url(#clip_26)">
<path stroke-width="2" stroke-linecap="round" stroke-linejoin="round" fill="none" stroke="#39568c" d="M44.613 112.762 59.684 112.66 63.703 112.441 65.711 112.148 67.719 111.598 69.73 110.695 71.738 109.406 74.75 107.008 80.777 102.098 84.797 99.02 91.828 94.074 95.848 90.652 98.863 87.898 101.875 84.789 104.891 81.289 107.902 77.422 110.918 73.199 114.934 67.016 117.949 62.523 120.961 58.559 130.004 47.176 135.027 41.223 138.039 38.094 142.059 34.375 153.109 24.484 156.121 22.348 159.137 20.57 163.152 18.496 167.172 16.703 170.188 15.59 174.203 14.379 179.227 13.125 184.25 12.121 189.273 11.293 192.285 11.059"/>
</g>
<g clip-path="url(#clip_27)">
<path stroke-width="2" stroke-linecap="round" stroke-linejoin="round" fill="none" stroke="#2a788e" d="M44.613 112.762 54.082 112.852 57.867 112.902 60.707 112.684 69.227 111.531 73.961 111.078 75.852 110.707 77.746 110.133 80.586 108.938 85.32 106.84 91.945 104.047 94.785 102.562 96.68 101.348 99.52 99.152 102.359 96.656 105.199 93.883 108.039 90.707 112.77 84.895 124.129 70.332 137.383 52.652 144.008 44.32 147.797 39.992 151.582 35.906 155.367 32.195 159.156 28.871 161.996 26.645 165.781 23.992 169.566 21.57 172.406 19.992 176.195 18.148 179.98 16.586 184.715 14.973 188.5 13.887 190.395 13.48 192.285 13.277"/>
</g>
<g clip-path="url(#clip_28)">
<path stroke-width="2" stroke-linecap="round" stroke-linejoin="round" fill="none" stroke="#1f988b" d="M44.613 112.762 60.051 112.664 84.234 111.227 86.805 110.84 89.379 110.453 91.953 110.367 95.039 110.227 98.125 110.133 105.844 110.148 114.59 109.469 116.648 109.375 121.281 109.465 122.824 109.328 124.367 108.973 131.059 106.793 133.113 105.883 137.23 103.809 138.773 102.73 141.348 100.418 144.949 97.055 148.551 93.484 150.609 91.395 152.668 88.895 155.238 85.812 159.355 81.098 160.898 79.07 162.445 76.723 163.988 73.996 169.133 63.984 171.191 59.453 173.762 53.852 176.852 47.828 178.91 44.309 183.539 36.91 187.656 30.945 189.715 28.266 190.742 27.109 191.773 26.305 192.285 26.125"/>
</g>
<g clip-path="url(#clip_29)">
<path stroke-width="2" stroke-linecap="round" stroke-linejoin="round" fill="none" stroke="#37b878" d="M44.613 112.762 57.156 112.855 67.992 113.547 74.262 114.414 79.395 115.254 82.816 115.992 84.527 116.316 86.805 116.473 89.086 116.633 91.367 117.012 95.93 117.84 99.352 118.18 106.191 118.703 109.613 119.363 112.465 120.102 114.176 120.742 121.586 123.977 132.418 127.43 134.129 127.617 139.262 127.766 146.672 127.91 151.234 128.133 159.219 128.848 168.91 128.797 184.875 128.59 189.438 128.457 192.285 128.461"/>
</g>
<g clip-path="url(#clip_30)">
<path stroke-width="2" stroke-linecap="round" stroke-linejoin="round" fill="none" stroke="#7ad151" d="M44.613 112.762 56.586 112.848 58.867 113.109 61.719 113.691 67.422 115.18 70.273 115.914 75.973 117.117 78.824 118.141 92.508 123.418 99.352 126.055 101.629 127.094 103.91 128.414 109.043 131.621 114.176 134.594 123.867 141.129 126.719 142.633 132.988 145.555 138.691 148.098 141.543 149.152 146.672 150.707 150.094 151.551 158.078 153.211 163.207 153.926 173.473 155.191 180.883 155.727 186.016 155.793 192.285 155.805"/>
</g>
<g clip-path="url(#clip_31)">
<path stroke-width="2" stroke-linecap="round" stroke-linejoin="round" fill="none" stroke="#000000" d="M44.613 112.766 49.953 112.676 51.73 112.445 52.621 112.211 53.512 111.859 54.398 111.367 55.289 110.711 56.18 109.863 57.07 108.82 57.957 107.578 59.738 104.504 61.516 100.738 63.297 96.422 66.855 86.988 70.414 77.027 75.75 61.59 79.309 52.242 81.977 45.824 83.758 42.047 85.535 38.699 88.203 34.297 90.875 30.418 93.543 26.965 96.211 23.82 98.879 21.059 100.66 19.488 103.328 17.488 105.996 15.789 109.555 13.809 112.223 12.594 114.891 11.637 118.449 10.672 122.008 9.949 126.457 9.297 131.793 8.805 138.91 8.395 148.695 8.078 162.93 7.93 192.285 7.895"/>
</g>
</g>
<path stroke-width="1" stroke-linecap="square" stroke-miterlimit="4" stroke-linejoin="miter" fill="none" stroke="#cccccc" d="M37.23 163.199V.5"/>
<path stroke-width="1" stroke-linecap="square" stroke-miterlimit="4" stroke-linejoin="miter" fill="none" stroke="#cccccc" d="M199.672 163.199V.5"/>
<path stroke-width="1" stroke-linecap="square" stroke-miterlimit="4" stroke-linejoin="miter" fill="none" stroke="#cccccc" d="M37.23 163.199H199.672"/>
<path stroke-width="1" stroke-linecap="square" stroke-miterlimit="4" stroke-linejoin="miter" fill="none" stroke="#cccccc" d="M37.23 .5H199.672"/>
<path stroke-width="2" stroke-linecap="round" stroke-linejoin="round" fill="none" stroke="#ff0000" d="M212.27 10.395H240.27"/>
<path d="M260.5 5.852 262.195 15.289H260.863L259.82 9.629 256.078 15.289H254.746L259.523 7.949 259.285 6.594C259.184 6.02 258.891 5.734 258.402 5.734H257.746L257.949 4.652 258.75 4.668C259.777 4.68 260.359 5.074 260.5 5.852ZM260.5 5.852" fill="#262626"/>
<path d="M267.855 8.934H276.621V10.082H267.855ZM267.855 11.723H276.621V12.883H267.855ZM267.855 11.723" fill="#262626"/>
<path d="M285.281 5.992C284.57 5.992 284.035 6.344 283.676 7.043 283.32 7.742 283.141 8.793 283.141 10.199 283.141 11.598 283.32 12.645 283.676 13.348 284.035 14.047 284.57 14.395 285.281 14.395 285.996 14.395 286.531 14.047 286.891 13.348 287.25 12.645 287.43 11.598 287.43 10.199 287.43 8.793 287.25 7.742 286.891 7.043 286.531 6.344 285.996 5.992 285.281 5.992ZM285.281 4.898C286.426 4.898 287.301 5.352 287.902 6.258 288.508 7.164 288.809 8.477 288.809 10.199 288.809 11.918 288.508 13.227 287.902 14.133 287.301 15.039 286.426 15.488 285.281 15.488 284.137 15.488 283.262 15.039 282.66 14.133 282.055 13.227 281.754 11.918 281.754 10.199 281.754 8.477 282.055 7.164 282.66 6.258 283.262 5.352 284.137 4.898 285.281 4.898ZM285.281 4.898" fill="#262626"/>
<path stroke-width="2" stroke-linecap="round" stroke-linejoin="round" fill="none" stroke="#472e7c" d="M212.27 30.445H240.27"/>
<path d="M256.609 25.898 258.305 35.34H256.973L255.93 29.68 252.188 35.34H250.855L255.633 28 255.395 26.645C255.293 26.07 255 25.785 254.512 25.785H253.855L254.062 24.703 254.859 24.719C255.887 24.73 256.469 25.125 256.609 25.898ZM256.609 25.898" fill="#262626"/>
<path d="M263.965 28.984H272.73V30.133H263.965ZM263.965 31.773H272.73V32.934H263.965ZM263.965 31.773" fill="#262626"/>
<path d="M279.629 34.18H284.445V35.34H277.969V34.18C278.492 33.637 279.203 32.91 280.109 31.996 281.016 31.082 281.582 30.492 281.816 30.227 282.258 29.73 282.566 29.312 282.742 28.969 282.918 28.621 283.004 28.285 283.004 27.953 283.004 27.41 282.816 26.969 282.434 26.625 282.055 26.285 281.559 26.113 280.945 26.113 280.512 26.113 280.055 26.188 279.574 26.336 279.094 26.488 278.582 26.715 278.035 27.023V25.625C278.59 25.402 279.109 25.234 279.594 25.121 280.078 25.008 280.52 24.949 280.922 24.949 281.977 24.949 282.82 25.215 283.449 25.746 284.078 26.273 284.391 26.98 284.391 27.863 284.391 28.281 284.312 28.68 284.156 29.059 284 29.434 283.715 29.875 283.297 30.383 283.184 30.516 282.82 30.898 282.211 31.531 281.602 32.164 280.742 33.047 279.629 34.18ZM279.629 34.18" fill="#262626"/>
<path stroke-width="2" stroke-linecap="round" stroke-linejoin="round" fill="none" stroke="#39568c" d="M212.27 50.496H240.27"/>
<path d="M256.609 45.949 258.305 55.391H256.973L255.93 49.73 252.188 55.391H250.855L255.633 48.051 255.395 46.695C255.293 46.121 255 45.836 254.512 45.836H253.855L254.062 44.754 254.859 44.77C255.887 44.781 256.469 45.176 256.609 45.949ZM256.609 45.949" fill="#262626"/>
<path d="M263.965 49.035H272.73V50.184H263.965ZM263.965 51.824H272.73V52.984H263.965ZM263.965 51.824" fill="#262626"/>
<path d="M278.453 45.184H283.875V46.348H279.719V48.848C279.918 48.781 280.117 48.73 280.316 48.695 280.52 48.664 280.719 48.645 280.922 48.645 282.059 48.645 282.961 48.957 283.625 49.582 284.293 50.207 284.625 51.051 284.625 52.117 284.625 53.215 284.285 54.07 283.602 54.68 282.918 55.289 281.953 55.59 280.707 55.59 280.281 55.59 279.844 55.555 279.398 55.48 278.953 55.41 278.496 55.301 278.023 55.152V53.766C278.434 53.988 278.855 54.152 279.293 54.262 279.73 54.371 280.191 54.426 280.68 54.426 281.469 54.426 282.094 54.219 282.551 53.805 283.012 53.391 283.242 52.828 283.242 52.117 283.242 51.406 283.012 50.844 282.551 50.43 282.094 50.016 281.469 49.809 280.68 49.809 280.312 49.809 279.941 49.848 279.574 49.93 279.211 50.012 278.836 50.141 278.453 50.312ZM278.453 45.184" fill="#262626"/>
<path stroke-width="2" stroke-linecap="round" stroke-linejoin="round" fill="none" stroke="#2a788e" d="M212.27 70.547H240.27"/>
<path d="M256.609 66 258.305 75.441H256.973L255.93 69.781 252.188 75.441H250.855L255.633 68.102 255.395 66.746C255.293 66.172 255 65.887 254.512 65.887H253.855L254.062 64.805 254.859 64.82C255.887 64.832 256.469 65.227 256.609 66ZM256.609 66" fill="#262626"/>
<path d="M263.965 69.086H272.73V70.234H263.965ZM263.965 71.875H272.73V73.035H263.965ZM263.965 71.875" fill="#262626"/>
<path d="M278.68 74.281H280.934V66.492L278.48 66.984V65.727L280.922 65.234H282.301V74.281H284.555V75.441H278.68ZM278.68 74.281" fill="#262626"/>
<path d="M290.297 66.145C289.586 66.145 289.055 66.496 288.695 67.195 288.336 67.895 288.16 68.945 288.16 70.352 288.16 71.75 288.336 72.797 288.695 73.5 289.055 74.199 289.586 74.547 290.297 74.547 291.016 74.547 291.551 74.199 291.906 73.5 292.266 72.797 292.445 71.75 292.445 70.352 292.445 68.945 292.266 67.895 291.906 67.195 291.551 66.496 291.016 66.145 290.297 66.145ZM290.297 65.051C291.441 65.051 292.316 65.504 292.922 66.41 293.523 67.316 293.828 68.629 293.828 70.352 293.828 72.066 293.523 73.379 292.922 74.285 292.316 75.191 291.441 75.641 290.297 75.641 289.156 75.641 288.281 75.191 287.676 74.285 287.074 73.379 286.773 72.066 286.773 70.352 286.773 68.629 287.074 67.316 287.676 66.41 288.281 65.504 289.156 65.051 290.297 65.051ZM290.297 65.051" fill="#262626"/>
<path stroke-width="2" stroke-linecap="round" stroke-linejoin="round" fill="none" stroke="#1f988b" d="M212.27 90.594H240.27"/>
<path d="M256.609 86.051 258.305 95.492H256.973L255.93 89.832 252.188 95.492H250.855L255.633 88.152 255.395 86.797C255.293 86.223 255 85.938 254.512 85.938H253.855L254.062 84.855 254.859 84.871C255.887 84.883 256.469 85.277 256.609 86.051ZM256.609 86.051" fill="#262626"/>
<path d="M263.965 89.137H272.73V90.285H263.965ZM263.965 91.926H272.73V93.086H263.965ZM263.965 91.926" fill="#262626"/>
<path d="M278.68 94.332H280.934V86.543L278.48 87.035V85.777L280.922 85.285H282.301V94.332H284.555V95.492H278.68ZM278.68 94.332" fill="#262626"/>
<path d="M287.359 85.285H292.781V86.449H288.625V88.949C288.824 88.883 289.023 88.832 289.223 88.797 289.426 88.766 289.625 88.746 289.828 88.746 290.965 88.746 291.867 89.059 292.535 89.684 293.199 90.309 293.535 91.152 293.535 92.219 293.535 93.316 293.191 94.172 292.508 94.781 291.824 95.387 290.859 95.691 289.617 95.691 289.188 95.691 288.75 95.656 288.305 95.582 287.863 95.512 287.402 95.402 286.93 95.254V93.867C287.34 94.09 287.762 94.254 288.199 94.363 288.637 94.473 289.102 94.527 289.586 94.527 290.375 94.527 291 94.32 291.461 93.906 291.922 93.492 292.152 92.93 292.152 92.219 292.152 91.508 291.922 90.945 291.461 90.531 291 90.117 290.375 89.91 289.586 89.91 289.219 89.91 288.852 89.949 288.48 90.031 288.117 90.113 287.742 90.242 287.359 90.414ZM287.359 85.285" fill="#262626"/>
<path stroke-width="2" stroke-linecap="round" stroke-linejoin="round" fill="none" stroke="#37b878" d="M212.27 110.645H240.27"/>
<path d="M256.609 106.102 258.305 115.543H256.973L255.93 109.883 252.188 115.543H250.855L255.633 108.203 255.395 106.848C255.293 106.273 255 105.988 254.512 105.988H253.855L254.062 104.906 254.859 104.922C255.887 104.934 256.469 105.328 256.609 106.102ZM256.609 106.102" fill="#262626"/>
<path d="M263.965 109.188H272.73V110.336H263.965ZM263.965 111.977H272.73V113.137H263.965ZM263.965 111.977" fill="#262626"/>
<path d="M279.629 114.383H284.445V115.543H277.969V114.383C278.492 113.84 279.203 113.113 280.109 112.199 281.016 111.285 281.582 110.695 281.816 110.43 282.258 109.934 282.566 109.516 282.742 109.168 282.918 108.824 283.004 108.488 283.004 108.156 283.004 107.613 282.816 107.172 282.434 106.828 282.055 106.488 281.559 106.316 280.945 106.316 280.512 106.316 280.055 106.391 279.574 106.539 279.094 106.691 278.582 106.918 278.035 107.227V105.828C278.59 105.605 279.109 105.438 279.594 105.324 280.078 105.211 280.52 105.152 280.922 105.152 281.977 105.152 282.82 105.418 283.449 105.949 284.078 106.477 284.391 107.18 284.391 108.066 284.391 108.484 284.312 108.883 284.156 109.258 284 109.633 283.715 110.078 283.297 110.586 283.184 110.719 282.82 111.102 282.211 111.734 281.602 112.363 280.742 113.246 279.629 114.383ZM279.629 114.383" fill="#262626"/>
<path d="M290.297 106.246C289.586 106.246 289.055 106.598 288.695 107.297 288.336 107.996 288.16 109.047 288.16 110.453 288.16 111.852 288.336 112.898 288.695 113.598 289.055 114.301 289.586 114.648 290.297 114.648 291.016 114.648 291.551 114.301 291.906 113.598 292.266 112.898 292.445 111.852 292.445 110.453 292.445 109.047 292.266 107.996 291.906 107.297 291.551 106.598 291.016 106.246 290.297 106.246ZM290.297 105.152C291.441 105.152 292.316 105.605 292.922 106.512 293.523 107.418 293.828 108.73 293.828 110.453 293.828 112.168 293.523 113.48 292.922 114.387 292.316 115.293 291.441 115.742 290.297 115.742 289.156 115.742 288.281 115.293 287.676 114.387 287.074 113.48 286.773 112.168 286.773 110.453 286.773 108.73 287.074 107.418 287.676 106.512 288.281 105.605 289.156 105.152 290.297 105.152ZM290.297 105.152" fill="#262626"/>
<path stroke-width="2" stroke-linecap="round" stroke-linejoin="round" fill="none" stroke="#7ad151" d="M212.27 130.695H240.27"/>
<path d="M256.609 126.152 258.305 135.594H256.973L255.93 129.934 252.188 135.594H250.855L255.633 128.254 255.395 126.898C255.293 126.324 255 126.039 254.512 126.039H253.855L254.062 124.957 254.859 124.973C255.887 124.984 256.469 125.379 256.609 126.152ZM256.609 126.152" fill="#262626"/>
<path d="M263.965 129.238H272.73V130.387H263.965ZM263.965 132.027H272.73V133.188H263.965ZM263.965 132.027" fill="#262626"/>
<path d="M282.234 126.59 278.746 132.039H282.234ZM281.871 125.387H283.605V132.039H285.062V133.188H283.605V135.594H282.234V133.188H277.625V131.855ZM281.871 125.387" fill="#262626"/>
<path d="M290.297 126.297C289.586 126.297 289.055 126.648 288.695 127.348 288.336 128.047 288.16 129.098 288.16 130.504 288.16 131.902 288.336 132.949 288.695 133.648 289.055 134.352 289.586 134.699 290.297 134.699 291.016 134.699 291.551 134.352 291.906 133.648 292.266 132.949 292.445 131.902 292.445 130.504 292.445 129.098 292.266 128.047 291.906 127.348 291.551 126.648 291.016 126.297 290.297 126.297ZM290.297 125.203C291.441 125.203 292.316 125.656 292.922 126.562 293.523 127.465 293.828 128.781 293.828 130.504 293.828 132.219 293.523 133.531 292.922 134.438 292.316 135.34 291.441 135.793 290.297 135.793 289.156 135.793 288.281 135.34 287.676 134.438 287.074 133.531 286.773 132.219 286.773 130.504 286.773 128.781 287.074 127.465 287.676 126.562 288.281 125.656 289.156 125.203 290.297 125.203ZM290.297 125.203" fill="#262626"/>
<path stroke-width="2" stroke-linecap="round" stroke-linejoin="round" fill="none" stroke="#000000" d="M212.27 150.746H240.27"/>
<path d="M252.617 155.648V146.016H253.926V154.578H258.793V155.648ZM252.617 155.648" fill="#262626"/>
<path d="M261.145 152.207C261.145 152.598 261.184 152.953 261.262 153.281 261.344 153.605 261.465 153.887 261.633 154.121 261.797 154.355 262.012 154.535 262.27 154.668 262.531 154.797 262.844 154.863 263.207 154.863 263.742 154.863 264.168 154.754 264.488 154.539 264.812 154.328 265.031 154.055 265.145 153.727L266.223 154.031C266.145 154.238 266.035 154.445 265.898 154.652 265.758 154.859 265.574 155.047 265.34 155.215 265.109 155.379 264.816 155.52 264.469 155.625 264.121 155.73 263.699 155.785 263.207 155.785 262.113 155.785 261.281 155.461 260.711 154.809 260.137 154.156 259.852 153.188 259.852 151.898 259.852 151.207 259.938 150.621 260.109 150.141 260.285 149.66 260.52 149.27 260.82 148.969 261.121 148.668 261.473 148.453 261.875 148.316 262.277 148.18 262.703 148.113 263.16 148.113 263.777 148.113 264.297 148.215 264.715 148.414 265.133 148.617 265.465 148.891 265.719 149.246 265.973 149.602 266.152 150.016 266.258 150.492 266.367 150.973 266.422 151.488 266.422 152.043V152.207ZM265.148 151.266C265.082 150.484 264.883 149.918 264.555 149.559 264.227 149.203 263.754 149.023 263.141 149.023 262.934 149.023 262.719 149.055 262.492 149.121 262.266 149.188 262.059 149.305 261.867 149.473 261.676 149.645 261.516 149.875 261.383 150.164 261.25 150.453 261.176 150.82 261.156 151.266ZM265.148 151.266" fill="#262626"/>
<path d="M270.789 158.551C270.367 158.551 269.988 158.508 269.66 158.422 269.332 158.336 269.051 158.211 268.82 158.051 268.586 157.891 268.398 157.695 268.254 157.473 268.105 157.25 268 157 267.938 156.727L269.176 156.551C269.258 156.891 269.438 157.156 269.719 157.34 270 157.523 270.367 157.617 270.824 157.617 271.102 157.617 271.355 157.578 271.582 157.5 271.809 157.422 272.004 157.297 272.16 157.125 272.32 156.957 272.445 156.734 272.531 156.461 272.617 156.188 272.664 155.855 272.664 155.465V154.273H272.648C272.559 154.461 272.445 154.641 272.309 154.809 272.176 154.98 272.012 155.133 271.816 155.266 271.625 155.398 271.398 155.504 271.145 155.586 270.891 155.664 270.598 155.703 270.27 155.703 269.801 155.703 269.398 155.625 269.062 155.465 268.727 155.309 268.453 155.074 268.242 154.758 268.031 154.445 267.875 154.055 267.777 153.586 267.68 153.117 267.633 152.578 267.633 151.965 267.633 151.371 267.68 150.836 267.777 150.363 267.875 149.887 268.035 149.488 268.254 149.156 268.477 148.824 268.766 148.574 269.117 148.398 269.473 148.223 269.902 148.137 270.406 148.137 270.93 148.137 271.387 148.254 271.77 148.496 272.156 148.734 272.453 149.074 272.664 149.516H272.676C272.676 149.402 272.68 149.273 272.684 149.133 272.691 148.992 272.699 148.859 272.707 148.734 272.715 148.605 272.723 148.5 272.73 148.41 272.738 148.316 272.75 148.266 272.758 148.25H273.926C273.922 148.293 273.918 148.363 273.914 148.461 273.91 148.559 273.906 148.676 273.898 148.812 273.895 148.949 273.891 149.102 273.887 149.266 273.887 149.434 273.887 149.605 273.887 149.781V155.434C273.887 156.473 273.633 157.25 273.121 157.77 272.613 158.293 271.836 158.551 270.789 158.551ZM272.664 151.949C272.664 151.434 272.605 150.992 272.496 150.629 272.383 150.258 272.238 149.961 272.055 149.727 271.871 149.496 271.664 149.324 271.43 149.215 271.195 149.105 270.953 149.051 270.707 149.051 270.391 149.051 270.121 149.105 269.895 149.215 269.672 149.324 269.484 149.496 269.336 149.73 269.188 149.965 269.078 150.266 269.008 150.633 268.938 151 268.902 151.438 268.902 151.949 268.902 152.48 268.938 152.93 269.008 153.293 269.078 153.656 269.188 153.949 269.332 154.172 269.48 154.395 269.664 154.555 269.887 154.648 270.109 154.746 270.375 154.793 270.688 154.793 270.934 154.793 271.172 154.742 271.406 154.637 271.641 154.531 271.852 154.367 272.039 154.137 272.227 153.91 272.379 153.613 272.492 153.254 272.605 152.895 272.664 152.457 272.664 151.949ZM272.664 151.949" fill="#262626"/>
<path d="M275.766 146.68V145.5H276.996V146.68ZM275.766 155.648V148.25H276.996V155.648ZM275.766 155.648" fill="#262626"/>
<path d="M285.137 151.914C285.137 154.496 284.23 155.785 282.418 155.785 281.855 155.785 281.391 155.684 281.02 155.48 280.648 155.277 280.344 154.949 280.113 154.5H280.102C280.102 154.617 280.098 154.742 280.09 154.867 280.082 154.996 280.074 155.113 280.066 155.223 280.062 155.332 280.055 155.426 280.047 155.504 280.039 155.582 280.035 155.629 280.031 155.648H278.844C278.848 155.605 278.852 155.539 278.855 155.441 278.859 155.34 278.863 155.223 278.867 155.086 278.875 154.949 278.875 154.801 278.879 154.637 278.879 154.473 278.883 154.301 278.883 154.121V145.5H280.113V148.395C280.113 148.531 280.113 148.66 280.109 148.789 280.109 148.914 280.105 149.023 280.102 149.121 280.094 149.234 280.09 149.34 280.086 149.438H280.113C280.34 148.965 280.645 148.625 281.02 148.422 281.395 148.215 281.863 148.113 282.418 148.113 283.352 148.113 284.039 148.43 284.477 149.059 284.918 149.688 285.137 150.641 285.137 151.914ZM283.844 151.953C283.844 151.445 283.812 151.008 283.75 150.641 283.688 150.277 283.586 149.98 283.441 149.746 283.301 149.512 283.121 149.34 282.902 149.23 282.684 149.121 282.418 149.066 282.102 149.066 281.777 149.066 281.492 149.117 281.246 149.223 280.996 149.328 280.789 149.496 280.625 149.727 280.457 149.961 280.332 150.266 280.242 150.645 280.156 151.023 280.113 151.484 280.113 152.031 280.113 152.559 280.156 153.004 280.242 153.363 280.332 153.723 280.457 154.016 280.625 154.242 280.789 154.469 280.996 154.629 281.242 154.73 281.488 154.828 281.77 154.875 282.09 154.875 282.391 154.875 282.648 154.824 282.867 154.719 283.086 154.613 283.27 154.445 283.414 154.211 283.559 153.98 283.668 153.676 283.738 153.309 283.809 152.934 283.844 152.484 283.844 151.953ZM283.844 151.953" fill="#262626"/>
<path d="M286.66 146.68V145.5H287.895V146.68ZM286.66 155.648V148.25H287.895V155.648ZM286.66 155.648" fill="#262626"/>
<path d="M289.777 145.5H291.01103V155.648H289.777Z" fill="#262626"/>
<path d="M292.883 146.68V145.5H294.113V146.68ZM292.883 155.648V148.25H294.113V155.648ZM292.883 155.648" fill="#262626"/>
<path d="M298.844 155.594C298.656 155.641 298.465 155.684 298.273 155.711 298.078 155.742 297.855 155.758 297.602 155.758 296.617 155.758 296.125 155.199 296.125 154.082V149.145H295.27V148.25H296.172L296.531 146.594H297.352V148.25H298.719V149.145H297.352V153.812C297.352 154.172 297.41 154.422 297.527 154.566 297.645 154.707 297.844 154.777 298.133 154.777 298.25 154.777 298.367 154.77 298.477 154.754 298.59 154.734 298.711 154.711 298.844 154.684ZM298.844 155.594" fill="#262626"/>
<path d="M303.078 155.648C302.902 156.094 302.727 156.496 302.543 156.852 302.367 157.211 302.164 157.516 301.941 157.77 301.719 158.023 301.469 158.219 301.195 158.352 300.922 158.484 300.609 158.551 300.254 158.551 300.098 158.551 299.953 158.547 299.82 158.539 299.688 158.531 299.551 158.512 299.402 158.477V157.555C299.492 157.566 299.59 157.578 299.699 157.586 299.809 157.594 299.902 157.598 299.98 157.598 300.34 157.598 300.672 157.461 300.984 157.191 301.293 156.922 301.566 156.496 301.797 155.906L301.914 155.613 298.98 148.25H300.293L301.852 152.336C301.895 152.461 301.953 152.625 302.023 152.832 302.094 153.035 302.168 153.242 302.234 153.445 302.309 153.652 302.371 153.836 302.426 154 302.48 154.164 302.512 154.266 302.52 154.305 302.535 154.258 302.57 154.16 302.621 154.012 302.672 153.863 302.734 153.695 302.797 153.516 302.863 153.332 302.93 153.148 303 152.961 303.066 152.773 303.125 152.613 303.172 152.477L304.621 148.25H305.922ZM303.078 155.648" fill="#262626"/>
<path d="M310.832 158.551V145.5H313.617V146.387H312.023V157.672H313.617V158.551ZM310.832 158.551" fill="#262626"/>
<path d="M314.43 155.648V154.777C314.66 154.246 314.945 153.773 315.281 153.367 315.617 152.961 315.969 152.59 316.336 152.262 316.707 151.93 317.07 151.625 317.434 151.34 317.797 151.059 318.125 150.773 318.414 150.492 318.707 150.211 318.941 149.914 319.121 149.605 319.305 149.297 319.395 148.945 319.395 148.551 319.395 148.277 319.352 148.039 319.27 147.832 319.188 147.621 319.07 147.449 318.914 147.309 318.758 147.168 318.574 147.062 318.355 146.992 318.141 146.922 317.902 146.883 317.637 146.883 317.391 146.883 317.16 146.918 316.941 146.988 316.727 147.055 316.531 147.156 316.363 147.293 316.195 147.43 316.059 147.602 315.949 147.805 315.844 148.004 315.773 148.242 315.742 148.508L314.484 148.395C314.527 148.047 314.621 147.723 314.77 147.418 314.922 147.113 315.129 146.844 315.391 146.613 315.656 146.383 315.977 146.203 316.348 146.07 316.719 145.938 317.148 145.871 317.637 145.871 318.113 145.871 318.539 145.93 318.914 146.043 319.289 146.156 319.602 146.324 319.859 146.551 320.117 146.773 320.316 147.047 320.453 147.375 320.59 147.703 320.656 148.082 320.656 148.508 320.656 148.832 320.598 149.141 320.484 149.434 320.367 149.723 320.211 150.004 320.016 150.27 319.824 150.531 319.602 150.789 319.344 151.035 319.09 151.277 318.824 151.52 318.543 151.754 318.266 151.988 317.988 152.223 317.703 152.453 317.422 152.684 317.156 152.914 316.906 153.148 316.66 153.379 316.438 153.613 316.242 153.855 316.047 154.094 315.895 154.344 315.785 154.602H320.809V155.648ZM314.43 155.648" fill="#262626"/>
<path d="M328.711 152.512C328.711 152.992 328.637 153.434 328.492 153.836 328.348 154.238 328.129 154.582 327.844 154.875 327.555 155.16 327.199 155.387 326.773 155.547 326.348 155.707 325.852 155.785 325.293 155.785 324.785 155.785 324.344 155.727 323.969 155.609 323.594 155.488 323.277 155.324 323.016 155.117 322.754 154.91 322.547 154.668 322.395 154.391 322.242 154.109 322.137 153.812 322.07 153.496L323.316 153.352C323.367 153.531 323.438 153.711 323.527 153.879 323.617 154.051 323.742 154.203 323.902 154.34 324.059 154.473 324.25 154.582 324.48 154.66 324.711 154.738 324.992 154.777 325.32 154.777 325.637 154.777 325.926 154.73 326.188 154.633 326.449 154.535 326.668 154.391 326.855 154.199 327.039 154.008 327.18 153.773 327.281 153.496 327.379 153.215 327.43 152.898 327.43 152.535 327.43 152.242 327.383 151.969 327.285 151.723 327.191 151.473 327.055 151.258 326.879 151.078 326.699 150.898 326.48 150.758 326.223 150.656 325.969 150.559 325.676 150.508 325.348 150.508 325.141 150.508 324.953 150.523 324.781 150.562 324.605 150.598 324.445 150.648 324.297 150.711 324.148 150.773 324.016 150.848 323.895 150.934 323.773 151.02 323.66 151.105 323.555 151.199H322.352L322.672 146.016H328.148V147.062H323.797L323.609 150.117C323.828 149.949 324.102 149.805 324.43 149.684 324.758 149.562 325.148 149.504 325.602 149.504 326.078 149.504 326.508 149.574 326.891 149.723 327.273 149.867 327.602 150.074 327.867 150.34 328.137 150.605 328.348 150.922 328.492 151.293 328.637 151.66 328.711 152.066 328.711 152.512ZM328.711 152.512" fill="#262626"/>
<path d="M329.406 158.551V157.672H331V146.387H329.406V145.5H332.191V158.551ZM329.406 158.551" fill="#262626"/>
</g>
</svg>
