<svg xmlns="http://www.w3.org/2000/svg" xmlns:xlink="http://www.w3.org/1999/xlink" version="1.1" width="332.15693" height="196.0903" viewBox="0 0 332.15693 196.0903">
<defs>
<clipPath id="clip_0">
<path d="M40.906 .5H181.47602V164.359H40.906Z"/>
</clipPath>
<clipPath id="clip_1">
<path d="M0 0H333V197H0Z"/>
</clipPath>
<clipPath id="clip_2">
<path d="M40.906 .5H181.47602V164.359H40.906Z"/>
</clipPath>
<clipPath id="clip_3">
<path d="M0 0H333V197H0Z"/>
</clipPath>
<clipPath id="clip_4">
<path d="M40.906 .5H181.47602V164.359H40.906Z"/>
</clipPath>
<clipPath id="clip_5">
<path d="M0 0H333V197H0Z"/>
</clipPath>
<clipPath id="clip_6">
<path d="M40.906 .5H181.47602V164.359H40.906Z"/>
</clipPath>
<clipPath id="clip_7">
<path d="M0 0H333V197H0Z"/>
</clipPath>
<clipPath id="clip_8">
<path d="M40.906 .5H181.47602V164.359H40.906Z"/>
</clipPath>
<clipPath id="clip_9">
<path d="M0 0H333V197H0Z"/>
</clipPath>
<clipPath id="clip_10">
<path d="M40.906 .5H181.47602V164.359H40.906Z"/>
</clipPath>
<clipPath id="clip_11">
<path d="M0 0H333V197H0Z"/>
</clipPath>
<clipPath id="clip_12">
<path d="M40.906 .5H181.47602V164.359H40.906Z"/>
</clipPath>
<clipPath id="clip_13">
<path d="M0 0H333V197H0Z"/>
</clipPath>
<clipPath id="clip_14">
<path d="M40.906 .5H181.47602V164.359H40.906Z"/>
</clipPath>
<clipPath id="clip_15">
<path d="M0 0H333V197H0Z"/>
</clipPath>
<clipPath id="clip_16">
<path d="M40.906 .5H181.47602V164.359H40.906Z"/>
</clipPath>
<clipPath id="clip_17">
<path d="M0 0H333V197H0Z"/>
</clipPath>
<clipPath id="clip_18">
<path d="M40.906 .5H181.47602V164.359H40.906Z"/>
</clipPath>
<clipPath id="clip_19">
<path d="M0 0H333V197H0Z"/>
</clipPath>
<clipPath id="clip_20">
<path d="M40.906 .5H181.47602V164.359H40.906Z"/>
</clipPath>
<clipPath id="clip_21">
<path d="M0 0H333V197H0Z"/>
</clipPath>
<clipPath id="clip_22">
<path d="M0 0H333V197H0Z"/>
</clipPath>
<clipPath id="clip_23">
<path d="M0 0H333V197H0Z"/>
</clipPath>
<clipPath id="clip_24">
<path d="M0 0H333V197H0Z"/>
</clipPath>
<clipPath id="clip_25">
<path d="M0 0H333V197H0Z"/>
</clipPath>
<clipPath id="clip_26">
<path d="M0 0H333V197H0Z"/>
</clipPath>
<clipPath id="clip_27">
<path d="M0 0H333V197H0Z"/>
</clipPath>
<clipPath id="clip_28">
<path d="M0 0H333V197H0Z"/>
</clipPath>
<clipPath id="clip_29">
<path d="M0 0H333V197H0Z"/>
</clipPath>
<clipPath id="clip_30">
<path d="M0 0H333V197H0Z"/>
</clipPath>
<clipPath id="clip_31">
<path d="M0 0H333V197H0Z"/>
</clipPath>
</defs>
<g>
<path d="M40.906 .5H181.47602V164.359H40.906Z" fill="#ffffff"/>
<g clip-path="url(#clip_0)">
<g clip-path="url(#clip_1)">
<path stroke-width=".8" stroke-linecap="round" stroke-linejoin="round" fill="none" stroke="#cccccc" d="M52.621 164.359V.5"/>
</g>
</g>
<path d="M55.488 172.426C55.488 173.219 55.414 173.887 55.262 174.426 55.113 174.969 54.906 175.406 54.648 175.738 54.387 176.074 54.082 176.312 53.73 176.457 53.379 176.602 53.004 176.676 52.605 176.676 52.203 176.676 51.828 176.602 51.48 176.457 51.133 176.312 50.832 176.074 50.574 175.742 50.32 175.41 50.117 174.973 49.973 174.434 49.824 173.891 49.754 173.223 49.754 172.426 49.754 171.594 49.824 170.906 49.973 170.359 50.117 169.812 50.32 169.379 50.578 169.055 50.836 168.734 51.141 168.504 51.492 168.375 51.844 168.242 52.227 168.176 52.641 168.176 53.035 168.176 53.406 168.242 53.75 168.375 54.098 168.504 54.398 168.734 54.656 169.055 54.914 169.379 55.117 169.812 55.266 170.359 55.414 170.906 55.488 171.594 55.488 172.426ZM54.418 172.426C54.418 171.77 54.379 171.223 54.301 170.789 54.223 170.352 54.105 170.004 53.953 169.746 53.801 169.484 53.613 169.301 53.395 169.191 53.172 169.086 52.922 169.031 52.641 169.031 52.344 169.031 52.082 169.086 51.855 169.195 51.629 169.305 51.438 169.488 51.285 169.75 51.129 170.012 51.016 170.359 50.934 170.793 50.859 171.23 50.82 171.773 50.82 172.426 50.82 173.059 50.859 173.59 50.938 174.023 51.02 174.457 51.137 174.809 51.289 175.07 51.445 175.336 51.633 175.523 51.855 175.641 52.078 175.754 52.332 175.812 52.617 175.812 52.895 175.812 53.145 175.754 53.367 175.641 53.59 175.523 53.777 175.336 53.93 175.07 54.086 174.809 54.207 174.457 54.289 174.023 54.375 173.59 54.418 173.059 54.418 172.426ZM54.418 172.426" fill="#262626"/>
<g clip-path="url(#clip_2)">
<g clip-path="url(#clip_3)">
<path stroke-width=".8" stroke-linecap="round" stroke-linejoin="round" fill="none" stroke="#cccccc" d="M81.906 164.359V.5"/>
</g>
</g>
<path d="M84.738 173.867C84.738 174.281 84.676 174.66 84.551 175.004 84.426 175.348 84.242 175.645 83.996 175.891 83.75 176.141 83.441 176.332 83.078 176.469 82.715 176.605 82.289 176.676 81.809 176.676 81.375 176.676 80.996 176.625 80.676 176.523 80.352 176.422 80.082 176.281 79.855 176.102 79.633 175.926 79.457 175.719 79.324 175.477 79.195 175.238 79.105 174.984 79.047 174.711L80.117 174.586C80.156 174.742 80.219 174.895 80.297 175.043 80.375 175.188 80.48 175.32 80.617 175.434 80.75 175.551 80.918 175.641 81.113 175.711 81.312 175.777 81.551 175.812 81.832 175.812 82.105 175.812 82.352 175.77 82.574 175.688 82.801 175.602 82.988 175.48 83.148 175.316 83.305 175.148 83.43 174.949 83.512 174.711 83.598 174.473 83.641 174.199 83.641 173.891 83.641 173.637 83.602 173.402 83.52 173.191 83.438 172.977 83.32 172.793 83.168 172.641 83.016 172.484 82.828 172.363 82.605 172.281 82.387 172.191 82.137 172.148 81.855 172.148 81.68 172.148 81.52 172.164 81.371 172.195 81.223 172.227 81.082 172.27 80.957 172.328 80.828 172.379 80.715 172.441 80.609 172.516 80.508 172.59 80.41 172.664 80.32 172.742H79.289L79.562 168.301H84.258V169.195H80.527L80.367 171.816C80.555 171.672 80.789 171.547 81.07 171.445 81.352 171.34 81.684 171.289 82.074 171.289 82.484 171.289 82.852 171.352 83.18 171.477 83.508 171.602 83.789 171.777 84.016 172.008 84.25 172.234 84.426 172.508 84.551 172.824 84.676 173.141 84.738 173.488 84.738 173.867ZM84.738 173.867" fill="#262626"/>
<g clip-path="url(#clip_4)">
<g clip-path="url(#clip_5)">
<path stroke-width=".8" stroke-linecap="round" stroke-linejoin="round" fill="none" stroke="#cccccc" d="M111.191 164.359V.5"/>
</g>
</g>
<path d="M105.434 176.555V175.66H107.535V169.309L105.672 170.641V169.641L107.621 168.301H108.594V175.66H110.605V176.555ZM105.434 176.555" fill="#262626"/>
<path d="M117.395 172.426C117.395 173.219 117.32 173.887 117.172 174.426 117.02 174.969 116.816 175.406 116.555 175.738 116.297 176.074 115.988 176.312 115.641 176.457 115.289 176.602 114.914 176.676 114.516 176.676 114.109 176.676 113.734 176.602 113.391 176.457 113.043 176.312 112.738 176.074 112.484 175.742 112.227 175.41 112.027 174.973 111.879 174.434 111.734 173.891 111.66 173.223 111.66 172.426 111.66 171.594 111.734 170.906 111.879 170.359 112.027 169.812 112.227 169.379 112.484 169.055 112.742 168.734 113.047 168.504 113.398 168.375 113.75 168.242 114.133 168.176 114.551 168.176 114.941 168.176 115.312 168.242 115.656 168.375 116.004 168.504 116.305 168.734 116.562 169.055 116.82 169.379 117.023 169.812 117.172 170.359 117.32 170.906 117.395 171.594 117.395 172.426ZM116.324 172.426C116.324 171.77 116.285 171.223 116.207 170.789 116.129 170.352 116.016 170.004 115.863 169.746 115.711 169.484 115.523 169.301 115.301 169.191 115.082 169.086 114.832 169.031 114.551 169.031 114.25 169.031 113.988 169.086 113.766 169.195 113.539 169.305 113.348 169.488 113.191 169.75 113.039 170.012 112.922 170.359 112.844 170.793 112.766 171.23 112.727 171.773 112.727 172.426 112.727 173.059 112.766 173.59 112.848 174.023 112.926 174.457 113.043 174.809 113.199 175.07 113.352 175.336 113.543 175.523 113.766 175.641 113.984 175.754 114.238 175.812 114.523 175.812 114.801 175.812 115.051 175.754 115.273 175.641 115.496 175.523 115.688 175.336 115.84 175.07 115.996 174.809 116.113 174.457 116.199 174.023 116.281 173.59 116.324 173.059 116.324 172.426ZM116.324 172.426" fill="#262626"/>
<g clip-path="url(#clip_6)">
<g clip-path="url(#clip_7)">
<path stroke-width=".8" stroke-linecap="round" stroke-linejoin="round" fill="none" stroke="#cccccc" d="M140.477 164.359V.5"/>
</g>
</g>
<path d="M134.719 176.555V175.66H136.82V169.309L134.957 170.641V169.641L136.906 168.301H137.883V175.66H139.891V176.555ZM134.719 176.555" fill="#262626"/>
<path d="M146.648 173.867C146.648 174.281 146.586 174.66 146.461 175.004 146.336 175.348 146.148 175.645 145.902 175.891 145.656 176.141 145.352 176.332 144.984 176.469 144.621 176.605 144.199 176.676 143.715 176.676 143.281 176.676 142.906 176.625 142.582 176.523 142.262 176.422 141.988 176.281 141.766 176.102 141.543 175.926 141.367 175.719 141.234 175.477 141.105 175.238 141.012 174.984 140.957 174.711L142.023 174.586C142.066 174.742 142.125 174.895 142.203 175.043 142.281 175.188 142.391 175.32 142.523 175.434 142.66 175.551 142.824 175.641 143.023 175.711 143.219 175.777 143.461 175.812 143.742 175.812 144.012 175.812 144.262 175.77 144.484 175.688 144.707 175.602 144.898 175.48 145.055 175.316 145.215 175.148 145.336 174.949 145.422 174.711 145.508 174.473 145.551 174.199 145.551 173.891 145.551 173.637 145.508 173.402 145.426 173.191 145.344 172.977 145.23 172.793 145.074 172.641 144.922 172.484 144.738 172.363 144.516 172.281 144.297 172.191 144.043 172.148 143.762 172.148 143.59 172.148 143.426 172.164 143.277 172.195 143.129 172.227 142.992 172.27 142.863 172.328 142.738 172.379 142.621 172.441 142.52 172.516 142.414 172.59 142.316 172.664 142.227 172.742H141.195L141.473 168.301H146.164V169.195H142.434L142.273 171.816C142.461 171.672 142.695 171.547 142.977 171.445 143.258 171.34 143.594 171.289 143.98 171.289 144.391 171.289 144.762 171.352 145.086 171.477 145.418 171.602 145.695 171.777 145.926 172.008 146.156 172.234 146.336 172.508 146.461 172.824 146.586 173.141 146.648 173.488 146.648 173.867ZM146.648 173.867" fill="#262626"/>
<g clip-path="url(#clip_8)">
<g clip-path="url(#clip_9)">
<path stroke-width=".8" stroke-linecap="round" stroke-linejoin="round" fill="none" stroke="#cccccc" d="M169.762 164.359V.5"/>
</g>
</g>
<path d="M163.691 176.555V175.812C163.891 175.355 164.133 174.953 164.422 174.602 164.707 174.254 165.012 173.938 165.328 173.652 165.645 173.371 165.957 173.105 166.266 172.863 166.578 172.621 166.859 172.379 167.109 172.141 167.359 171.895 167.559 171.641 167.715 171.379 167.867 171.109 167.945 170.809 167.945 170.473 167.945 170.238 167.91 170.035 167.84 169.855 167.77 169.68 167.668 169.527 167.535 169.41 167.402 169.289 167.242 169.195 167.059 169.137 166.871 169.074 166.668 169.047 166.441 169.047 166.23 169.047 166.031 169.074 165.844 169.133 165.66 169.191 165.496 169.277 165.348 169.395 165.207 169.512 165.086 169.66 164.996 169.832 164.902 170.008 164.844 170.207 164.816 170.438L163.738 170.34C163.773 170.043 163.855 169.766 163.984 169.504 164.113 169.238 164.289 169.012 164.516 168.812 164.746 168.613 165.016 168.461 165.336 168.348 165.652 168.234 166.023 168.176 166.441 168.176 166.852 168.176 167.215 168.227 167.535 168.324 167.855 168.422 168.125 168.566 168.348 168.758 168.566 168.949 168.738 169.188 168.855 169.469 168.973 169.75 169.031 170.07 169.031 170.438 169.031 170.715 168.98 170.98 168.879 171.23 168.781 171.48 168.648 171.719 168.48 171.945 168.316 172.172 168.125 172.391 167.906 172.602 167.688 172.812 167.457 173.016 167.219 173.219 166.98 173.422 166.742 173.621 166.5 173.816 166.258 174.016 166.027 174.215 165.816 174.414 165.602 174.613 165.41 174.812 165.246 175.02 165.078 175.223 164.945 175.438 164.852 175.66H169.16V176.555ZM163.691 176.555" fill="#262626"/>
<path d="M175.965 172.426C175.965 173.219 175.891 173.887 175.742 174.426 175.59 174.969 175.387 175.406 175.125 175.738 174.867 176.074 174.562 176.312 174.211 176.457 173.859 176.602 173.484 176.676 173.086 176.676 172.684 176.676 172.309 176.602 171.961 176.457 171.613 176.312 171.309 176.074 171.055 175.742 170.797 175.41 170.598 174.973 170.449 174.434 170.305 173.891 170.23 173.223 170.23 172.426 170.23 171.594 170.305 170.906 170.449 170.359 170.598 169.812 170.797 169.379 171.055 169.055 171.316 168.734 171.621 168.504 171.973 168.375 172.32 168.242 172.707 168.176 173.121 168.176 173.516 168.176 173.883 168.242 174.227 168.375 174.574 168.504 174.875 168.734 175.133 169.055 175.395 169.379 175.598 169.812 175.742 170.359 175.891 170.906 175.965 171.594 175.965 172.426ZM174.895 172.426C174.895 171.77 174.855 171.223 174.777 170.789 174.699 170.352 174.586 170.004 174.434 169.746 174.281 169.484 174.094 169.301 173.871 169.191 173.652 169.086 173.402 169.031 173.121 169.031 172.824 169.031 172.562 169.086 172.336 169.195 172.109 169.305 171.918 169.488 171.762 169.75 171.609 170.012 171.492 170.359 171.414 170.793 171.336 171.23 171.297 171.773 171.297 172.426 171.297 173.059 171.336 173.59 171.418 174.023 171.496 174.457 171.613 174.809 171.77 175.07 171.922 175.336 172.113 175.523 172.336 175.641 172.559 175.754 172.812 175.812 173.098 175.812 173.375 175.812 173.625 175.754 173.848 175.641 174.07 175.523 174.258 175.336 174.41 175.07 174.566 174.809 174.684 174.457 174.77 174.023 174.852 173.59 174.895 173.059 174.895 172.426ZM174.895 172.426" fill="#262626"/>
<path d="M100.73 193.191 98.742 190.156 96.738 193.191H95.41L98.043 189.391 95.535 185.797H96.895L98.742 188.672 100.57 185.797H101.945L99.438 189.375 102.102 193.191ZM100.73 193.191" fill="#262626"/>
<path d="M107.012 189.555C107.012 188.922 107.059 188.316 107.152 187.734 107.25 187.156 107.398 186.602 107.605 186.07 107.809 185.535 108.074 185.02 108.391 184.52 108.711 184.016 109.094 183.527 109.535 183.047H110.723C110.297 183.527 109.926 184.016 109.613 184.52 109.301 185.023 109.043 185.543 108.844 186.082 108.645 186.617 108.492 187.172 108.395 187.75 108.297 188.328 108.25 188.934 108.25 189.57 108.25 190.203 108.297 190.809 108.395 191.387 108.492 191.965 108.645 192.523 108.844 193.062 109.043 193.598 109.301 194.117 109.613 194.621 109.926 195.121 110.297 195.613 110.723 196.09H109.535C109.094 195.613 108.711 195.121 108.391 194.621 108.074 194.117 107.809 193.602 107.605 193.07 107.398 192.535 107.25 191.98 107.152 191.406 107.059 190.828 107.012 190.219 107.012 189.582ZM107.012 189.555" fill="#262626"/>
<path d="M116.055 193.191V188.5C116.055 188.141 116.031 187.84 115.988 187.602 115.941 187.359 115.867 187.164 115.758 187.016 115.652 186.867 115.512 186.762 115.336 186.703 115.164 186.641 114.953 186.609 114.703 186.609 114.441 186.609 114.207 186.66 113.996 186.762 113.789 186.863 113.609 187.012 113.461 187.207 113.312 187.402 113.199 187.641 113.121 187.926 113.039 188.207 113 188.535 113 188.906V193.191H111.777V187.375C111.777 187.219 111.773 187.055 111.773 186.887 111.77 186.715 111.766 186.555 111.762 186.402 111.758 186.25 111.754 186.117 111.75 186.008 111.742 185.898 111.738 185.828 111.734 185.797H112.898C112.902 185.816 112.906 185.879 112.91 185.98 112.914 186.082 112.922 186.195 112.926 186.324 112.934 186.457 112.941 186.586 112.945 186.723 112.949 186.855 112.953 186.969 112.953 187.059H112.973C113.082 186.848 113.199 186.652 113.328 186.477 113.457 186.305 113.605 186.16 113.777 186.039 113.945 185.918 114.141 185.824 114.363 185.758 114.582 185.691 114.84 185.656 115.133 185.656 115.695 185.656 116.137 185.77 116.461 185.992 116.789 186.215 117.016 186.57 117.141 187.059H117.164C117.273 186.848 117.395 186.652 117.531 186.477 117.668 186.305 117.828 186.16 118.012 186.039 118.191 185.918 118.398 185.824 118.625 185.758 118.852 185.691 119.113 185.656 119.406 185.656 119.777 185.656 120.102 185.707 120.371 185.809 120.641 185.91 120.863 186.066 121.039 186.273 121.211 186.484 121.34 186.754 121.422 187.086 121.504 187.414 121.543 187.809 121.543 188.262V193.191H120.328V188.5C120.328 188.141 120.305 187.84 120.258 187.602 120.215 187.359 120.137 187.164 120.031 187.016 119.922 186.867 119.785 186.762 119.609 186.703 119.438 186.641 119.223 186.609 118.973 186.609 118.715 186.609 118.48 186.66 118.27 186.758 118.062 186.855 117.883 187 117.734 187.188 117.586 187.379 117.473 187.621 117.391 187.906 117.312 188.195 117.273 188.527 117.273 188.906V193.191ZM116.055 193.191" fill="#262626"/>
<path d="M126.262 189.582C126.262 190.219 126.211 190.828 126.117 191.406 126.02 191.98 125.871 192.535 125.664 193.07 125.461 193.602 125.199 194.117 124.879 194.621 124.562 195.121 124.18 195.613 123.738 196.09H122.551C122.977 195.613 123.348 195.121 123.66 194.621 123.973 194.117 124.227 193.598 124.426 193.062 124.629 192.523 124.777 191.965 124.875 191.387 124.977 190.809 125.023 190.203 125.023 189.57 125.023 188.934 124.977 188.328 124.875 187.75 124.777 187.172 124.629 186.617 124.426 186.082 124.227 185.543 123.973 185.023 123.66 184.52 123.348 184.016 122.977 183.527 122.551 183.047H123.738C124.18 183.527 124.562 184.016 124.879 184.52 125.199 185.02 125.461 185.535 125.664 186.07 125.871 186.602 126.02 187.156 126.117 187.734 126.211 188.316 126.262 188.922 126.262 189.555ZM126.262 189.582" fill="#262626"/>
<g clip-path="url(#clip_10)">
<g clip-path="url(#clip_11)">
<path stroke-width=".8" stroke-linecap="round" stroke-linejoin="round" fill="none" stroke="#cccccc" d="M40.906 150.703H181.477"/>
</g>
</g>
<path d="M17.645 150.637H23.473V151.49199H17.645Z" fill="#262626"/>
<path d="M24.973 155.055V154.156H27.074V147.805L25.215 149.137V148.137L27.164 146.797H28.137V154.156H30.148V155.055ZM24.973 155.055" fill="#262626"/>
<path d="M36.938 150.922C36.938 151.715 36.863 152.383 36.711 152.922 36.562 153.465 36.355 153.902 36.098 154.234 35.836 154.57 35.531 154.809 35.18 154.953 34.828 155.098 34.453 155.172 34.055 155.172 33.652 155.172 33.277 155.098 32.93 154.953 32.582 154.809 32.281 154.57 32.023 154.238 31.77 153.906 31.566 153.469 31.422 152.93 31.273 152.387 31.199 151.719 31.199 150.922 31.199 150.09 31.273 149.402 31.422 148.855 31.566 148.312 31.77 147.875 32.027 147.555 32.285 147.23 32.59 147 32.941 146.871 33.293 146.738 33.676 146.672 34.09 146.672 34.484 146.672 34.852 146.738 35.199 146.871 35.543 147 35.848 147.23 36.105 147.555 36.363 147.875 36.566 148.312 36.715 148.855 36.863 149.402 36.938 150.09 36.938 150.922ZM35.867 150.922C35.867 150.266 35.828 149.719 35.746 149.285 35.672 148.848 35.555 148.5 35.402 148.242 35.25 147.98 35.062 147.797 34.844 147.691 34.621 147.582 34.371 147.527 34.09 147.527 33.793 147.527 33.531 147.582 33.305 147.695 33.078 147.801 32.887 147.988 32.734 148.246 32.578 148.508 32.461 148.855 32.383 149.293 32.305 149.727 32.27 150.27 32.27 150.922 32.27 151.555 32.309 152.09 32.387 152.523 32.469 152.957 32.586 153.305 32.738 153.566 32.895 153.832 33.082 154.02 33.305 154.137 33.527 154.25 33.781 154.309 34.066 154.309 34.344 154.309 34.594 154.25 34.816 154.137 35.039 154.02 35.227 153.832 35.379 153.566 35.535 153.305 35.656 152.957 35.738 152.523 35.824 152.09 35.867 151.555 35.867 150.922ZM35.867 150.922" fill="#262626"/>
<g clip-path="url(#clip_12)">
<g clip-path="url(#clip_13)">
<path stroke-width=".8" stroke-linecap="round" stroke-linejoin="round" fill="none" stroke="#cccccc" d="M40.906 116.566H181.477"/>
</g>
</g>
<path d="M24.316 116.5H30.144001V117.352H24.316Z" fill="#262626"/>
<path d="M36.902 118.227C36.902 118.641 36.84 119.02 36.715 119.363 36.59 119.707 36.402 120.004 36.156 120.25 35.91 120.5 35.605 120.691 35.242 120.828 34.875 120.965 34.453 121.035 33.973 121.035 33.539 121.035 33.16 120.984 32.836 120.883 32.516 120.781 32.242 120.641 32.02 120.461 31.797 120.285 31.621 120.078 31.488 119.836 31.359 119.598 31.266 119.344 31.211 119.07L32.277 118.945C32.32 119.102 32.383 119.254 32.457 119.402 32.539 119.547 32.645 119.68 32.777 119.793 32.914 119.91 33.082 120 33.277 120.07 33.477 120.137 33.715 120.172 33.996 120.172 34.27 120.172 34.516 120.129 34.738 120.047 34.961 119.961 35.152 119.84 35.309 119.676 35.469 119.508 35.59 119.309 35.676 119.07 35.762 118.832 35.805 118.559 35.805 118.25 35.805 117.996 35.766 117.762 35.68 117.551 35.602 117.336 35.484 117.152 35.332 117 35.18 116.844 34.992 116.723 34.77 116.641 34.551 116.551 34.301 116.508 34.02 116.508 33.844 116.508 33.68 116.523 33.531 116.555 33.383 116.586 33.246 116.629 33.117 116.688 32.992 116.738 32.879 116.801 32.773 116.875 32.668 116.949 32.574 117.023 32.484 117.102H31.453L31.727 112.66H36.422V113.555H32.688L32.531 116.176C32.719 116.031 32.953 115.906 33.234 115.805 33.516 115.699 33.848 115.648 34.234 115.648 34.645 115.648 35.016 115.711 35.344 115.836 35.672 115.961 35.949 116.137 36.18 116.367 36.41 116.594 36.59 116.867 36.715 117.184 36.84 117.5 36.902 117.848 36.902 118.227ZM36.902 118.227" fill="#262626"/>
<g clip-path="url(#clip_14)">
<g clip-path="url(#clip_15)">
<path stroke-width=".8" stroke-linecap="round" stroke-linejoin="round" fill="none" stroke="#cccccc" d="M40.906 82.43H181.477"/>
</g>
</g>
<path d="M36.938 82.648C36.938 83.441 36.863 84.105 36.711 84.648 36.562 85.188 36.355 85.625 36.098 85.961 35.836 86.293 35.531 86.535 35.18 86.68 34.828 86.824 34.453 86.895 34.055 86.895 33.652 86.895 33.277 86.824 32.93 86.68 32.582 86.535 32.281 86.297 32.023 85.965 31.77 85.633 31.566 85.195 31.422 84.652 31.273 84.113 31.203 83.445 31.203 82.648 31.203 81.816 31.273 81.125 31.422 80.582 31.566 80.035 31.77 79.602 32.027 79.277 32.285 78.953 32.59 78.727 32.941 78.594 33.293 78.465 33.676 78.398 34.09 78.398 34.484 78.398 34.855 78.465 35.199 78.594 35.547 78.727 35.848 78.953 36.105 79.277 36.363 79.602 36.566 80.035 36.715 80.582 36.863 81.125 36.938 81.816 36.938 82.648ZM35.867 82.648C35.867 81.992 35.828 81.445 35.75 81.012 35.672 80.574 35.555 80.227 35.402 79.965 35.25 79.707 35.062 79.523 34.844 79.414 34.621 79.309 34.371 79.254 34.09 79.254 33.793 79.254 33.531 79.309 33.305 79.418 33.078 79.527 32.887 79.711 32.734 79.973 32.578 80.23 32.465 80.578 32.383 81.016 32.309 81.453 32.27 81.996 32.27 82.648 32.27 83.281 32.309 83.812 32.387 84.246 32.469 84.68 32.586 85.031 32.738 85.293 32.895 85.559 33.082 85.746 33.305 85.859 33.527 85.977 33.781 86.035 34.066 86.035 34.344 86.035 34.594 85.977 34.816 85.859 35.039 85.746 35.227 85.559 35.379 85.293 35.535 85.031 35.656 84.68 35.738 84.246 35.824 83.812 35.867 83.281 35.867 82.648ZM35.867 82.648" fill="#262626"/>
<g clip-path="url(#clip_16)">
<g clip-path="url(#clip_17)">
<path stroke-width=".8" stroke-linecap="round" stroke-linejoin="round" fill="none" stroke="#cccccc" d="M40.906 48.293H181.477"/>
</g>
</g>
<path d="M36.902 49.953C36.902 50.367 36.84 50.746 36.715 51.09 36.59 51.434 36.406 51.727 36.16 51.977 35.914 52.223 35.605 52.418 35.242 52.555 34.875 52.691 34.453 52.758 33.973 52.758 33.539 52.758 33.16 52.707 32.84 52.605 32.516 52.504 32.246 52.363 32.02 52.188 31.797 52.008 31.621 51.801 31.488 51.562 31.359 51.324 31.266 51.066 31.211 50.797L32.281 50.672C32.32 50.828 32.383 50.98 32.461 51.125 32.539 51.273 32.645 51.402 32.781 51.52 32.914 51.633 33.082 51.727 33.277 51.797 33.477 51.863 33.715 51.895 33.996 51.895 34.27 51.895 34.516 51.855 34.738 51.77 34.965 51.688 35.152 51.562 35.312 51.398 35.469 51.234 35.594 51.031 35.676 50.797 35.762 50.559 35.805 50.281 35.805 49.973 35.805 49.719 35.766 49.488 35.684 49.273 35.602 49.062 35.484 48.879 35.332 48.723 35.18 48.57 34.992 48.449 34.77 48.363 34.551 48.277 34.301 48.234 34.02 48.234 33.844 48.234 33.684 48.25 33.535 48.281 33.387 48.312 33.246 48.355 33.121 48.41 32.992 48.465 32.879 48.527 32.773 48.602 32.672 48.672 32.574 48.75 32.484 48.828H31.453L31.727 44.387H36.422V45.281H32.691L32.531 47.902C32.719 47.754 32.953 47.633 33.234 47.531 33.516 47.426 33.848 47.375 34.238 47.375 34.648 47.375 35.016 47.438 35.344 47.562 35.672 47.688 35.953 47.863 36.18 48.094 36.414 48.32 36.59 48.59 36.715 48.906 36.84 49.223 36.902 49.57 36.902 49.953ZM36.902 49.953" fill="#262626"/>
<g clip-path="url(#clip_18)">
<g clip-path="url(#clip_19)">
<path stroke-width=".8" stroke-linecap="round" stroke-linejoin="round" fill="none" stroke="#cccccc" d="M40.906 14.156H181.477"/>
</g>
</g>
<path d="M24.973 18.504V17.605H27.078V11.254L25.215 12.586V11.59L27.164 10.246H28.137V17.605H30.148V18.504ZM24.973 18.504" fill="#262626"/>
<path d="M36.938 14.371C36.938 15.164 36.863 15.832 36.711 16.375 36.562 16.914 36.359 17.352 36.098 17.688 35.836 18.02 35.531 18.258 35.18 18.402 34.828 18.547 34.453 18.621 34.055 18.621 33.652 18.621 33.277 18.547 32.93 18.402 32.582 18.258 32.281 18.02 32.023 17.688 31.77 17.355 31.566 16.922 31.422 16.379 31.273 15.836 31.203 15.168 31.203 14.371 31.203 13.539 31.273 12.852 31.422 12.305 31.566 11.762 31.77 11.328 32.027 11.004 32.285 10.68 32.59 10.453 32.941 10.32 33.293 10.188 33.676 10.125 34.09 10.125 34.484 10.125 34.855 10.188 35.199 10.32 35.547 10.453 35.848 10.68 36.105 11.004 36.363 11.328 36.566 11.762 36.715 12.305 36.863 12.852 36.938 13.539 36.938 14.371ZM35.867 14.371C35.867 13.715 35.828 13.172 35.75 12.734 35.672 12.301 35.555 11.953 35.402 11.691 35.25 11.43 35.062 11.246 34.844 11.141 34.625 11.031 34.371 10.98 34.09 10.98 33.793 10.98 33.531 11.035 33.305 11.145 33.078 11.254 32.891 11.438 32.734 11.695 32.578 11.957 32.465 12.305 32.387 12.742 32.309 13.176 32.27 13.719 32.27 14.371 32.27 15.004 32.309 15.539 32.391 15.973 32.469 16.406 32.586 16.754 32.738 17.02 32.895 17.281 33.082 17.473 33.305 17.586 33.527 17.703 33.781 17.758 34.066 17.758 34.344 17.758 34.594 17.703 34.816 17.586 35.039 17.473 35.227 17.281 35.383 17.02 35.535 16.754 35.656 16.406 35.738 15.973 35.824 15.539 35.867 15.004 35.867 14.371ZM35.867 14.371" fill="#262626"/>
<path d="M10.145 94.238C10.594 94.41 10.992 94.586 11.352 94.77 11.711 94.949 12.016 95.148 12.266 95.371 12.52 95.594 12.715 95.844 12.848 96.117 12.984 96.391 13.051 96.707 13.051 97.062 13.051 97.215 13.047 97.359 13.039 97.492 13.027 97.625 13.008 97.766 12.977 97.91H12.055C12.066 97.824 12.078 97.723 12.082 97.613 12.09 97.504 12.094 97.41 12.094 97.336 12.094 96.973 11.961 96.641 11.691 96.332 11.422 96.02 10.992 95.75 10.406 95.516L10.109 95.402 2.75 98.332V97.02L6.836 95.461C6.961 95.418 7.125 95.359 7.332 95.289 7.535 95.219 7.738 95.148 7.945 95.078 8.148 95.004 8.332 94.941 8.5 94.891 8.66 94.832 8.766 94.801 8.805 94.793 8.754 94.777 8.656 94.746 8.508 94.691 8.359 94.641 8.195 94.582 8.012 94.516 7.832 94.449 7.645 94.383 7.461 94.312 7.273 94.246 7.109 94.188 6.973 94.145L2.75 92.691V91.395ZM10.145 94.238" fill="#262626"/>
<path d="M6.508 86.609C5.875 86.609 5.27 86.562 4.691 86.465 4.109 86.371 3.555 86.219 3.023 86.016 2.488 85.809 1.973 85.547 1.473 85.23 .969 84.91 .48 84.527 0 84.086V82.898C.48 83.324 .973 83.695 1.473 84.008 1.977 84.32 2.496 84.578 3.035 84.777 3.57 84.977 4.125 85.125 4.707 85.223 5.281 85.32 5.891 85.371 6.523 85.371 7.156 85.371 7.762 85.32 8.34 85.223 8.918 85.125 9.477 84.977 10.016 84.777 10.555 84.578 11.074 84.32 11.574 84.008 12.074 83.695 12.566 83.324 13.043 82.898V84.086C12.566 84.527 12.074 84.91 11.574 85.23 11.074 85.547 10.555 85.809 10.023 86.016 9.488 86.219 8.934 86.371 8.359 86.465 7.781 86.562 7.172 86.609 6.535 86.609ZM6.508 86.609" fill="#262626"/>
<path d="M10.145 77.566H5.457C5.094 77.566 4.797 77.586 4.555 77.633 4.312 77.68 4.117 77.754 3.969 77.863 3.82 77.969 3.715 78.109 3.656 78.281 3.594 78.457 3.562 78.668 3.562 78.918 3.562 79.18 3.613 79.414 3.715 79.625 3.82 79.832 3.965 80.012 4.16 80.16 4.355 80.309 4.594 80.422 4.879 80.5 5.164 80.582 5.488 80.621 5.859 80.621H10.145V81.844H4.328C4.172 81.844 4.008 81.844 3.84 81.848 3.668 81.852 3.508 81.852 3.355 81.859 3.203 81.863 3.07 81.867 2.961 81.871 2.852 81.875 2.781 81.883 2.75 81.887V80.723C2.773 80.719 2.832 80.715 2.934 80.711 3.035 80.703 3.148 80.699 3.277 80.695 3.41 80.688 3.539 80.68 3.676 80.676 3.809 80.672 3.922 80.668 4.016 80.668V80.648C3.801 80.539 3.605 80.422 3.434 80.293 3.258 80.164 3.113 80.016 2.992 79.844 2.871 79.676 2.777 79.48 2.711 79.258 2.645 79.035 2.613 78.781 2.613 78.488 2.613 77.926 2.723 77.484 2.945 77.16 3.168 76.832 3.527 76.605 4.016 76.477V76.457C3.801 76.348 3.605 76.227 3.434 76.09 3.258 75.953 3.113 75.793 2.992 75.609 2.871 75.426 2.777 75.223 2.711 74.996 2.645 74.766 2.613 74.508 2.613 74.215 2.613 73.84 2.664 73.52 2.762 73.25 2.863 72.977 3.02 72.754 3.23 72.582 3.438 72.41 3.707 72.281 4.039 72.199 4.367 72.117 4.762 72.078 5.219 72.078H10.145V73.293H5.457C5.094 73.293 4.797 73.316 4.555 73.359 4.312 73.406 4.117 73.484 3.969 73.59 3.82 73.695 3.715 73.836 3.656 74.012 3.594 74.184 3.562 74.395 3.562 74.648 3.562 74.906 3.613 75.141 3.711 75.352 3.809 75.559 3.953 75.738 4.145 75.887 4.336 76.035 4.574 76.148 4.859 76.23 5.148 76.309 5.48 76.348 5.859 76.348H10.145ZM10.145 77.566" fill="#262626"/>
<path d="M6.535 67.359C7.172 67.359 7.781 67.406 8.359 67.504 8.934 67.598 9.488 67.75 10.023 67.953 10.555 68.16 11.074 68.422 11.574 68.742 12.074 69.059 12.566 69.441 13.043 69.883V71.07C12.566 70.645 12.074 70.273 11.574 69.961 11.074 69.648 10.555 69.395 10.016 69.191 9.477 68.992 8.918 68.844 8.34 68.746 7.762 68.645 7.156 68.598 6.523 68.598 5.891 68.598 5.281 68.645 4.707 68.746 4.125 68.844 3.57 68.992 3.035 69.191 2.496 69.395 1.977 69.648 1.473 69.961 .973 70.273 .48 70.645 0 71.07V69.883C.48 69.441 .969 69.059 1.473 68.742 1.973 68.422 2.488 68.16 3.023 67.953 3.555 67.75 4.109 67.598 4.691 67.504 5.27 67.406 5.875 67.359 6.508 67.359ZM6.535 67.359" fill="#262626"/>
<g clip-path="url(#clip_20)">
<g clip-path="url(#clip_21)">
<path d="M52.621 87.43C53.945 87.43 55.219 86.902 56.156 85.965 57.094 85.027 57.621 83.758 57.621 82.43 57.621 81.105 57.094 79.832 56.156 78.895 55.219 77.957 53.945 77.43 52.621 77.43 51.293 77.43 50.023 77.957 49.086 78.895 48.148 79.832 47.621 81.105 47.621 82.43 47.621 83.758 48.148 85.027 49.086 85.965 50.023 86.902 51.293 87.43 52.621 87.43ZM52.621 87.43" fill="#ffff00"/>
<path stroke-width="1" stroke-linecap="butt" stroke-linejoin="round" fill="none" stroke="#000000" d="M52.621 87.43C53.945 87.43 55.219 86.902 56.156 85.965 57.094 85.027 57.621 83.758 57.621 82.43 57.621 81.105 57.094 79.832 56.156 78.895 55.219 77.957 53.945 77.43 52.621 77.43 51.293 77.43 50.023 77.957 49.086 78.895 48.148 79.832 47.621 81.105 47.621 82.43 47.621 83.758 48.148 85.027 49.086 85.965 50.023 86.902 51.293 87.43 52.621 87.43ZM52.621 87.43"/>
</g>
<g clip-path="url(#clip_22)">
<path d="M169.762 19.156C171.086 19.156 172.359 18.629 173.297 17.691 174.234 16.754 174.762 15.48 174.762 14.156 174.762 12.828 174.234 11.559 173.297 10.621 172.359 9.684 171.086 9.156 169.762 9.156 168.434 9.156 167.164 9.684 166.227 10.621 165.289 11.559 164.762 12.828 164.762 14.156 164.762 15.48 165.289 16.754 166.227 17.691 167.164 18.629 168.434 19.156 169.762 19.156ZM169.762 19.156" fill="#800080"/>
<path stroke-width="1" stroke-linecap="butt" stroke-linejoin="round" fill="none" stroke="#000000" d="M169.762 19.156C171.086 19.156 172.359 18.629 173.297 17.691 174.234 16.754 174.762 15.48 174.762 14.156 174.762 12.828 174.234 11.559 173.297 10.621 172.359 9.684 171.086 9.156 169.762 9.156 168.434 9.156 167.164 9.684 166.227 10.621 165.289 11.559 164.762 12.828 164.762 14.156 164.762 15.48 165.289 16.754 166.227 17.691 167.164 18.629 168.434 19.156 169.762 19.156ZM169.762 19.156"/>
</g>
<g clip-path="url(#clip_23)">
<path d="M169.762 155.703C171.086 155.703 172.359 155.18 173.297 154.242 174.234 153.305 174.762 152.031 174.762 150.703 174.762 149.379 174.234 148.105 173.297 147.168 172.359 146.23 171.086 145.703 169.762 145.703 168.434 145.703 167.164 146.23 166.227 147.168 165.289 148.105 164.762 149.379 164.762 150.703 164.762 152.031 165.289 153.305 166.227 154.242 167.164 155.18 168.434 155.703 169.762 155.703ZM169.762 155.703" fill="#ff00ff"/>
<path stroke-width="1" stroke-linecap="butt" stroke-linejoin="round" fill="none" stroke="#000000" d="M169.762 155.703C171.086 155.703 172.359 155.18 173.297 154.242 174.234 153.305 174.762 152.031 174.762 150.703 174.762 149.379 174.234 148.105 173.297 147.168 172.359 146.23 171.086 145.703 169.762 145.703 168.434 145.703 167.164 146.23 166.227 147.168 165.289 148.105 164.762 149.379 164.762 150.703 164.762 152.031 165.289 153.305 166.227 154.242 167.164 155.18 168.434 155.703 169.762 155.703ZM169.762 155.703"/>
</g>
<g clip-path="url(#clip_24)">
<path stroke-width="3" stroke-linecap="round" stroke-linejoin="round" fill="none" stroke="#ff0000" d="M52.621 82.43 57.207 82.508 59.055 82.848 61.648 84.004 64.129 85.266 66.168 86.566 69.512 88.5 72.914 90.25 75.43 91.707 76.68 92.387 82.312 96.125 84.41 97.309 97.551 104.797 100.508 106.438 102.535 107.508 107.293 109.781 110.195 111.441 113.406 113.422 118.707 116.738 120.406 117.617 138.742 129.281 141.395 131.336 143.648 133.102 147.621 135.805 150.02 137.324 153.449 139.762 156.969 141.922 158.504 142.91 166.516 148.77"/>
</g>
<g clip-path="url(#clip_25)">
<path stroke-width="2" stroke-linecap="round" stroke-linejoin="round" fill="none" stroke="#440154" d="M52.621 82.43 57.105 82.5 59.438 82.812 60.344 83.027 63.395 84.203 74.496 89.512 77.891 91.227 86.031 94.93 89.391 96.699 93.508 99.02 106.73 106.66 108.418 107.48 111.641 109.48 113.598 110.895 115.824 112.809 119.41 115.32 122.203 117.211 124.621 118.734 134.047 125.637 136.402 127.32 138.719 128.996 143.465 132.234 145.367 133.707 148.941 136.066 152.848 138.91 154.438 139.965 156.418 141.16 158.93 142.973 166.137 148.562"/>
</g>
<g clip-path="url(#clip_26)">
<path stroke-width="2" stroke-linecap="round" stroke-linejoin="round" fill="none" stroke="#453781" d="M53.602 82.453 56.176 82.504 60.742 82.598 62.965 82.996 65.594 83.793 71.574 85.859 74.207 86.648 83.031 88.688 85.039 89.215 88.57 90.164 89.836 90.555 93.219 91.609 97.949 93.676 105.293 97.691 109.875 100.25 111.762 101.531 114.578 103.176 119.023 106.379 121.566 108.031 125.812 110.855 128.426 113.113 131.762 115.852 137.332 120.41 143.891 125.309 145.793 127 149.188 130.328 151.434 132.438 162.281 141.84 162.93 142.59 166.672 147.84"/>
</g>
<g clip-path="url(#clip_27)">
<path stroke-width="2" stroke-linecap="round" stroke-linejoin="round" fill="none" stroke="#32648e" d="M53.766 82.395 58.953 82.332 62.965 82.801 67.391 82.93 71.793 83.074 73.965 83.328 79.777 84.391 89.492 85.738 100.055 88.031 104.41 89.406 107.566 90.883 109.879 91.848 113.359 93.004 118.398 95.656 120.562 96.855 123.383 98.727 125.531 100.262 127.148 101.27 128.574 102.457 130.512 104.305 131.945 105.359 133.527 106.43 135.922 108.379 142.738 115.066 145.359 117.621 149.109 121.215 151.246 123.977 153.832 127.488 157.328 132.094 160.723 137.199 165.355 143.555 167.746 147.508"/>
</g>
<g clip-path="url(#clip_28)">
<path stroke-width="2" stroke-linecap="round" stroke-linejoin="round" fill="none" stroke="#228b8d" d="M52.621 82.43 62.234 82.527 68.648 82.66 70.938 82.719 76.965 82.785 79.688 82.871 93.613 83.258 108.418 83.293 110.703 83.383 116.527 83.254 118.945 83.414 122.582 83.699 124.992 83.922 129.184 84.672 130.703 85.098 131.973 85.734 134.574 86.961 136.414 87.828 137.645 88.582 142.555 91.461 148.195 95.125 150.484 96.699 152.855 99.043 154.801 101.309 158.332 106.656 159.414 108.676 161.352 112.742 162.539 114.793 163.637 117.531 166.445 124.754 167.906 128.855 168.816 131.594 169.137 133 170.262 139.941 170.77 143.281 170.723 145.633 170.523 146.723"/>
</g>
<g clip-path="url(#clip_29)">
<path stroke-width="2" stroke-linecap="round" stroke-linejoin="round" fill="none" stroke="#2cb17e" d="M52.621 82.43 59.352 82.328 70.105 81.824 76.91 81.266 78.723 81.086 82.688 81.031 89.824 80.594 97.113 80.43 101.047 80.188 107.812 79.391 110.059 79.035 113.656 78.781 117.371 78.383 120.121 78.113 123.586 78.238 128.82 78.402 130.293 78.406 131.469 78.434H132.984L134.77 78.316 136.977 78.031 139.113 77.758 145.363 78.055 149.004 78.766 150.41 78.98 156.02 79.828 158.004 80.172 160.117 80.297 163.312 81.348"/>
</g>
<g clip-path="url(#clip_30)">
<path stroke-width="2" stroke-linecap="round" stroke-linejoin="round" fill="none" stroke="#7ad151" d="M52.621 82.43 58.113 82.34 60.332 82.094 68.879 81.062 71.633 80.805 75.691 80.113 78.438 79.625 87.309 78.172 91.469 77.43 95.297 76.48 99.043 75.383 103.305 74.375 109.82 71.934 116.641 69.172 122.664 66.824 128.129 63.801 136.086 59.082 141.473 56.457 146.969 53.059 152.129 50.176 153.523 49.496 153.805 49.305 155.703 47.43 157.707 45.461 163.145 40.961 164.348 39.66 167.656 35.34 171.461 31.184 173.215 29.723 177.762 27.422"/>
</g>
<g clip-path="url(#clip_31)">
<path stroke-width="3" stroke-linecap="round" stroke-linejoin="round" fill="none" stroke="#000000" d="M52.621 82.43H54.359L55.305 82.477 56.797 82.848 57.801 83.434 58.168 83.73 59.02 84.738 60.152 86.656 61.969 90.418 64.488 95.422 67.457 100.219 69.691 103.336 72.852 107.141 74.707 109.109 78.266 112.605 81.805 115.469 92.629 123.148 96.953 125.859 98.488 126.578 108.418 130.797 112.215 132.285 115.598 133.391 119.652 134.77 126.398 136.781 129.418 137.676 131.973 138.59 134.422 139.34 138.691 140.938 145.465 142.812 150.453 144.176 154.629 145.566 156.953 146.289 160.07 147.383 162.336 148.133 165.941 149.543"/>
</g>
</g>
<path stroke-width="1" stroke-linecap="square" stroke-miterlimit="4" stroke-linejoin="miter" fill="none" stroke="#cccccc" d="M40.906 164.359V.5"/>
<path stroke-width="1" stroke-linecap="square" stroke-miterlimit="4" stroke-linejoin="miter" fill="none" stroke="#cccccc" d="M181.477 164.359V.5"/>
<path stroke-width="1" stroke-linecap="square" stroke-miterlimit="4" stroke-linejoin="miter" fill="none" stroke="#cccccc" d="M40.906 164.359H181.477"/>
<path stroke-width="1" stroke-linecap="square" stroke-miterlimit="4" stroke-linejoin="miter" fill="none" stroke="#cccccc" d="M40.906 .5H181.477"/>
<path d="M208.074 67.324C209.402 67.324 210.672 66.797 211.609 65.859 212.547 64.922 213.074 63.652 213.074 62.324 213.074 61 212.547 59.727 211.609 58.789 210.672 57.852 209.402 57.324 208.074 57.324 206.75 57.324 205.477 57.852 204.539 58.789 203.602 59.727 203.074 61 203.074 62.324 203.074 63.652 203.602 64.922 204.539 65.859 205.477 66.797 206.75 67.324 208.074 67.324ZM208.074 67.324" fill="#ffff00"/>
<path stroke-width="1" stroke-linecap="butt" stroke-linejoin="round" fill="none" stroke="#000000" d="M208.074 67.324C209.402 67.324 210.672 66.797 211.609 65.859 212.547 64.922 213.074 63.652 213.074 62.324 213.074 61 212.547 59.727 211.609 58.789 210.672 57.852 209.402 57.324 208.074 57.324 206.75 57.324 205.477 57.852 204.539 58.789 203.602 59.727 203.074 61 203.074 62.324 203.074 63.652 203.602 64.922 204.539 65.859 205.477 66.797 206.75 67.324 208.074 67.324ZM208.074 67.324"/>
<path d="M241.973 63.34C241.973 63.746 241.891 64.121 241.734 64.461 241.578 64.805 241.336 65.098 241.008 65.348 240.68 65.598 240.266 65.789 239.766 65.93 239.266 66.066 238.676 66.137 237.992 66.137 236.793 66.137 235.859 65.926 235.191 65.508 234.52 65.086 234.094 64.48 233.914 63.691L235.176 63.438C235.242 63.688 235.34 63.914 235.469 64.121 235.602 64.324 235.781 64.5 236.004 64.648 236.23 64.797 236.512 64.914 236.844 64.996 237.176 65.078 237.574 65.117 238.039 65.117 238.43 65.117 238.785 65.086 239.109 65.02 239.43 64.953 239.711 64.852 239.941 64.715 240.172 64.578 240.355 64.402 240.484 64.188 240.613 63.969 240.68 63.711 240.68 63.41 240.68 63.094 240.605 62.84 240.465 62.645 240.32 62.445 240.117 62.285 239.859 62.16 239.598 62.031 239.289 61.922 238.93 61.836 238.57 61.75 238.172 61.656 237.734 61.559 237.465 61.496 237.195 61.434 236.922 61.363 236.652 61.289 236.391 61.207 236.145 61.109 235.895 61.012 235.664 60.895 235.445 60.766 235.227 60.633 235.035 60.473 234.875 60.289 234.715 60.102 234.59 59.887 234.5 59.645 234.406 59.402 234.363 59.121 234.363 58.801 234.363 58.344 234.453 57.957 234.637 57.629 234.824 57.305 235.082 57.035 235.41 56.824 235.738 56.617 236.125 56.465 236.57 56.367 237.02 56.273 237.5 56.223 238.02 56.223 238.617 56.223 239.125 56.27 239.551 56.363 239.973 56.457 240.332 56.598 240.625 56.785 240.914 56.973 241.148 57.203 241.324 57.48 241.5 57.754 241.641 58.074 241.746 58.441L240.461 58.664C240.398 58.434 240.305 58.223 240.184 58.043 240.062 57.859 239.902 57.707 239.707 57.586 239.512 57.461 239.273 57.367 238.992 57.305 238.715 57.238 238.387 57.207 238.008 57.207 237.559 57.207 237.184 57.25 236.879 57.328 236.578 57.41 236.336 57.516 236.148 57.656 235.965 57.789 235.836 57.949 235.754 58.137 235.676 58.32 235.633 58.52 235.633 58.734 235.633 59.02 235.707 59.258 235.848 59.441 235.992 59.625 236.188 59.777 236.434 59.902 236.68 60.027 236.965 60.129 237.289 60.211 237.609 60.293 237.957 60.375 238.32 60.457 238.617 60.523 238.91 60.594 239.207 60.664 239.5 60.734 239.781 60.82 240.051 60.918 240.32 61.016 240.57 61.133 240.805 61.266 241.039 61.395 241.242 61.555 241.418 61.746 241.59 61.938 241.727 62.164 241.824 62.426 241.922 62.684 241.973 62.988 241.973 63.34ZM241.973 63.34" fill="#262626"/>
<path d="M246.398 65.945C246.215 65.996 246.023 66.035 245.828 66.062 245.637 66.094 245.414 66.109 245.156 66.109 244.172 66.109 243.68 65.551 243.68 64.434V59.5H242.824V58.605H243.727L244.09 56.949H244.91V58.605H246.277V59.5H244.91V64.168C244.91 64.523 244.969 64.773 245.082 64.918 245.199 65.059 245.402 65.133 245.688 65.133 245.809 65.133 245.926 65.121 246.035 65.105 246.148 65.086 246.27 65.062 246.398 65.035ZM246.398 65.945" fill="#262626"/>
<path d="M249.332 66.137C248.59 66.137 248.031 65.941 247.656 65.551 247.285 65.156 247.098 64.617 247.098 63.934 247.098 63.449 247.191 63.047 247.375 62.734 247.559 62.426 247.801 62.18 248.098 62 248.398 61.824 248.738 61.699 249.121 61.633 249.504 61.562 249.895 61.523 250.289 61.516L251.953 61.488V61.086C251.953 60.781 251.922 60.52 251.855 60.305 251.793 60.09 251.695 59.918 251.562 59.789 251.43 59.656 251.266 59.559 251.066 59.496 250.867 59.434 250.633 59.402 250.367 59.402 250.129 59.402 249.914 59.418 249.723 59.453 249.531 59.488 249.367 59.551 249.223 59.637 249.082 59.727 248.969 59.848 248.883 60 248.797 60.152 248.738 60.348 248.711 60.578L247.426 60.465C247.473 60.172 247.559 59.902 247.684 59.66 247.812 59.414 247.996 59.203 248.23 59.027 248.465 58.852 248.758 58.711 249.109 58.613 249.465 58.516 249.891 58.465 250.391 58.465 251.324 58.465 252.023 58.68 252.492 59.105 252.961 59.531 253.195 60.148 253.195 60.957V64.141C253.195 64.504 253.242 64.781 253.34 64.965 253.434 65.148 253.617 65.242 253.887 65.242 253.953 65.242 254.023 65.234 254.09 65.227 254.16 65.219 254.227 65.207 254.289 65.191V65.957C254.133 65.996 253.98 66.023 253.828 66.039 253.676 66.059 253.512 66.066 253.34 66.066 253.105 66.066 252.906 66.035 252.742 65.977 252.574 65.914 252.441 65.82 252.336 65.695 252.23 65.57 252.148 65.414 252.094 65.23 252.039 65.047 252.008 64.832 251.992 64.586H251.953C251.82 64.82 251.676 65.035 251.516 65.227 251.359 65.418 251.176 65.582 250.965 65.715 250.758 65.848 250.52 65.953 250.254 66.027 249.984 66.102 249.68 66.137 249.332 66.137ZM249.613 65.215C250.008 65.215 250.348 65.145 250.641 65 250.938 64.855 251.18 64.672 251.371 64.449 251.566 64.223 251.711 63.98 251.809 63.715 251.902 63.453 251.953 63.199 251.953 62.957V62.348L250.605 62.379C250.305 62.383 250.02 62.402 249.746 62.441 249.477 62.48 249.238 62.555 249.031 62.672 248.828 62.785 248.664 62.945 248.543 63.148 248.422 63.355 248.363 63.621 248.363 63.957 248.363 64.359 248.469 64.668 248.688 64.887 248.902 65.105 249.211 65.215 249.613 65.215ZM249.613 65.215" fill="#262626"/>
<path d="M255.262 66V60.324C255.262 60.172 255.258 60.012 255.258 59.852 255.254 59.688 255.25 59.531 255.246 59.383 255.242 59.23 255.238 59.09 255.23 58.961 255.227 58.828 255.223 58.707 255.219 58.605H256.379C256.387 58.707 256.391 58.828 256.398 58.961 256.406 59.098 256.41 59.234 256.418 59.375 256.426 59.516 256.43 59.652 256.43 59.781 256.434 59.914 256.434 60.023 256.434 60.113H256.465C256.551 59.832 256.641 59.586 256.738 59.379 256.84 59.172 256.953 59 257.086 58.867 257.219 58.73 257.375 58.633 257.559 58.566 257.738 58.5 257.961 58.465 258.219 58.465 258.32 58.465 258.418 58.473 258.508 58.488 258.598 58.508 258.668 58.52 258.719 58.535V59.664C258.637 59.641 258.543 59.621 258.434 59.613 258.324 59.602 258.199 59.594 258.062 59.594 257.781 59.594 257.539 59.66 257.34 59.789 257.141 59.914 256.98 60.09 256.855 60.316 256.73 60.543 256.641 60.809 256.578 61.121 256.52 61.434 256.488 61.773 256.488 62.145V66ZM255.262 66" fill="#262626"/>
<path d="M262.738 65.945C262.551 65.996 262.359 66.035 262.168 66.062 261.973 66.094 261.75 66.109 261.496 66.109 260.512 66.109 260.02 65.551 260.02 64.434V59.5H259.164V58.605H260.066L260.43 56.949H261.25V58.605H262.617V59.5H261.25V64.168C261.25 64.523 261.305 64.773 261.422 64.918 261.539 65.059 261.738 65.133 262.027 65.133 262.148 65.133 262.262 65.121 262.371 65.105 262.484 65.086 262.605 65.062 262.738 65.035ZM262.738 65.945" fill="#262626"/>
<path d="M267.879 66V56.367H269.184V64.934H274.051V66ZM267.879 66" fill="#262626"/>
<path d="M281.715 62.293C281.715 63.59 281.43 64.555 280.859 65.188 280.289 65.82 279.465 66.137 278.379 66.137 277.863 66.137 277.406 66.059 276.996 65.906 276.594 65.75 276.25 65.512 275.969 65.191 275.688 64.875 275.477 64.473 275.328 63.992 275.18 63.512 275.105 62.945 275.105 62.293 275.105 59.742 276.211 58.465 278.418 58.465 278.992 58.465 279.488 58.547 279.906 58.707 280.324 58.867 280.664 59.105 280.934 59.426 281.199 59.742 281.398 60.141 281.523 60.621 281.652 61.098 281.715 61.656 281.715 62.293ZM280.422 62.293C280.422 61.719 280.379 61.246 280.289 60.871 280.199 60.5 280.07 60.199 279.898 59.977 279.73 59.754 279.52 59.598 279.273 59.508 279.027 59.422 278.75 59.375 278.441 59.375 278.125 59.375 277.844 59.422 277.59 59.516 277.336 59.609 277.121 59.77 276.941 59.996 276.766 60.219 276.629 60.52 276.535 60.895 276.441 61.266 276.395 61.734 276.395 62.293 276.395 62.867 276.445 63.344 276.547 63.719 276.648 64.098 276.785 64.395 276.961 64.621 277.137 64.844 277.344 65 277.582 65.094 277.824 65.184 278.082 65.227 278.363 65.227 278.68 65.227 278.965 65.184 279.219 65.094 279.477 65.004 279.691 64.848 279.871 64.625 280.047 64.402 280.184 64.102 280.277 63.727 280.375 63.344 280.422 62.867 280.422 62.293ZM280.422 62.293" fill="#262626"/>
<path d="M284.184 62.27C284.184 62.691 284.211 63.082 284.273 63.438 284.336 63.793 284.441 64.098 284.586 64.355 284.734 64.613 284.926 64.812 285.164 64.953 285.402 65.094 285.699 65.168 286.051 65.168 286.488 65.168 286.852 65.047 287.145 64.812 287.441 64.574 287.621 64.207 287.691 63.715L288.934 63.801C288.891 64.105 288.805 64.398 288.668 64.68 288.531 64.965 288.344 65.211 288.109 65.426 287.875 65.641 287.59 65.812 287.25 65.941 286.914 66.074 286.523 66.137 286.082 66.137 285.504 66.137 285.012 66.039 284.605 65.844 284.199 65.648 283.871 65.379 283.617 65.031 283.367 64.688 283.184 64.285 283.07 63.816 282.953 63.348 282.898 62.84 282.898 62.293 282.898 61.797 282.938 61.359 283.02 60.98 283.102 60.598 283.219 60.266 283.367 59.98 283.516 59.695 283.688 59.457 283.891 59.262 284.09 59.066 284.309 58.914 284.539 58.797 284.777 58.684 285.023 58.598 285.281 58.543 285.543 58.492 285.805 58.465 286.07 58.465 286.484 58.465 286.852 58.523 287.176 58.637 287.5 58.75 287.781 58.906 288.016 59.105 288.25 59.305 288.441 59.535 288.586 59.809 288.73 60.074 288.836 60.363 288.895 60.676L287.629 60.77C287.566 60.359 287.402 60.035 287.141 59.793 286.883 59.551 286.512 59.43 286.035 59.43 285.684 59.43 285.391 59.488 285.156 59.605 284.922 59.723 284.734 59.895 284.586 60.129 284.441 60.367 284.336 60.66 284.273 61.016 284.211 61.371 284.184 61.789 284.184 62.27ZM284.184 62.27" fill="#262626"/>
<path d="M292.133 66.137C291.391 66.137 290.832 65.941 290.457 65.551 290.086 65.156 289.898 64.617 289.898 63.934 289.898 63.449 289.988 63.047 290.172 62.734 290.359 62.426 290.602 62.18 290.898 62 291.195 61.824 291.539 61.699 291.918 61.633 292.305 61.562 292.691 61.523 293.09 61.516L294.754 61.488V61.086C294.754 60.781 294.719 60.52 294.656 60.305 294.59 60.09 294.492 59.918 294.359 59.789 294.23 59.656 294.062 59.559 293.867 59.496 293.668 59.434 293.434 59.402 293.168 59.402 292.93 59.402 292.715 59.418 292.523 59.453 292.332 59.488 292.164 59.551 292.023 59.637 291.883 59.727 291.77 59.848 291.68 60 291.594 60.152 291.539 60.348 291.512 60.578L290.227 60.465C290.27 60.172 290.355 59.902 290.484 59.66 290.613 59.414 290.793 59.203 291.027 59.027 291.266 58.852 291.559 58.711 291.91 58.613 292.262 58.516 292.691 58.465 293.191 58.465 294.121 58.465 294.82 58.68 295.289 59.105 295.758 59.531 295.996 60.148 295.996 60.957V64.141C295.996 64.504 296.043 64.781 296.141 64.965 296.234 65.148 296.418 65.242 296.688 65.242 296.754 65.242 296.824 65.234 296.891 65.227 296.961 65.219 297.027 65.207 297.09 65.191V65.957C296.934 65.996 296.781 66.023 296.625 66.039 296.477 66.059 296.312 66.066 296.141 66.066 295.906 66.066 295.707 66.035 295.543 65.977 295.375 65.914 295.238 65.82 295.137 65.695 295.031 65.57 294.949 65.414 294.895 65.23 294.84 65.047 294.805 64.832 294.793 64.586H294.754C294.621 64.82 294.473 65.035 294.316 65.227 294.16 65.418 293.977 65.582 293.766 65.715 293.559 65.848 293.32 65.953 293.051 66.027 292.785 66.102 292.48 66.137 292.133 66.137ZM292.414 65.215C292.805 65.215 293.148 65.145 293.441 65 293.734 64.855 293.98 64.672 294.172 64.449 294.367 64.223 294.512 63.98 294.609 63.715 294.703 63.453 294.754 63.199 294.754 62.957V62.348L293.406 62.379C293.105 62.383 292.816 62.402 292.547 62.441 292.277 62.48 292.039 62.555 291.832 62.672 291.629 62.785 291.465 62.945 291.344 63.148 291.223 63.355 291.164 63.621 291.164 63.957 291.164 64.359 291.27 64.668 291.484 64.887 291.703 65.105 292.012 65.215 292.414 65.215ZM292.414 65.215" fill="#262626"/>
<path d="M300.875 65.945C300.688 65.996 300.5 66.035 300.305 66.062 300.113 66.094 299.887 66.109 299.633 66.109 298.648 66.109 298.156 65.551 298.156 64.434V59.5H297.301V58.605H298.203L298.566 56.949H299.387V58.605H300.754V59.5H299.387V64.168C299.387 64.523 299.445 64.773 299.559 64.918 299.676 65.059 299.879 65.133 300.164 65.133 300.285 65.133 300.398 65.121 300.512 65.105 300.621 65.086 300.746 65.062 300.875 65.035ZM300.875 65.945" fill="#262626"/>
<path d="M301.914 57.031V55.855H303.148V57.031ZM301.914 66V58.605H303.148V66ZM301.914 66" fill="#262626"/>
<path d="M311.289 62.293C311.289 63.59 311.004 64.555 310.434 65.188 309.863 65.82 309.035 66.137 307.953 66.137 307.438 66.137 306.977 66.059 306.57 65.906 306.164 65.75 305.82 65.512 305.543 65.191 305.262 64.875 305.047 64.473 304.898 63.992 304.75 63.512 304.676 62.945 304.676 62.293 304.676 59.742 305.781 58.465 307.992 58.465 308.566 58.465 309.062 58.547 309.48 58.707 309.895 58.867 310.238 59.105 310.504 59.426 310.773 59.742 310.969 60.141 311.094 60.621 311.223 61.098 311.289 61.656 311.289 62.293ZM309.996 62.293C309.996 61.719 309.949 61.246 309.863 60.871 309.773 60.5 309.645 60.199 309.473 59.977 309.301 59.754 309.094 59.598 308.848 59.508 308.602 59.422 308.324 59.375 308.012 59.375 307.699 59.375 307.414 59.422 307.16 59.516 306.906 59.609 306.691 59.77 306.516 59.996 306.34 60.219 306.203 60.52 306.109 60.895 306.016 61.266 305.969 61.734 305.969 62.293 305.969 62.867 306.02 63.344 306.117 63.719 306.219 64.098 306.359 64.395 306.531 64.621 306.711 64.844 306.918 65 307.156 65.094 307.395 65.184 307.656 65.227 307.938 65.227 308.25 65.227 308.535 65.184 308.793 65.094 309.047 65.004 309.266 64.848 309.441 64.625 309.621 64.402 309.758 64.102 309.852 63.727 309.945 63.344 309.996 62.867 309.996 62.293ZM309.996 62.293" fill="#262626"/>
<path d="M317.516 66V61.309C317.516 60.949 317.488 60.648 317.438 60.41 317.383 60.168 317.297 59.973 317.18 59.824 317.062 59.676 316.906 59.57 316.711 59.508 316.52 59.449 316.277 59.418 315.988 59.418 315.699 59.418 315.434 59.469 315.199 59.57 314.965 59.672 314.766 59.82 314.598 60.016 314.434 60.207 314.305 60.449 314.211 60.73 314.121 61.016 314.074 61.344 314.074 61.715V66H312.848V60.184C312.848 60.027 312.844 59.863 312.844 59.691 312.84 59.523 312.836 59.363 312.832 59.211 312.828 59.055 312.824 58.926 312.816 58.816 312.812 58.707 312.809 58.637 312.805 58.605H313.965C313.973 58.625 313.977 58.688 313.98 58.789 313.984 58.887 313.992 59.004 313.996 59.133 314.004 59.262 314.012 59.395 314.016 59.527 314.02 59.664 314.02 59.777 314.02 59.867H314.043C314.16 59.652 314.289 59.461 314.434 59.285 314.574 59.113 314.738 58.965 314.926 58.848 315.109 58.727 315.324 58.633 315.566 58.566 315.809 58.5 316.09 58.465 316.406 58.465 316.816 58.465 317.172 58.516 317.465 58.617 317.762 58.719 318.008 58.871 318.195 59.082 318.391 59.293 318.531 59.562 318.621 59.891 318.707 60.223 318.754 60.613 318.754 61.07V66ZM317.516 66" fill="#262626"/>
<path d="M208.074 87.375C209.402 87.375 210.672 86.848 211.609 85.91 212.547 84.973 213.074 83.703 213.074 82.375 213.074 81.051 212.547 79.777 211.609 78.84 210.672 77.902 209.402 77.375 208.074 77.375 206.75 77.375 205.477 77.902 204.539 78.84 203.602 79.777 203.074 81.051 203.074 82.375 203.074 83.703 203.602 84.973 204.539 85.91 205.477 86.848 206.75 87.375 208.074 87.375ZM208.074 87.375" fill="#800080"/>
<path stroke-width="1" stroke-linecap="butt" stroke-linejoin="round" fill="none" stroke="#000000" d="M208.074 87.375C209.402 87.375 210.672 86.848 211.609 85.91 212.547 84.973 213.074 83.703 213.074 82.375 213.074 81.051 212.547 79.777 211.609 78.84 210.672 77.902 209.402 77.375 208.074 77.375 206.75 77.375 205.477 77.902 204.539 78.84 203.602 79.777 203.074 81.051 203.074 82.375 203.074 83.703 203.602 84.973 204.539 85.91 205.477 86.848 206.75 87.375 208.074 87.375ZM208.074 87.375"/>
<path d="M233.98 81.191C233.98 80.438 234.082 79.758 234.285 79.152 234.488 78.547 234.789 78.031 235.191 77.605 235.598 77.18 236.098 76.852 236.691 76.621 237.289 76.391 237.984 76.273 238.773 76.273 239.363 76.273 239.883 76.328 240.332 76.434 240.777 76.535 241.164 76.688 241.492 76.883 241.82 77.082 242.098 77.316 242.324 77.598 242.555 77.879 242.75 78.195 242.906 78.547L241.664 78.914C241.543 78.676 241.402 78.461 241.234 78.266 241.07 78.074 240.867 77.91 240.629 77.773 240.395 77.637 240.121 77.531 239.809 77.457 239.496 77.379 239.141 77.344 238.738 77.344 238.156 77.344 237.648 77.434 237.215 77.617 236.785 77.797 236.43 78.059 236.145 78.395 235.863 78.73 235.652 79.137 235.512 79.609 235.375 80.086 235.305 80.609 235.305 81.191 235.305 81.77 235.379 82.297 235.531 82.781 235.68 83.262 235.902 83.676 236.199 84.023 236.496 84.371 236.867 84.641 237.305 84.836 237.746 85.031 238.254 85.129 238.836 85.129 239.211 85.129 239.559 85.098 239.879 85.031 240.199 84.969 240.488 84.887 240.742 84.785 241 84.68 241.23 84.566 241.426 84.441 241.621 84.316 241.785 84.188 241.918 84.062V82.324H239.039V81.23H243.121V84.555C242.906 84.773 242.652 84.98 242.363 85.18 242.074 85.375 241.75 85.551 241.391 85.703 241.031 85.852 240.637 85.973 240.207 86.059 239.777 86.145 239.32 86.188 238.836 86.188 238.023 86.188 237.312 86.062 236.707 85.816 236.102 85.566 235.598 85.219 235.191 84.773 234.789 84.332 234.488 83.805 234.285 83.195 234.082 82.582 233.98 81.914 233.98 81.191ZM233.98 81.191" fill="#262626"/>
<path d="M251.363 82.344C251.363 83.641 251.078 84.605 250.508 85.238 249.938 85.871 249.113 86.188 248.027 86.188 247.512 86.188 247.055 86.109 246.645 85.957 246.242 85.801 245.898 85.562 245.617 85.242 245.336 84.922 245.125 84.523 244.977 84.043 244.828 83.562 244.754 82.996 244.754 82.344 244.754 79.793 245.859 78.516 248.066 78.516 248.641 78.516 249.137 78.598 249.555 78.758 249.973 78.918 250.312 79.156 250.582 79.477 250.848 79.793 251.047 80.191 251.172 80.672 251.301 81.148 251.363 81.707 251.363 82.344ZM250.07 82.344C250.07 81.77 250.027 81.297 249.938 80.922 249.848 80.551 249.719 80.25 249.547 80.027 249.379 79.805 249.168 79.648 248.922 79.559 248.676 79.473 248.398 79.426 248.09 79.426 247.773 79.426 247.492 79.473 247.238 79.566 246.984 79.66 246.77 79.82 246.59 80.047 246.414 80.27 246.277 80.57 246.184 80.945 246.09 81.316 246.043 81.785 246.043 82.344 246.043 82.918 246.094 83.395 246.195 83.77 246.297 84.148 246.434 84.445 246.609 84.672 246.785 84.895 246.992 85.051 247.23 85.141 247.473 85.234 247.73 85.277 248.012 85.277 248.328 85.277 248.613 85.234 248.867 85.145 249.125 85.055 249.34 84.898 249.52 84.676 249.695 84.453 249.832 84.152 249.926 83.773 250.023 83.395 250.07 82.918 250.07 82.344ZM250.07 82.344" fill="#262626"/>
<path d="M254.781 86.188C254.039 86.188 253.48 85.992 253.105 85.602 252.734 85.207 252.547 84.668 252.547 83.984 252.547 83.5 252.637 83.098 252.82 82.785 253.008 82.473 253.25 82.23 253.547 82.051 253.844 81.875 254.188 81.75 254.566 81.684 254.953 81.613 255.34 81.574 255.738 81.566L257.402 81.539V81.137C257.402 80.832 257.367 80.57 257.305 80.355 257.238 80.141 257.141 79.969 257.008 79.836 256.879 79.707 256.711 79.609 256.516 79.547 256.316 79.484 256.082 79.453 255.816 79.453 255.578 79.453 255.363 79.469 255.172 79.504 254.98 79.539 254.812 79.602 254.672 79.688 254.531 79.777 254.418 79.898 254.328 80.051 254.242 80.203 254.188 80.395 254.16 80.629L252.875 80.516C252.918 80.223 253.004 79.953 253.133 79.711 253.262 79.465 253.441 79.254 253.676 79.078 253.914 78.902 254.207 78.762 254.559 78.664 254.91 78.566 255.34 78.516 255.84 78.516 256.77 78.516 257.469 78.73 257.938 79.156 258.406 79.582 258.645 80.199 258.645 81.008V84.191C258.645 84.555 258.691 84.832 258.789 85.016 258.883 85.199 259.066 85.293 259.336 85.293 259.402 85.293 259.473 85.285 259.539 85.277 259.609 85.27 259.676 85.258 259.738 85.242V86.008C259.582 86.047 259.43 86.07 259.273 86.09 259.125 86.109 258.961 86.117 258.789 86.117 258.555 86.117 258.355 86.086 258.191 86.027 258.023 85.965 257.887 85.871 257.785 85.746 257.68 85.621 257.598 85.465 257.543 85.281 257.488 85.098 257.453 84.883 257.441 84.637H257.402C257.27 84.871 257.121 85.086 256.965 85.277 256.809 85.469 256.625 85.633 256.414 85.766 256.207 85.898 255.969 86.004 255.699 86.078 255.434 86.152 255.129 86.188 254.781 86.188ZM255.062 85.266C255.453 85.266 255.797 85.195 256.09 85.051 256.383 84.906 256.629 84.723 256.82 84.5 257.016 84.273 257.16 84.031 257.258 83.766 257.352 83.504 257.402 83.25 257.402 83.008V82.398L256.055 82.43C255.754 82.434 255.465 82.453 255.195 82.492 254.926 82.531 254.688 82.605 254.48 82.723 254.277 82.836 254.113 82.996 253.992 83.199 253.871 83.402 253.812 83.672 253.812 84.008 253.812 84.41 253.918 84.719 254.133 84.938 254.352 85.156 254.66 85.266 255.062 85.266ZM255.062 85.266" fill="#262626"/>
<path d="M260.68 75.906H261.91V86.050998H260.68Z" fill="#262626"/>
<path d="M267.887 86.051V76.418H269.191V84.984H274.059V86.051ZM267.887 86.051" fill="#262626"/>
<path d="M281.723 82.344C281.723 83.641 281.438 84.605 280.867 85.238 280.297 85.871 279.469 86.188 278.387 86.188 277.871 86.188 277.41 86.109 277.004 85.957 276.598 85.801 276.258 85.562 275.977 85.242 275.695 84.922 275.48 84.523 275.332 84.043 275.188 83.562 275.113 82.996 275.113 82.344 275.113 79.793 276.219 78.516 278.426 78.516 279 78.516 279.496 78.598 279.914 78.758 280.332 78.918 280.672 79.156 280.941 79.477 281.207 79.793 281.402 80.191 281.531 80.672 281.66 81.148 281.723 81.707 281.723 82.344ZM280.43 82.344C280.43 81.77 280.387 81.297 280.297 80.922 280.207 80.551 280.078 80.25 279.906 80.027 279.738 79.805 279.527 79.648 279.281 79.559 279.035 79.473 278.758 79.426 278.449 79.426 278.133 79.426 277.848 79.473 277.594 79.566 277.344 79.66 277.129 79.82 276.949 80.047 276.773 80.27 276.637 80.57 276.543 80.945 276.449 81.316 276.402 81.785 276.402 82.344 276.402 82.918 276.453 83.395 276.555 83.77 276.656 84.148 276.793 84.445 276.969 84.672 277.145 84.895 277.352 85.051 277.59 85.141 277.828 85.234 278.09 85.277 278.371 85.277 278.688 85.277 278.973 85.234 279.227 85.145 279.48 85.055 279.699 84.898 279.875 84.676 280.055 84.453 280.191 84.152 280.285 83.773 280.383 83.395 280.43 82.918 280.43 82.344ZM280.43 82.344" fill="#262626"/>
<path d="M284.188 82.32C284.188 82.742 284.219 83.129 284.281 83.488 284.344 83.844 284.449 84.148 284.594 84.406 284.738 84.664 284.934 84.863 285.172 85.004 285.41 85.145 285.707 85.219 286.059 85.219 286.496 85.219 286.859 85.098 287.152 84.863 287.449 84.625 287.629 84.258 287.699 83.766L288.941 83.852C288.898 84.156 288.809 84.449 288.672 84.73 288.539 85.016 288.352 85.262 288.117 85.477 287.883 85.691 287.598 85.863 287.258 85.992 286.922 86.125 286.531 86.188 286.09 86.188 285.512 86.188 285.02 86.09 284.613 85.895 284.207 85.699 283.879 85.426 283.625 85.082 283.371 84.738 283.188 84.332 283.074 83.867 282.961 83.398 282.906 82.891 282.906 82.344 282.906 81.848 282.945 81.41 283.027 81.031 283.109 80.648 283.223 80.316 283.371 80.031 283.523 79.746 283.695 79.508 283.895 79.312 284.098 79.117 284.312 78.965 284.547 78.848 284.781 78.73 285.031 78.648 285.289 78.594 285.551 78.543 285.812 78.516 286.078 78.516 286.492 78.516 286.859 78.574 287.184 78.688 287.508 78.801 287.785 78.957 288.02 79.156 288.258 79.355 288.445 79.586 288.594 79.859 288.738 80.125 288.84 80.414 288.902 80.727L287.633 80.82C287.57 80.41 287.41 80.086 287.148 79.844 286.891 79.602 286.52 79.48 286.043 79.48 285.691 79.48 285.398 79.539 285.164 79.656 284.93 79.77 284.738 79.945 284.594 80.18 284.449 80.418 284.344 80.711 284.281 81.066 284.219 81.422 284.188 81.84 284.188 82.32ZM284.188 82.32" fill="#262626"/>
<path d="M292.141 86.188C291.398 86.188 290.84 85.992 290.465 85.602 290.09 85.207 289.906 84.668 289.906 83.984 289.906 83.5 289.996 83.098 290.18 82.785 290.367 82.473 290.605 82.23 290.906 82.051 291.203 81.875 291.543 81.75 291.926 81.684 292.309 81.613 292.699 81.574 293.098 81.566L294.758 81.539V81.137C294.758 80.832 294.727 80.57 294.664 80.355 294.598 80.141 294.5 79.969 294.367 79.836 294.234 79.707 294.07 79.609 293.871 79.547 293.676 79.484 293.441 79.453 293.172 79.453 292.934 79.453 292.723 79.469 292.531 79.504 292.34 79.539 292.172 79.602 292.031 79.688 291.891 79.777 291.773 79.898 291.688 80.051 291.602 80.203 291.543 80.395 291.516 80.629L290.234 80.516C290.277 80.223 290.363 79.953 290.492 79.711 290.621 79.465 290.801 79.254 291.035 79.078 291.27 78.902 291.562 78.762 291.918 78.664 292.27 78.566 292.699 78.516 293.199 78.516 294.129 78.516 294.828 78.73 295.297 79.156 295.766 79.582 296 80.199 296 81.008V84.191C296 84.555 296.051 84.832 296.145 85.016 296.242 85.199 296.426 85.293 296.691 85.293 296.762 85.293 296.828 85.285 296.898 85.277 296.965 85.27 297.031 85.258 297.094 85.242V86.008C296.941 86.047 296.785 86.07 296.633 86.09 296.48 86.109 296.32 86.117 296.145 86.117 295.914 86.117 295.715 86.086 295.547 86.027 295.383 85.965 295.246 85.871 295.141 85.746 295.035 85.621 294.957 85.465 294.902 85.281 294.848 85.098 294.812 84.883 294.797 84.637H294.758C294.625 84.871 294.48 85.086 294.324 85.277 294.168 85.469 293.98 85.633 293.773 85.766 293.562 85.898 293.324 86.004 293.059 86.078 292.793 86.152 292.484 86.188 292.141 86.188ZM292.422 85.266C292.812 85.266 293.156 85.195 293.449 85.051 293.742 84.906 293.988 84.723 294.18 84.5 294.375 84.273 294.52 84.031 294.613 83.766 294.711 83.504 294.758 83.25 294.758 83.008V82.398L293.41 82.43C293.109 82.434 292.824 82.453 292.555 82.492 292.281 82.531 292.043 82.605 291.84 82.723 291.633 82.836 291.473 82.996 291.352 83.199 291.23 83.402 291.168 83.672 291.168 84.008 291.168 84.41 291.277 84.719 291.492 84.938 291.711 85.156 292.02 85.266 292.422 85.266ZM292.422 85.266" fill="#262626"/>
<path d="M300.883 85.996C300.695 86.047 300.504 86.086 300.312 86.113 300.117 86.145 299.895 86.16 299.641 86.16 298.656 86.16 298.164 85.602 298.164 84.484V79.551H297.309V78.656H298.211L298.574 77H299.395V78.656H300.762V79.551H299.395V84.219C299.395 84.574 299.449 84.824 299.566 84.969 299.684 85.109 299.883 85.184 300.172 85.184 300.293 85.184 300.406 85.172 300.516 85.156 300.629 85.137 300.75 85.113 300.883 85.086ZM300.883 85.996" fill="#262626"/>
<path d="M301.922 77.082V75.906H303.152V77.082ZM301.922 86.051V78.656H303.152V86.051ZM301.922 86.051" fill="#262626"/>
<path d="M311.297 82.344C311.297 83.641 311.012 84.605 310.441 85.238 309.871 85.871 309.043 86.188 307.961 86.188 307.445 86.188 306.984 86.109 306.578 85.957 306.172 85.801 305.828 85.562 305.547 85.242 305.27 84.922 305.055 84.523 304.906 84.043 304.758 83.562 304.684 82.996 304.684 82.344 304.684 79.793 305.789 78.516 308 78.516 308.574 78.516 309.07 78.598 309.484 78.758 309.902 78.918 310.246 79.156 310.512 79.477 310.777 79.793 310.977 80.191 311.102 80.672 311.23 81.148 311.297 81.707 311.297 82.344ZM310.004 82.344C310.004 81.77 309.957 81.297 309.867 80.922 309.781 80.551 309.648 80.25 309.48 80.027 309.309 79.805 309.102 79.648 308.855 79.559 308.605 79.473 308.328 79.426 308.02 79.426 307.707 79.426 307.422 79.473 307.168 79.566 306.914 79.66 306.699 79.82 306.523 80.047 306.344 80.27 306.211 80.57 306.113 80.945 306.023 81.316 305.977 81.785 305.977 82.344 305.977 82.918 306.023 83.395 306.125 83.77 306.227 84.148 306.363 84.445 306.539 84.672 306.715 84.895 306.922 85.051 307.164 85.141 307.402 85.234 307.664 85.277 307.945 85.277 308.258 85.277 308.543 85.234 308.801 85.145 309.055 85.055 309.27 84.898 309.449 84.676 309.625 84.453 309.762 84.152 309.859 83.773 309.953 83.395 310.004 82.918 310.004 82.344ZM310.004 82.344" fill="#262626"/>
<path d="M317.52 86.051V81.359C317.52 81 317.496 80.699 317.441 80.461 317.391 80.219 317.305 80.023 317.188 79.875 317.07 79.727 316.914 79.621 316.719 79.559 316.523 79.5 316.285 79.469 315.996 79.469 315.707 79.469 315.441 79.52 315.207 79.621 314.973 79.723 314.773 79.871 314.605 80.066 314.438 80.258 314.309 80.5 314.219 80.781 314.129 81.066 314.082 81.395 314.082 81.766V86.051H312.852V80.234C312.852 80.078 312.852 79.914 312.848 79.742 312.848 79.574 312.844 79.41 312.84 79.262 312.832 79.105 312.828 78.977 312.824 78.867 312.82 78.758 312.816 78.688 312.812 78.656H313.973C313.977 78.676 313.98 78.738 313.988 78.84 313.992 78.938 314 79.055 314.004 79.184 314.012 79.312 314.016 79.445 314.02 79.578 314.027 79.715 314.027 79.828 314.027 79.918H314.051C314.168 79.703 314.297 79.512 314.438 79.336 314.582 79.164 314.746 79.016 314.93 78.898 315.117 78.777 315.332 78.684 315.574 78.617 315.816 78.551 316.094 78.516 316.414 78.516 316.824 78.516 317.176 78.566 317.473 78.668 317.77 78.77 318.012 78.922 318.203 79.133 318.395 79.344 318.539 79.613 318.625 79.941 318.715 80.273 318.758 80.664 318.758 81.121V86.051ZM317.52 86.051" fill="#262626"/>
<path d="M330.766 86.051 329.664 83.234H325.277L324.168 86.051H322.816L326.746 76.418H328.23L332.098 86.051ZM328.039 79.039C327.965 78.855 327.895 78.672 327.828 78.484 327.762 78.297 327.703 78.125 327.656 77.973 327.605 77.82 327.562 77.691 327.527 77.59 327.496 77.488 327.477 77.426 327.473 77.402 327.461 77.426 327.441 77.488 327.406 77.594 327.379 77.699 327.336 77.828 327.281 77.984 327.23 78.141 327.172 78.309 327.105 78.496 327.039 78.684 326.973 78.867 326.902 79.051L325.672 82.215H329.277ZM328.039 79.039" fill="#262626"/>
<path d="M208.074 107.426C209.402 107.426 210.672 106.898 211.609 105.961 212.547 105.023 213.074 103.75 213.074 102.426 213.074 101.102 212.547 99.828 211.609 98.891 210.672 97.953 209.402 97.426 208.074 97.426 206.75 97.426 205.477 97.953 204.539 98.891 203.602 99.828 203.074 101.102 203.074 102.426 203.074 103.75 203.602 105.023 204.539 105.961 205.477 106.898 206.75 107.426 208.074 107.426ZM208.074 107.426" fill="#ff00ff"/>
<path stroke-width="1" stroke-linecap="butt" stroke-linejoin="round" fill="none" stroke="#000000" d="M208.074 107.426C209.402 107.426 210.672 106.898 211.609 105.961 212.547 105.023 213.074 103.75 213.074 102.426 213.074 101.102 212.547 99.828 211.609 98.891 210.672 97.953 209.402 97.426 208.074 97.426 206.75 97.426 205.477 97.953 204.539 98.891 203.602 99.828 203.074 101.102 203.074 102.426 203.074 103.75 203.602 105.023 204.539 105.961 205.477 106.898 206.75 107.426 208.074 107.426ZM208.074 107.426"/>
<path d="M233.98 101.242C233.98 100.488 234.082 99.809 234.285 99.203 234.488 98.598 234.789 98.082 235.191 97.656 235.598 97.23 236.098 96.902 236.691 96.672 237.289 96.441 237.984 96.324 238.773 96.324 239.363 96.324 239.883 96.379 240.332 96.484 240.777 96.586 241.164 96.738 241.492 96.934 241.82 97.129 242.098 97.367 242.324 97.648 242.555 97.93 242.75 98.246 242.906 98.594L241.664 98.965C241.543 98.727 241.402 98.512 241.234 98.316 241.07 98.125 240.867 97.961 240.629 97.824 240.395 97.688 240.121 97.582 239.809 97.508 239.496 97.43 239.141 97.391 238.738 97.391 238.156 97.391 237.648 97.484 237.215 97.664 236.785 97.848 236.43 98.109 236.145 98.445 235.863 98.781 235.652 99.188 235.512 99.66 235.375 100.137 235.305 100.66 235.305 101.242 235.305 101.82 235.379 102.348 235.531 102.832 235.68 103.309 235.902 103.723 236.199 104.074 236.496 104.422 236.867 104.691 237.305 104.887 237.746 105.082 238.254 105.18 238.836 105.18 239.211 105.18 239.559 105.145 239.879 105.082 240.199 105.02 240.488 104.938 240.742 104.836 241 104.73 241.23 104.617 241.426 104.492 241.621 104.367 241.785 104.238 241.918 104.113V102.375H239.039V101.281H243.121V104.605C242.906 104.824 242.652 105.031 242.363 105.23 242.074 105.426 241.75 105.602 241.391 105.754 241.031 105.902 240.637 106.02 240.207 106.109 239.777 106.195 239.32 106.238 238.836 106.238 238.023 106.238 237.312 106.113 236.707 105.867 236.102 105.617 235.598 105.27 235.191 104.824 234.789 104.379 234.488 103.855 234.285 103.242 234.082 102.633 233.98 101.965 233.98 101.242ZM233.98 101.242" fill="#262626"/>
<path d="M251.363 102.395C251.363 103.691 251.078 104.656 250.508 105.289 249.938 105.922 249.113 106.238 248.027 106.238 247.512 106.238 247.055 106.16 246.645 106.008 246.242 105.852 245.898 105.613 245.617 105.293 245.336 104.973 245.125 104.574 244.977 104.094 244.828 103.613 244.754 103.047 244.754 102.395 244.754 99.844 245.859 98.566 248.066 98.566 248.641 98.566 249.137 98.648 249.555 98.809 249.973 98.965 250.312 99.207 250.582 99.523 250.848 99.844 251.047 100.242 251.172 100.723 251.301 101.199 251.363 101.758 251.363 102.395ZM250.07 102.395C250.07 101.82 250.027 101.348 249.938 100.973 249.848 100.602 249.719 100.301 249.547 100.078 249.379 99.855 249.168 99.699 248.922 99.609 248.676 99.523 248.398 99.477 248.09 99.477 247.773 99.477 247.492 99.523 247.238 99.617 246.984 99.711 246.77 99.871 246.59 100.098 246.414 100.32 246.277 100.621 246.184 100.996 246.09 101.367 246.043 101.836 246.043 102.395 246.043 102.969 246.094 103.445 246.195 103.82 246.297 104.199 246.434 104.496 246.609 104.719 246.785 104.945 246.992 105.102 247.23 105.191 247.473 105.285 247.73 105.328 248.012 105.328 248.328 105.328 248.613 105.285 248.867 105.195 249.125 105.105 249.34 104.949 249.52 104.727 249.695 104.504 249.832 104.203 249.926 103.824 250.023 103.445 250.07 102.969 250.07 102.395ZM250.07 102.395" fill="#262626"/>
<path d="M254.781 106.238C254.039 106.238 253.48 106.043 253.105 105.648 252.734 105.258 252.547 104.719 252.547 104.035 252.547 103.551 252.637 103.148 252.82 102.836 253.008 102.523 253.25 102.281 253.547 102.102 253.844 101.926 254.188 101.801 254.566 101.734 254.953 101.664 255.34 101.625 255.738 101.617L257.402 101.59V101.188C257.402 100.879 257.367 100.621 257.305 100.406 257.238 100.191 257.141 100.02 257.008 99.887 256.879 99.754 256.711 99.66 256.516 99.598 256.316 99.535 256.082 99.504 255.816 99.504 255.578 99.504 255.363 99.52 255.172 99.555 254.98 99.59 254.812 99.652 254.672 99.738 254.531 99.828 254.418 99.949 254.328 100.102 254.242 100.254 254.188 100.445 254.16 100.68L252.875 100.562C252.918 100.273 253.004 100.004 253.133 99.762 253.262 99.516 253.441 99.305 253.676 99.129 253.914 98.953 254.207 98.812 254.559 98.715 254.91 98.617 255.34 98.566 255.84 98.566 256.77 98.566 257.469 98.781 257.938 99.207 258.406 99.633 258.645 100.25 258.645 101.055V104.242C258.645 104.605 258.691 104.883 258.789 105.066 258.883 105.25 259.066 105.344 259.336 105.344 259.402 105.344 259.473 105.336 259.539 105.328 259.609 105.32 259.676 105.309 259.738 105.293V106.059C259.582 106.098 259.43 106.121 259.273 106.141 259.125 106.16 258.961 106.168 258.789 106.168 258.555 106.168 258.355 106.137 258.191 106.078 258.023 106.016 257.887 105.922 257.785 105.797 257.68 105.672 257.598 105.516 257.543 105.332 257.488 105.148 257.453 104.934 257.441 104.688H257.402C257.27 104.922 257.121 105.137 256.965 105.328 256.809 105.52 256.625 105.684 256.414 105.816 256.207 105.949 255.969 106.055 255.699 106.129 255.434 106.203 255.129 106.238 254.781 106.238ZM255.062 105.316C255.453 105.316 255.797 105.246 256.09 105.102 256.383 104.957 256.629 104.773 256.82 104.551 257.016 104.324 257.16 104.082 257.258 103.816 257.352 103.555 257.402 103.301 257.402 103.059V102.449L256.055 102.477C255.754 102.484 255.465 102.504 255.195 102.543 254.926 102.582 254.688 102.656 254.48 102.773 254.277 102.887 254.113 103.047 253.992 103.25 253.871 103.453 253.812 103.723 253.812 104.059 253.812 104.457 253.918 104.77 254.133 104.988 254.352 105.207 254.66 105.316 255.062 105.316ZM255.062 105.316" fill="#262626"/>
<path d="M260.68 95.957H261.91V106.102008H260.68Z" fill="#262626"/>
<path d="M267.887 106.102V96.469H269.191V105.035H274.059V106.102ZM267.887 106.102" fill="#262626"/>
<path d="M281.723 102.395C281.723 103.691 281.438 104.656 280.867 105.289 280.297 105.922 279.469 106.238 278.387 106.238 277.871 106.238 277.41 106.16 277.004 106.008 276.598 105.852 276.258 105.613 275.977 105.293 275.695 104.973 275.48 104.574 275.332 104.094 275.188 103.613 275.113 103.047 275.113 102.395 275.113 99.844 276.219 98.566 278.426 98.566 279 98.566 279.496 98.648 279.914 98.809 280.332 98.965 280.672 99.207 280.941 99.523 281.207 99.844 281.402 100.242 281.531 100.723 281.66 101.199 281.723 101.758 281.723 102.395ZM280.43 102.395C280.43 101.82 280.387 101.348 280.297 100.973 280.207 100.602 280.078 100.301 279.906 100.078 279.738 99.855 279.527 99.699 279.281 99.609 279.035 99.523 278.758 99.477 278.449 99.477 278.133 99.477 277.848 99.523 277.594 99.617 277.344 99.711 277.129 99.871 276.949 100.098 276.773 100.32 276.637 100.621 276.543 100.996 276.449 101.367 276.402 101.836 276.402 102.395 276.402 102.969 276.453 103.445 276.555 103.82 276.656 104.199 276.793 104.496 276.969 104.719 277.145 104.945 277.352 105.102 277.59 105.191 277.828 105.285 278.09 105.328 278.371 105.328 278.688 105.328 278.973 105.285 279.227 105.195 279.48 105.105 279.699 104.949 279.875 104.727 280.055 104.504 280.191 104.203 280.285 103.824 280.383 103.445 280.43 102.969 280.43 102.395ZM280.43 102.395" fill="#262626"/>
<path d="M284.188 102.367C284.188 102.793 284.219 103.18 284.281 103.539 284.344 103.895 284.449 104.199 284.594 104.457 284.738 104.715 284.934 104.914 285.172 105.055 285.41 105.195 285.707 105.266 286.059 105.266 286.496 105.266 286.859 105.148 287.152 104.914 287.449 104.676 287.629 104.309 287.699 103.816L288.941 103.898C288.898 104.207 288.809 104.5 288.672 104.781 288.539 105.066 288.352 105.312 288.117 105.527 287.883 105.742 287.598 105.914 287.258 106.043 286.922 106.176 286.531 106.238 286.09 106.238 285.512 106.238 285.02 106.141 284.613 105.945 284.207 105.75 283.879 105.477 283.625 105.133 283.371 104.789 283.188 104.383 283.074 103.918 282.961 103.449 282.906 102.941 282.906 102.395 282.906 101.898 282.945 101.461 283.027 101.082 283.109 100.699 283.223 100.367 283.371 100.082 283.523 99.797 283.695 99.559 283.895 99.363 284.098 99.168 284.312 99.016 284.547 98.898 284.781 98.781 285.031 98.699 285.289 98.645 285.551 98.594 285.812 98.566 286.078 98.566 286.492 98.566 286.859 98.625 287.184 98.738 287.508 98.852 287.785 99.008 288.02 99.207 288.258 99.402 288.445 99.637 288.594 99.906 288.738 100.176 288.84 100.465 288.902 100.777L287.633 100.871C287.57 100.461 287.41 100.137 287.148 99.895 286.891 99.652 286.52 99.531 286.043 99.531 285.691 99.531 285.398 99.59 285.164 99.707 284.93 99.82 284.738 99.996 284.594 100.23 284.449 100.465 284.344 100.762 284.281 101.117 284.219 101.473 284.188 101.891 284.188 102.367ZM284.188 102.367" fill="#262626"/>
<path d="M292.141 106.238C291.398 106.238 290.84 106.043 290.465 105.648 290.09 105.258 289.906 104.719 289.906 104.035 289.906 103.551 289.996 103.148 290.18 102.836 290.367 102.523 290.605 102.281 290.906 102.102 291.203 101.926 291.543 101.801 291.926 101.734 292.309 101.664 292.699 101.625 293.098 101.617L294.758 101.59V101.188C294.758 100.879 294.727 100.621 294.664 100.406 294.598 100.191 294.5 100.02 294.367 99.887 294.234 99.754 294.07 99.66 293.871 99.598 293.676 99.535 293.441 99.504 293.172 99.504 292.934 99.504 292.723 99.52 292.531 99.555 292.34 99.59 292.172 99.652 292.031 99.738 291.891 99.828 291.773 99.949 291.688 100.102 291.602 100.254 291.543 100.445 291.516 100.68L290.234 100.562C290.277 100.273 290.363 100.004 290.492 99.762 290.621 99.516 290.801 99.305 291.035 99.129 291.27 98.953 291.562 98.812 291.918 98.715 292.27 98.617 292.699 98.566 293.199 98.566 294.129 98.566 294.828 98.781 295.297 99.207 295.766 99.633 296 100.25 296 101.055V104.242C296 104.605 296.051 104.883 296.145 105.066 296.242 105.25 296.426 105.344 296.691 105.344 296.762 105.344 296.828 105.336 296.898 105.328 296.965 105.32 297.031 105.309 297.094 105.293V106.059C296.941 106.098 296.785 106.121 296.633 106.141 296.48 106.16 296.32 106.168 296.145 106.168 295.914 106.168 295.715 106.137 295.547 106.078 295.383 106.016 295.246 105.922 295.141 105.797 295.035 105.672 294.957 105.516 294.902 105.332 294.848 105.148 294.812 104.934 294.797 104.688H294.758C294.625 104.922 294.48 105.137 294.324 105.328 294.168 105.52 293.98 105.684 293.773 105.816 293.562 105.949 293.324 106.055 293.059 106.129 292.793 106.203 292.484 106.238 292.141 106.238ZM292.422 105.316C292.812 105.316 293.156 105.246 293.449 105.102 293.742 104.957 293.988 104.773 294.18 104.551 294.375 104.324 294.52 104.082 294.613 103.816 294.711 103.555 294.758 103.301 294.758 103.059V102.449L293.41 102.477C293.109 102.484 292.824 102.504 292.555 102.543 292.281 102.582 292.043 102.656 291.84 102.773 291.633 102.887 291.473 103.047 291.352 103.25 291.23 103.453 291.168 103.723 291.168 104.059 291.168 104.457 291.277 104.77 291.492 104.988 291.711 105.207 292.02 105.316 292.422 105.316ZM292.422 105.316" fill="#262626"/>
<path d="M300.883 106.047C300.695 106.098 300.504 106.137 300.312 106.164 300.117 106.195 299.895 106.211 299.641 106.211 298.656 106.211 298.164 105.652 298.164 104.535V99.602H297.309V98.703H298.211L298.574 97.051H299.395V98.703H300.762V99.602H299.395V104.27C299.395 104.625 299.449 104.875 299.566 105.02 299.684 105.16 299.883 105.234 300.172 105.234 300.293 105.234 300.406 105.223 300.516 105.207 300.629 105.188 300.75 105.164 300.883 105.137ZM300.883 106.047" fill="#262626"/>
<path d="M301.922 97.133V95.957H303.152V97.133ZM301.922 106.102V98.703H303.152V106.102ZM301.922 106.102" fill="#262626"/>
<path d="M311.297 102.395C311.297 103.691 311.012 104.656 310.441 105.289 309.871 105.922 309.043 106.238 307.961 106.238 307.445 106.238 306.984 106.16 306.578 106.008 306.172 105.852 305.828 105.613 305.547 105.293 305.27 104.973 305.055 104.574 304.906 104.094 304.758 103.613 304.684 103.047 304.684 102.395 304.684 99.844 305.789 98.566 308 98.566 308.574 98.566 309.07 98.648 309.484 98.809 309.902 98.965 310.246 99.207 310.512 99.523 310.777 99.844 310.977 100.242 311.102 100.723 311.23 101.199 311.297 101.758 311.297 102.395ZM310.004 102.395C310.004 101.82 309.957 101.348 309.867 100.973 309.781 100.602 309.648 100.301 309.48 100.078 309.309 99.855 309.102 99.699 308.855 99.609 308.605 99.523 308.328 99.477 308.02 99.477 307.707 99.477 307.422 99.523 307.168 99.617 306.914 99.711 306.699 99.871 306.523 100.098 306.344 100.32 306.211 100.621 306.113 100.996 306.023 101.367 305.977 101.836 305.977 102.395 305.977 102.969 306.023 103.445 306.125 103.82 306.227 104.199 306.363 104.496 306.539 104.719 306.715 104.945 306.922 105.102 307.164 105.191 307.402 105.285 307.664 105.328 307.945 105.328 308.258 105.328 308.543 105.285 308.801 105.195 309.055 105.105 309.27 104.949 309.449 104.727 309.625 104.504 309.762 104.203 309.859 103.824 309.953 103.445 310.004 102.969 310.004 102.395ZM310.004 102.395" fill="#262626"/>
<path d="M317.52 106.102V101.41C317.52 101.051 317.496 100.75 317.441 100.508 317.391 100.27 317.305 100.074 317.188 99.926 317.07 99.777 316.914 99.672 316.719 99.609 316.523 99.551 316.285 99.52 315.996 99.52 315.707 99.52 315.441 99.57 315.207 99.672 314.973 99.773 314.773 99.922 314.605 100.117 314.438 100.309 314.309 100.551 314.219 100.832 314.129 101.117 314.082 101.445 314.082 101.816V106.102H312.852V100.285C312.852 100.129 312.852 99.965 312.848 99.793 312.848 99.625 312.844 99.461 312.84 99.312 312.832 99.156 312.828 99.027 312.824 98.918 312.82 98.809 312.816 98.738 312.812 98.703H313.973C313.977 98.727 313.98 98.789 313.988 98.891 313.992 98.988 314 99.105 314.004 99.234 314.012 99.363 314.016 99.496 314.02 99.629 314.027 99.766 314.027 99.879 314.027 99.969H314.051C314.168 99.754 314.297 99.562 314.438 99.387 314.582 99.215 314.746 99.066 314.93 98.949 315.117 98.828 315.332 98.734 315.574 98.668 315.816 98.602 316.094 98.566 316.414 98.566 316.824 98.566 317.176 98.617 317.473 98.719 317.77 98.82 318.012 98.973 318.203 99.184 318.395 99.395 318.539 99.664 318.625 99.992 318.715 100.324 318.758 100.715 318.758 101.172V106.102ZM317.52 106.102" fill="#262626"/>
<path d="M332.156 103.387C332.156 103.875 332.062 104.293 331.871 104.637 331.68 104.98 331.422 105.258 331.098 105.477 330.773 105.691 330.398 105.848 329.969 105.949 329.543 106.051 329.09 106.102 328.617 106.102H324.707V96.469H328.207C328.738 96.469 329.215 96.516 329.633 96.602 330.055 96.691 330.41 96.832 330.703 97.023 330.992 97.215 331.215 97.457 331.367 97.75 331.52 98.043 331.598 98.398 331.598 98.809 331.598 99.074 331.559 99.328 331.484 99.566 331.41 99.805 331.297 100.02 331.141 100.211 330.992 100.406 330.801 100.574 330.57 100.711 330.34 100.848 330.07 100.953 329.766 101.023 330.152 101.066 330.496 101.156 330.793 101.289 331.094 101.422 331.344 101.59 331.543 101.797 331.742 102 331.895 102.238 332 102.508 332.105 102.781 332.156 103.074 332.156 103.387ZM330.285 98.965C330.285 98.445 330.105 98.074 329.75 97.852 329.395 97.625 328.883 97.516 328.207 97.516H326.012V100.562H328.207C328.59 100.562 328.914 100.527 329.176 100.453 329.441 100.379 329.656 100.27 329.82 100.133 329.984 99.992 330.102 99.824 330.176 99.629 330.246 99.43 330.285 99.211 330.285 98.965ZM330.836 103.285C330.836 102.98 330.781 102.719 330.668 102.504 330.559 102.289 330.398 102.117 330.188 101.98 329.98 101.844 329.727 101.742 329.434 101.68 329.141 101.613 328.809 101.582 328.445 101.582H326.012V105.055H328.547C328.879 105.055 329.188 105.027 329.465 104.973 329.746 104.918 329.988 104.824 330.191 104.688 330.395 104.547 330.555 104.367 330.668 104.141 330.781 103.91 330.836 103.625 330.836 103.285ZM330.836 103.285" fill="#262626"/>
</g>
</svg>
